<?xml version="1.0" encoding="UTF-8"?>
<svg version="1.1" xmlns="http://www.w3.org/2000/svg" width="1024" height="1024">
<path d="M0 0 C2.72289407 0.12325968 5.44395221 0.1796801 8.16894531 0.23925781 C36.42845749 0.91103702 69.57392191 4.34884866 95 18 C95.33 17.34 95.66 16.68 96 16 C96 16.99 96 17.98 96 19 C96.80824219 19.23976562 97.61648438 19.47953125 98.44921875 19.7265625 C128.84295952 30.62684797 156.20106054 55.21619771 175 81 C175.41991211 81.57556641 175.83982422 82.15113281 176.27246094 82.74414062 C199.86065254 115.55769053 211.6833738 154.58311557 212.49609375 194.83984375 C212.79329959 197.09344419 212.79329959 197.09344419 214.5625 198.3046875 C217.94882909 199.27065958 221.04605084 199.22531128 224.5625 199.1875 C225.23474609 199.18685547 225.90699219 199.18621094 226.59960938 199.18554688 C229.66413171 199.1581579 232.0727161 198.9757613 235 198 C235 198.66 235 199.32 235 200 C235.75088898 199.99111755 236.50177795 199.98223511 237.27542114 199.9730835 C244.36667919 199.89279271 251.45777865 199.83196239 258.54936409 199.79275131 C262.1948912 199.77191429 265.84004136 199.74366916 269.48535156 199.69824219 C273.00614987 199.65464357 276.52658661 199.63083369 280.04763412 199.62049103 C282.03847947 199.60954994 284.02918022 199.57834601 286.01980591 199.54681396 C297.19356901 199.54404871 297.19356901 199.54404871 302 204 C302.7425 204.680625 303.485 205.36125 304.25 206.0625 C308.58711358 213.34265493 308.41676182 223.25198627 309.03515625 231.546875 C309.11873886 232.60231506 309.20232147 233.65775513 309.28843689 234.74517822 C309.55173086 238.07973123 309.80756322 241.41479857 310.0625 244.75 C310.32220315 248.0993749 310.58353595 251.44860889 310.84727478 254.79766846 C311.01017705 256.87099177 311.17059804 258.94451203 311.32814026 261.01824951 C311.7197083 266.04904234 312.21348691 271.01514325 313 276 C314.32 275.67 315.64 275.34 317 275 C317 274.34 317 273.68 317 273 C317.66 273 318.32 273 319 273 C319.26669495 272.40766068 319.53338989 271.81532135 319.8081665 271.20503235 C321.0236511 268.95624267 322.25640003 267.50765391 324.06933594 265.71948242 C324.69048279 265.10171432 325.31162964 264.48394623 325.95159912 263.84745789 C326.62241516 263.19010147 327.2932312 262.53274506 327.984375 261.85546875 C328.6775885 261.16745682 329.370802 260.47944489 330.08502197 259.77058411 C332.3019837 257.57141773 334.52549652 255.3790354 336.75 253.1875 C338.95938657 251.00586348 341.16725286 248.82274372 343.37213135 246.6365509 C344.74281053 245.27798156 346.11615312 243.92209213 347.49261475 242.56938171 C351.06411648 239.03468467 354.44718503 235.42504258 357.65875244 231.55903625 C359.04643973 229.9460195 360.41160854 228.41794968 362 227 C362.66 227 363.32 227 364 227 C364.20625 226.443125 364.4125 225.88625 364.625 225.3125 C366.15171774 222.74483835 367.99548071 221.29854935 370.31494141 219.45996094 C372.12540735 217.89134513 373.60476524 216.22165563 375.1484375 214.390625 C379.19560093 209.70325348 383.53595095 205.35251722 387.9375 201 C388.71673828 200.22527344 389.49597656 199.45054687 390.29882812 198.65234375 C392.1969242 196.76589243 394.09733149 194.88183755 396 193 C394.68 192.34 393.36 191.68 392 191 C393.32 190.34 394.64 189.68 396 189 C395.41992188 187.87207031 394.83984375 186.74414062 394.2421875 185.58203125 C389.33942593 175.78912513 385.56269312 166.21815232 382.85302734 155.59301758 C382.63469238 154.74505615 382.41635742 153.89709473 382.19140625 153.0234375 C382.00779541 152.26981934 381.82418457 151.51620117 381.63500977 150.73974609 C381.14829977 148.78795434 381.14829977 148.78795434 379 148 C378.375 145.4375 378.375 145.4375 378 143 C378.66 143 379.32 143 380 143 C380 140.69 380 138.38 380 136 C379.01 135.67 378.02 135.34 377 135 C377.66 134.67 378.32 134.34 379 134 C378.85936865 131.70800823 378.71234057 129.41640814 378.5625 127.125 C378.48128906 125.84882813 378.40007813 124.57265625 378.31640625 123.2578125 C378.20793973 120.11699848 378.20793973 120.11699848 377 118 C377.33 117.34 377.66 116.68 378 116 C378.21195701 114.19941472 378.4188677 112.39802194 378.59423828 110.59350586 C380.68040326 89.38882892 386.63076151 68.76681884 403.13671875 54.1015625 C412.23018293 47 412.23018293 47 417 47 C417.33 46.01 417.66 45.02 418 44 C418 44.66 418 45.32 418 46 C418.969375 45.82082031 419.93875 45.64164063 420.9375 45.45703125 C430.08499853 43.94472462 437.64626114 44.1757236 446.671875 46.2734375 C450.08357483 47.14219099 450.08357483 47.14219099 454 47 C454 47.66 454 48.32 454 49 C455.15628906 49.30744141 455.15628906 49.30744141 456.3359375 49.62109375 C457.33882812 49.89050781 458.34171875 50.15992188 459.375 50.4375 C460.37273438 50.70433594 461.37046875 50.97117188 462.3984375 51.24609375 C474.61590741 54.78659179 486.6399814 63.83483743 497 71 C498.60299948 72.04346193 500.20708816 73.08525341 501.8125 74.125 C507.05011705 77.63541713 511.59990707 81.70015103 516.21875 85.9765625 C516.79850586 86.5132959 517.37826172 87.0500293 517.97558594 87.60302734 C519.1428962 88.68649942 520.30768717 89.77269317 521.46972656 90.86181641 C523.89862179 93.12651889 526.23026899 95.15351266 529 97 C529 97.66 529 98.32 529 99 C529.99 99.33 530.98 99.66 532 100 C532 100.66 532 101.32 532 102 C532.99 102.33 533.98 102.66 535 103 C536.47265625 104.42578125 536.47265625 104.42578125 538.0625 106.3125 C538.96742188 107.37791016 538.96742188 107.37791016 539.890625 108.46484375 C540.58671875 109.30144531 541.2828125 110.13804687 542 111 C542.86976996 112.04298685 543.73956282 113.0859546 544.609375 114.12890625 C545.95035378 115.73754932 547.28969544 117.34738733 548.62329102 118.9621582 C550.35451812 121.05469674 552.07824135 123.07824135 554 125 C554.93946321 126.3384521 555.85296714 127.69524831 556.75 129.0625 C557.2759375 129.8565625 557.801875 130.650625 558.34375 131.46875 C559.45747927 133.17086454 560.56151667 134.8793563 561.65625 136.59375 C562.1821875 137.4084375 562.708125 138.223125 563.25 139.0625 C563.72953125 139.81660156 564.2090625 140.57070313 564.703125 141.34765625 C565.13109375 141.89292969 565.5590625 142.43820312 566 143 C566.66 143 567.32 143 568 143 C568.185625 144.175625 568.185625 144.175625 568.375 145.375 C568.79117993 148.14057822 568.79117993 148.14057822 571 150 C572.30295424 152.3799457 573.54541024 154.75840991 574.75 157.1875 C575.28016724 158.25629395 575.28016724 158.25629395 575.82104492 159.34667969 C584.36996747 176.83442822 592.26359874 195.53372741 586.125 215.125 C579.12515836 232.52629171 564.81938269 243.79999113 548.00341797 251.17919922 C542.79859382 253.31161681 537.47696052 254.76263674 532 256 C531.02933594 256.22429687 530.05867187 256.44859375 529.05859375 256.6796875 C504.01476192 261.65438063 478.43323707 255.17820546 456 244 C455.72470459 244.73702148 455.44940918 245.47404297 455.16577148 246.23339844 C454.08170048 248.80610894 452.88103366 250.94147094 451.34765625 253.265625 C450.56285889 254.46312378 450.56285889 254.46312378 449.76220703 255.68481445 C449.20130371 256.53132568 448.64040039 257.37783691 448.0625 258.25 C446.87349266 260.06106318 445.68469365 261.87226314 444.49609375 263.68359375 C443.90296387 264.5844873 443.30983398 265.48538086 442.69873047 266.41357422 C440.32099584 270.03382725 437.97207908 273.67233161 435.625 277.3125 C430.57332354 285.13256675 425.48523031 292.92877345 420.38916016 300.7199707 C416.76441687 306.26849592 413.18143989 311.84137157 409.62988281 317.43701172 C407.35616335 321.01243217 405.05562073 324.57009942 402.75 328.125 C401.79425194 329.60024818 400.83852332 331.07550895 399.8828125 332.55078125 C399.40360352 333.29021973 398.92439453 334.0296582 398.43066406 334.79150391 C396.60877051 337.60393549 394.78949332 340.41805414 392.97021484 343.23217773 C390.64853308 346.82256799 388.3244636 350.41141031 386 354 C385.30197266 355.07797852 385.30197266 355.07797852 384.58984375 356.17773438 C376.76739641 368.25243851 368.8800673 380.2840187 360.98150635 392.30899048 C352.81012206 404.69476925 352.81012206 404.69476925 344.78369141 417.17431641 C342.45180064 420.84924024 340.00147346 424.38793198 337.421875 427.89453125 C336.81214844 428.75336914 336.20242188 429.61220703 335.57421875 430.49707031 C334.40674147 432.13891337 333.20851943 433.75958185 331.97265625 435.35058594 C328.603402 440.17400379 327.70216026 443.68071747 328.18676758 449.54589844 C328.23992661 450.22465688 328.29308565 450.90341532 328.34785557 451.6027422 C328.54809991 454.07024571 328.77308193 456.53480804 329 459 C329.08748631 459.98491362 329.17497261 460.96982723 329.26511002 461.98458672 C329.96487819 469.85133052 330.7072662 477.71377738 331.45867991 485.57573485 C331.78791319 489.02633226 332.11418735 492.4772096 332.44081116 495.92805481 C333.0596673 502.4617373 333.68111333 508.99517066 334.30352646 515.52851516 C335.00470876 522.89003238 335.70295578 530.25182704 336.40096271 537.61364591 C337.37692059 547.90634046 338.35389672 558.19893763 339.33327579 568.49130726 C339.5658048 570.93520822 339.79815777 573.37912594 340.03031826 575.82306194 C340.55170892 581.30850453 341.07594127 586.79363098 341.6086731 592.27798462 C341.70209016 593.24430722 341.79550722 594.21062983 341.8917551 595.20623493 C342.06280015 596.97376724 342.2350523 598.7411834 342.40883541 600.5084486 C344.92144384 626.53504927 338.30633559 651.57426096 321.59375 671.96875 C304.07446827 692.4430913 280.46199417 705.1272919 253.58087039 707.80962324 C244.00112339 708.51626903 234.34030582 708.26180261 224.74154866 708.23213124 C221.19372238 708.22340484 217.64590224 708.22642333 214.09806824 708.22793579 C207.96777142 708.22897889 201.83751754 708.22276283 195.70723152 708.21146011 C186.84413305 708.19512951 177.9810551 708.18998942 169.11794322 708.18748413 C154.73429742 708.18311882 140.35067444 708.16984148 125.96704102 708.15087891 C112.00382602 708.13248986 98.04061725 708.1183482 84.07739258 708.10986328 C83.21510471 708.10933783 82.35281685 708.10881239 81.46439905 708.10827102 C77.13807794 708.10566073 72.81175679 708.10313337 68.48543561 708.10064721 C32.65694081 708.079951 -3.17152748 708.04475739 -39 708 C-39 707.34 -39 706.68 -39 706 C-39.66 706.226875 -40.32 706.45375 -41 706.6875 C-45.12428413 707.11711293 -48.23792632 705.4952366 -52 704 C-53.40233897 703.47307129 -54.80597778 702.9495881 -56.2109375 702.4296875 C-57.59895833 701.91145833 -58.98697917 701.39322917 -60.375 700.875 C-61.08527344 700.61074219 -61.79554688 700.34648438 -62.52734375 700.07421875 C-65.78481969 698.8565285 -68.89309736 697.55345132 -72 696 C-72 695.34 -72 694.68 -72 694 C-72.70511719 693.7525 -73.41023437 693.505 -74.13671875 693.25 C-77.36887443 691.83896341 -79.96328902 690.0749274 -82.8125 688 C-83.78832031 687.29875 -84.76414062 686.5975 -85.76953125 685.875 C-86.50558594 685.25625 -87.24164063 684.6375 -88 684 C-88 683.34 -88 682.68 -88 682 C-88.57105469 681.76152344 -89.14210937 681.52304687 -89.73046875 681.27734375 C-97.93850211 676.65767609 -103.3419907 666.8781765 -108 659 C-108.66 659.33 -109.32 659.66 -110 660 C-111.81027062 654.70843973 -113.41078475 649.36095277 -115 644 C-115.66 644 -116.32 644 -117 644 C-117.66 641.69 -118.32 639.38 -119 637 C-118.34 637 -117.68 637 -117 637 C-117.4640625 635.63875 -117.4640625 635.63875 -117.9375 634.25 C-119.21854679 630.33150393 -120.12659323 627.00346007 -120.11352539 622.87402344 C-120.11341209 621.67323151 -120.11341209 621.67323151 -120.11329651 620.44818115 C-120.10555458 619.16672211 -120.10555458 619.16672211 -120.09765625 617.859375 C-120.0962413 616.97719299 -120.09482635 616.09501099 -120.09336853 615.18609619 C-120.08778001 612.37402935 -120.07522961 609.5620427 -120.0625 606.75 C-120.05748352 604.84114698 -120.05292087 602.93229272 -120.04882812 601.0234375 C-120.03781434 596.34892753 -120.02055758 591.67447735 -120 587 C-119.67 587 -119.34 587 -119 587 C-118.66068773 584.33397504 -118.32842824 581.66736986 -118 579 C-117.90460938 578.25621094 -117.80921875 577.51242187 -117.7109375 576.74609375 C-117.10730411 571.78767664 -116.91388097 566.99490347 -117 562 C-117 561.01 -117 560.02 -117 559 C-116.34 559.33 -115.68 559.66 -115 560 C-115.02610352 558.98450073 -115.02610352 558.98450073 -115.05273438 557.94848633 C-115.18632875 548.40841668 -114.25881512 539.04393247 -113.28173828 529.5715332 C-112.2703489 519.66748553 -111.80507256 509.9602506 -112 500 C-111.67 500 -111.34 500 -111 500 C-108.75708534 478.35214738 -106.80511068 456.68841448 -105 435 C-105.9892749 434.61110596 -106.9785498 434.22221191 -107.99780273 433.8215332 C-121.84474597 428.35051169 -121.84474597 428.35051169 -128.0625 425.1875 C-128.71895508 424.85548584 -129.37541016 424.52347168 -130.05175781 424.18139648 C-143.83332123 417.06357363 -157.02259521 407.97859401 -168.28125 397.3125 C-169.91916815 395.85649757 -169.91916815 395.85649757 -172.03125 395.625 C-174.9869557 394.68668073 -175.52049865 392.64470449 -177 390 C-178.33155348 388.58288485 -179.710026 387.20882854 -181.125 385.875 C-186.19730045 380.90905424 -190.59798646 375.56005958 -195 370 C-195.92133523 368.85763737 -196.84323223 367.71572764 -197.765625 366.57421875 C-202.81780856 360.27842077 -207.48051438 354.00211912 -211.5625 347.01171875 C-212.91547642 344.70149499 -212.91547642 344.70149499 -216 344 C-216 342.68 -216 341.36 -216 340 C-217.67560758 335.65475404 -219.78397904 331.5029049 -221.8125 327.3125 C-222.35970703 326.14654297 -222.90691406 324.98058594 -223.47070312 323.77929688 C-224.00244141 322.67263672 -224.53417969 321.56597656 -225.08203125 320.42578125 C-225.56905518 319.40911377 -226.0560791 318.39244629 -226.55786133 317.3449707 C-227.84081855 314.69615046 -227.84081855 314.69615046 -231 314 C-232 311 -232 311 -231.375 308.875 C-230.80914947 304.53681258 -232.45038696 301.01848804 -234 297 C-234.66 297 -235.32 297 -236 297 C-235.979375 296.236875 -235.95875 295.47375 -235.9375 294.6875 C-235.87057159 291.89814214 -235.87057159 291.89814214 -237 289 C-238.86224544 278.65593905 -240.0309846 268.18458925 -241.32543945 257.75683594 C-241.58023375 255.70994891 -241.83872411 253.66355457 -242.09765625 251.6171875 C-242.24726807 250.41690918 -242.39687988 249.21663086 -242.55102539 247.97998047 C-242.91968917 244.95532964 -242.91968917 244.95532964 -244 242 C-244.06114395 239.89841912 -244.05832303 237.79477861 -244.02172852 235.69262695 C-244.00163223 234.39150467 -243.98153595 233.09038239 -243.96083069 231.74983215 C-243.93363419 230.32931304 -243.90632335 228.90879612 -243.87890625 227.48828125 C-243.85460066 226.03526045 -243.83075732 224.58223184 -243.80735779 223.12919617 C-243.74456043 219.30686552 -243.67548154 215.48467315 -243.60510254 211.66247559 C-243.53437978 207.76137585 -243.46958642 203.86017816 -243.40429688 199.95898438 C-243.2753406 192.30588123 -243.13974941 184.65291447 -243 177 C-242.34 177 -241.68 177 -241 177 C-241.03351563 175.86949219 -241.06703125 174.73898437 -241.1015625 173.57421875 C-241.09533769 168.84647569 -240.33743923 164.42980681 -239.375 159.8125 C-239.19678711 158.95027832 -239.01857422 158.08805664 -238.83496094 157.19970703 C-231.78278017 124.16423758 -217.69332594 97.44724906 -197 71 C-195.92298828 69.57107422 -195.92298828 69.57107422 -194.82421875 68.11328125 C-194.22222656 67.41589844 -193.62023437 66.71851563 -193 66 C-192.34 66 -191.68 66 -191 66 C-190.76152344 65.43667969 -190.52304688 64.87335938 -190.27734375 64.29296875 C-174.62737657 36.19960259 -129.5038018 17.20288859 -100.30053711 8.73120117 C-74.68437059 1.61450854 -48.69374163 0.26158689 -22.25 -0.6875 C-20.94740234 -0.73608154 -19.64480469 -0.78466309 -18.30273438 -0.8347168 C-12.03095171 -1.02752396 -6.20061082 -0.87672571 0 0 Z M-52 98 C-53.3343952 97.96723583 -54.66794801 97.89806584 -56 97.8125 C-80.28772124 97.60160806 -103.02718584 110.51147718 -120.125 126.8125 C-131.87901064 138.96775196 -140.0806588 153.92764859 -145 170 C-145.29648438 170.9384375 -145.59296875 171.876875 -145.8984375 172.84375 C-150.94569993 190.63410074 -150.39795178 209.69421831 -150 228 C-149.98066406 228.90234375 -149.96132812 229.8046875 -149.94140625 230.734375 C-149.14870881 261.13665311 -141.01972115 292.14139761 -120 315 C-119.47470703 315.57218262 -118.94941406 316.14436523 -118.40820312 316.73388672 C-111.98742014 323.6222951 -105.29571396 330.37257335 -97 335 C-96.34 335 -95.68 335 -95 335 C-93.80861469 331.42584408 -93.55283299 327.95869763 -93.24389648 324.23071289 C-93.17547546 323.44000397 -93.10705444 322.64929504 -93.03656006 321.83462524 C-92.81092056 319.21427975 -92.59078799 316.59350645 -92.37109375 313.97265625 C-92.21576001 312.1447958 -92.06024484 310.31695075 -91.90455627 308.48912048 C-91.57848316 304.65009872 -91.25523751 300.81085129 -90.93383789 296.97143555 C-90.52397837 292.07900286 -90.106267 287.18727826 -89.68624783 282.29570866 C-89.36267736 278.51504583 -89.04384729 274.73399395 -88.72633553 270.95281792 C-88.57439924 269.15118739 -88.42092196 267.34968606 -88.2658062 265.54832649 C-87.44713183 256.0137716 -86.74146302 246.58116901 -87 237 C-86.67 237 -86.34 237 -86 237 C-85.9498877 236.33991943 -85.89977539 235.67983887 -85.84814453 234.99975586 C-85.61452864 231.97837661 -85.36985507 228.95798835 -85.125 225.9375 C-85.04636719 224.89916016 -84.96773438 223.86082031 -84.88671875 222.79101562 C-83.76969901 209.25789184 -83.76969901 209.25789184 -80.1875 204.6875 C-74.9394976 200.639041 -69.91180758 200.69665226 -63.54394531 200.68115234 C-62.12611504 200.66608391 -62.12611504 200.66608391 -60.67964172 200.65071106 C-57.56247552 200.61987776 -54.44539527 200.60284226 -51.328125 200.5859375 C-49.16289533 200.56722453 -46.99767294 200.54765102 -44.8324585 200.5272522 C-39.1381663 200.47592253 -33.44385041 200.43630372 -27.74945068 200.39910889 C-21.9409803 200.35909239 -16.13260878 200.30797726 -10.32421875 200.2578125 C32.78310569 199.89194321 75.891386 200 119 200 C118.85845864 197.43719792 118.71191438 194.87484515 118.5625 192.3125 C118.52318359 191.59126953 118.48386719 190.87003906 118.44335938 190.12695312 C118.48011034 183.58571582 118.48011034 183.58571582 116 178 C115.86335938 176.97003906 115.72671875 175.94007813 115.5859375 174.87890625 C114.99579291 170.97214909 113.97907844 167.64275101 112.625 163.9375 C111.99464844 162.18759766 111.99464844 162.18759766 111.3515625 160.40234375 C110.06429396 157.16184983 108.60918675 154.09133243 107 151 C106.34 151.66 105.68 152.32 105 153 C104.92652344 151.98808594 104.85304688 150.97617187 104.77734375 149.93359375 C104.14599087 145.52965777 102.15369514 142.59447335 99.5625 139.0625 C98.95051758 138.17981445 98.95051758 138.17981445 98.32617188 137.27929688 C97.27834388 135.80755152 96.14518181 134.39733193 95 133 C94.34 133 93.68 133 93 133 C92.7525 132.4225 92.505 131.845 92.25 131.25 C90.81700012 128.67060021 89.21575324 126.93878408 87 125 C86.34 125 85.68 125 85 125 C85 124.34 85 123.68 85 123 C75.78806064 114.86784841 61.60627844 104 49 104 C48.67 103.34 48.34 102.68 48 102 C45.65914842 101.19228429 43.39551405 100.53637851 41 99.9375 C40.38382813 99.76412109 39.76765625 99.59074219 39.1328125 99.41210938 C23.01000377 95.31867253 5.03763362 96.84164028 -11.43505859 96.86962891 C-14.86364592 96.87541852 -18.29215653 96.87197398 -21.72074127 96.86605644 C-25.01174706 96.8615986 -28.30274323 96.86470406 -31.59375 96.8671875 C-32.82581177 96.86516327 -34.05787354 96.86313904 -35.32727051 96.86105347 C-36.45354858 96.86420563 -37.57982666 96.86735779 -38.74023438 96.87060547 C-40.23218323 96.87179886 -40.23218323 96.87179886 -41.75427246 96.87301636 C-43.97024207 96.74822213 -43.97024207 96.74822213 -45 98 C-45.804375 97.835 -46.60875 97.67 -47.4375 97.5 C-49.97658116 96.73402891 -49.97658116 96.73402891 -52 98 Z M-118 638 C-117.34 638.66 -116.68 639.32 -116 640 C-116 639.34 -116 638.68 -116 638 C-116.66 638 -117.32 638 -118 638 Z " fill="#7F593D" transform="translate(344,156)"/>
<path d="M0 0 C2.72289407 0.12325968 5.44395221 0.1796801 8.16894531 0.23925781 C36.42845749 0.91103702 69.57392191 4.34884866 95 18 C95.33 17.34 95.66 16.68 96 16 C96 16.99 96 17.98 96 19 C96.80824219 19.23976562 97.61648438 19.47953125 98.44921875 19.7265625 C128.84295952 30.62684797 156.20106054 55.21619771 175 81 C175.41991211 81.57556641 175.83982422 82.15113281 176.27246094 82.74414062 C199.86065254 115.55769053 211.6833738 154.58311557 212.49609375 194.83984375 C212.79329959 197.09344419 212.79329959 197.09344419 214.5625 198.3046875 C217.94882909 199.27065958 221.04605084 199.22531128 224.5625 199.1875 C225.23474609 199.18685547 225.90699219 199.18621094 226.59960938 199.18554688 C229.66413171 199.1581579 232.0727161 198.9757613 235 198 C235 198.66 235 199.32 235 200 C235.75088898 199.99111755 236.50177795 199.98223511 237.27542114 199.9730835 C244.36667919 199.89279271 251.45777865 199.83196239 258.54936409 199.79275131 C262.1948912 199.77191429 265.84004136 199.74366916 269.48535156 199.69824219 C273.00614987 199.65464357 276.52658661 199.63083369 280.04763412 199.62049103 C282.03847947 199.60954994 284.02918022 199.57834601 286.01980591 199.54681396 C297.19356901 199.54404871 297.19356901 199.54404871 302 204 C302.7425 204.680625 303.485 205.36125 304.25 206.0625 C308.58711358 213.34265493 308.41676182 223.25198627 309.03515625 231.546875 C309.11873886 232.60231506 309.20232147 233.65775513 309.28843689 234.74517822 C309.55173086 238.07973123 309.80756322 241.41479857 310.0625 244.75 C310.32220315 248.0993749 310.58353595 251.44860889 310.84727478 254.79766846 C311.01017705 256.87099177 311.17059804 258.94451203 311.32814026 261.01824951 C311.7197083 266.04904234 312.21348691 271.01514325 313 276 C314.32 275.67 315.64 275.34 317 275 C317 274.34 317 273.68 317 273 C317.66 273 318.32 273 319 273 C319.26669495 272.40766068 319.53338989 271.81532135 319.8081665 271.20503235 C321.0236511 268.95624267 322.25640003 267.50765391 324.06933594 265.71948242 C324.69048279 265.10171432 325.31162964 264.48394623 325.95159912 263.84745789 C326.62241516 263.19010147 327.2932312 262.53274506 327.984375 261.85546875 C328.6775885 261.16745682 329.370802 260.47944489 330.08502197 259.77058411 C332.3019837 257.57141773 334.52549652 255.3790354 336.75 253.1875 C338.95938657 251.00586348 341.16725286 248.82274372 343.37213135 246.6365509 C344.74281053 245.27798156 346.11615312 243.92209213 347.49261475 242.56938171 C351.06411648 239.03468467 354.44718503 235.42504258 357.65875244 231.55903625 C359.04643973 229.9460195 360.41160854 228.41794968 362 227 C362.66 227 363.32 227 364 227 C364.20625 226.443125 364.4125 225.88625 364.625 225.3125 C366.15171774 222.74483835 367.99548071 221.29854935 370.31494141 219.45996094 C372.12540735 217.89134513 373.60476524 216.22165563 375.1484375 214.390625 C379.19560093 209.70325348 383.53595095 205.35251722 387.9375 201 C388.71673828 200.22527344 389.49597656 199.45054687 390.29882812 198.65234375 C392.1969242 196.76589243 394.09733149 194.88183755 396 193 C394.68 192.34 393.36 191.68 392 191 C393.32 190.34 394.64 189.68 396 189 C395.41992188 187.87207031 394.83984375 186.74414062 394.2421875 185.58203125 C389.33942593 175.78912513 385.56269312 166.21815232 382.85302734 155.59301758 C382.63469238 154.74505615 382.41635742 153.89709473 382.19140625 153.0234375 C382.00779541 152.26981934 381.82418457 151.51620117 381.63500977 150.73974609 C381.14829977 148.78795434 381.14829977 148.78795434 379 148 C378.375 145.4375 378.375 145.4375 378 143 C378.66 143 379.32 143 380 143 C380 140.69 380 138.38 380 136 C379.01 135.67 378.02 135.34 377 135 C377.66 134.67 378.32 134.34 379 134 C378.85936865 131.70800823 378.71234057 129.41640814 378.5625 127.125 C378.48128906 125.84882813 378.40007813 124.57265625 378.31640625 123.2578125 C378.20793973 120.11699848 378.20793973 120.11699848 377 118 C377.33 117.34 377.66 116.68 378 116 C378.21195701 114.19941472 378.4188677 112.39802194 378.59423828 110.59350586 C380.68040326 89.38882892 386.63076151 68.76681884 403.13671875 54.1015625 C412.23018293 47 412.23018293 47 417 47 C417.33 46.01 417.66 45.02 418 44 C418 44.66 418 45.32 418 46 C418.969375 45.82082031 419.93875 45.64164063 420.9375 45.45703125 C430.08499853 43.94472462 437.64626114 44.1757236 446.671875 46.2734375 C450.08357483 47.14219099 450.08357483 47.14219099 454 47 C454 47.66 454 48.32 454 49 C455.15628906 49.30744141 455.15628906 49.30744141 456.3359375 49.62109375 C457.33882812 49.89050781 458.34171875 50.15992188 459.375 50.4375 C460.37273438 50.70433594 461.37046875 50.97117188 462.3984375 51.24609375 C474.61590741 54.78659179 486.6399814 63.83483743 497 71 C498.60299948 72.04346193 500.20708816 73.08525341 501.8125 74.125 C507.05011705 77.63541713 511.59990707 81.70015103 516.21875 85.9765625 C516.79850586 86.5132959 517.37826172 87.0500293 517.97558594 87.60302734 C519.1428962 88.68649942 520.30768717 89.77269317 521.46972656 90.86181641 C523.89862179 93.12651889 526.23026899 95.15351266 529 97 C529 97.66 529 98.32 529 99 C529.99 99.33 530.98 99.66 532 100 C532 100.66 532 101.32 532 102 C532.99 102.33 533.98 102.66 535 103 C536.47265625 104.42578125 536.47265625 104.42578125 538.0625 106.3125 C538.96742188 107.37791016 538.96742188 107.37791016 539.890625 108.46484375 C540.58671875 109.30144531 541.2828125 110.13804687 542 111 C542.86976996 112.04298685 543.73956282 113.0859546 544.609375 114.12890625 C545.95035378 115.73754932 547.28969544 117.34738733 548.62329102 118.9621582 C550.35451812 121.05469674 552.07824135 123.07824135 554 125 C554.93946321 126.3384521 555.85296714 127.69524831 556.75 129.0625 C557.2759375 129.8565625 557.801875 130.650625 558.34375 131.46875 C559.45747927 133.17086454 560.56151667 134.8793563 561.65625 136.59375 C562.1821875 137.4084375 562.708125 138.223125 563.25 139.0625 C563.72953125 139.81660156 564.2090625 140.57070313 564.703125 141.34765625 C565.13109375 141.89292969 565.5590625 142.43820312 566 143 C566.66 143 567.32 143 568 143 C568.185625 144.175625 568.185625 144.175625 568.375 145.375 C568.79117993 148.14057822 568.79117993 148.14057822 571 150 C572.30295424 152.3799457 573.54541024 154.75840991 574.75 157.1875 C575.28016724 158.25629395 575.28016724 158.25629395 575.82104492 159.34667969 C584.36996747 176.83442822 592.26359874 195.53372741 586.125 215.125 C579.12515836 232.52629171 564.81938269 243.79999113 548.00341797 251.17919922 C542.79859382 253.31161681 537.47696052 254.76263674 532 256 C531.02933594 256.22429687 530.05867187 256.44859375 529.05859375 256.6796875 C504.01476192 261.65438063 478.43323707 255.17820546 456 244 C455.72470459 244.73702148 455.44940918 245.47404297 455.16577148 246.23339844 C454.08170048 248.80610894 452.88103366 250.94147094 451.34765625 253.265625 C450.56285889 254.46312378 450.56285889 254.46312378 449.76220703 255.68481445 C449.20130371 256.53132568 448.64040039 257.37783691 448.0625 258.25 C446.87349266 260.06106318 445.68469365 261.87226314 444.49609375 263.68359375 C443.90296387 264.5844873 443.30983398 265.48538086 442.69873047 266.41357422 C440.32099584 270.03382725 437.97207908 273.67233161 435.625 277.3125 C430.57332354 285.13256675 425.48523031 292.92877345 420.38916016 300.7199707 C416.76441687 306.26849592 413.18143989 311.84137157 409.62988281 317.43701172 C407.35616335 321.01243217 405.05562073 324.57009942 402.75 328.125 C401.79425194 329.60024818 400.83852332 331.07550895 399.8828125 332.55078125 C399.40360352 333.29021973 398.92439453 334.0296582 398.43066406 334.79150391 C396.60877051 337.60393549 394.78949332 340.41805414 392.97021484 343.23217773 C390.64853308 346.82256799 388.3244636 350.41141031 386 354 C385.30197266 355.07797852 385.30197266 355.07797852 384.58984375 356.17773438 C376.76739641 368.25243851 368.8800673 380.2840187 360.98150635 392.30899048 C352.81012206 404.69476925 352.81012206 404.69476925 344.78369141 417.17431641 C342.45180064 420.84924024 340.00147346 424.38793198 337.421875 427.89453125 C336.81214844 428.75336914 336.20242188 429.61220703 335.57421875 430.49707031 C334.40674147 432.13891337 333.20851943 433.75958185 331.97265625 435.35058594 C328.603402 440.17400379 327.70216026 443.68071747 328.18676758 449.54589844 C328.23992661 450.22465688 328.29308565 450.90341532 328.34785557 451.6027422 C328.54809991 454.07024571 328.77308193 456.53480804 329 459 C329.08748631 459.98491362 329.17497261 460.96982723 329.26511002 461.98458672 C329.96487819 469.85133052 330.7072662 477.71377738 331.45867991 485.57573485 C331.78791319 489.02633226 332.11418735 492.4772096 332.44081116 495.92805481 C333.0596673 502.4617373 333.68111333 508.99517066 334.30352646 515.52851516 C335.00470876 522.89003238 335.70295578 530.25182704 336.40096271 537.61364591 C337.37692059 547.90634046 338.35389672 558.19893763 339.33327579 568.49130726 C339.5658048 570.93520822 339.79815777 573.37912594 340.03031826 575.82306194 C340.55170892 581.30850453 341.07594127 586.79363098 341.6086731 592.27798462 C341.70209016 593.24430722 341.79550722 594.21062983 341.8917551 595.20623493 C342.06280015 596.97376724 342.2350523 598.7411834 342.40883541 600.5084486 C344.92144384 626.53504927 338.30633559 651.57426096 321.59375 671.96875 C304.07446827 692.4430913 280.46199417 705.1272919 253.58087039 707.80962324 C244.00112339 708.51626903 234.34030582 708.26180261 224.74154866 708.23213124 C221.19372238 708.22340484 217.64590224 708.22642333 214.09806824 708.22793579 C207.96777142 708.22897889 201.83751754 708.22276283 195.70723152 708.21146011 C186.84413305 708.19512951 177.9810551 708.18998942 169.11794322 708.18748413 C154.73429742 708.18311882 140.35067444 708.16984148 125.96704102 708.15087891 C112.00382602 708.13248986 98.04061725 708.1183482 84.07739258 708.10986328 C83.21510471 708.10933783 82.35281685 708.10881239 81.46439905 708.10827102 C77.13807794 708.10566073 72.81175679 708.10313337 68.48543561 708.10064721 C32.65694081 708.079951 -3.17152748 708.04475739 -39 708 C-39 707.34 -39 706.68 -39 706 C-39.66 706.226875 -40.32 706.45375 -41 706.6875 C-45.12428413 707.11711293 -48.23792632 705.4952366 -52 704 C-53.40233897 703.47307129 -54.80597778 702.9495881 -56.2109375 702.4296875 C-57.59895833 701.91145833 -58.98697917 701.39322917 -60.375 700.875 C-61.08527344 700.61074219 -61.79554688 700.34648438 -62.52734375 700.07421875 C-65.78481969 698.8565285 -68.89309736 697.55345132 -72 696 C-72 695.34 -72 694.68 -72 694 C-72.70511719 693.7525 -73.41023437 693.505 -74.13671875 693.25 C-77.36887443 691.83896341 -79.96328902 690.0749274 -82.8125 688 C-83.78832031 687.29875 -84.76414062 686.5975 -85.76953125 685.875 C-86.50558594 685.25625 -87.24164063 684.6375 -88 684 C-88 683.34 -88 682.68 -88 682 C-88.57105469 681.76152344 -89.14210937 681.52304687 -89.73046875 681.27734375 C-97.93850211 676.65767609 -103.3419907 666.8781765 -108 659 C-108.66 659.33 -109.32 659.66 -110 660 C-111.81027062 654.70843973 -113.41078475 649.36095277 -115 644 C-115.66 644 -116.32 644 -117 644 C-117.66 641.69 -118.32 639.38 -119 637 C-118.34 637 -117.68 637 -117 637 C-117.4640625 635.63875 -117.4640625 635.63875 -117.9375 634.25 C-119.21854679 630.33150393 -120.12659323 627.00346007 -120.11352539 622.87402344 C-120.11341209 621.67323151 -120.11341209 621.67323151 -120.11329651 620.44818115 C-120.10555458 619.16672211 -120.10555458 619.16672211 -120.09765625 617.859375 C-120.0962413 616.97719299 -120.09482635 616.09501099 -120.09336853 615.18609619 C-120.08778001 612.37402935 -120.07522961 609.5620427 -120.0625 606.75 C-120.05748352 604.84114698 -120.05292087 602.93229272 -120.04882812 601.0234375 C-120.03781434 596.34892753 -120.02055758 591.67447735 -120 587 C-119.67 587 -119.34 587 -119 587 C-118.66068773 584.33397504 -118.32842824 581.66736986 -118 579 C-117.90460938 578.25621094 -117.80921875 577.51242187 -117.7109375 576.74609375 C-117.10730411 571.78767664 -116.91388097 566.99490347 -117 562 C-117 561.01 -117 560.02 -117 559 C-116.34 559.33 -115.68 559.66 -115 560 C-115.02610352 558.98450073 -115.02610352 558.98450073 -115.05273438 557.94848633 C-115.18632875 548.40841668 -114.25881512 539.04393247 -113.28173828 529.5715332 C-112.2703489 519.66748553 -111.80507256 509.9602506 -112 500 C-111.67 500 -111.34 500 -111 500 C-108.75708534 478.35214738 -106.80511068 456.68841448 -105 435 C-105.9892749 434.61110596 -106.9785498 434.22221191 -107.99780273 433.8215332 C-121.84474597 428.35051169 -121.84474597 428.35051169 -128.0625 425.1875 C-128.71895508 424.85548584 -129.37541016 424.52347168 -130.05175781 424.18139648 C-143.83332123 417.06357363 -157.02259521 407.97859401 -168.28125 397.3125 C-169.91916815 395.85649757 -169.91916815 395.85649757 -172.03125 395.625 C-174.9869557 394.68668073 -175.52049865 392.64470449 -177 390 C-178.33155348 388.58288485 -179.710026 387.20882854 -181.125 385.875 C-186.19730045 380.90905424 -190.59798646 375.56005958 -195 370 C-195.92133523 368.85763737 -196.84323223 367.71572764 -197.765625 366.57421875 C-202.81780856 360.27842077 -207.48051438 354.00211912 -211.5625 347.01171875 C-212.91547642 344.70149499 -212.91547642 344.70149499 -216 344 C-216 342.68 -216 341.36 -216 340 C-217.67560758 335.65475404 -219.78397904 331.5029049 -221.8125 327.3125 C-222.35970703 326.14654297 -222.90691406 324.98058594 -223.47070312 323.77929688 C-224.00244141 322.67263672 -224.53417969 321.56597656 -225.08203125 320.42578125 C-225.56905518 319.40911377 -226.0560791 318.39244629 -226.55786133 317.3449707 C-227.84081855 314.69615046 -227.84081855 314.69615046 -231 314 C-232 311 -232 311 -231.375 308.875 C-230.80914947 304.53681258 -232.45038696 301.01848804 -234 297 C-234.66 297 -235.32 297 -236 297 C-235.979375 296.236875 -235.95875 295.47375 -235.9375 294.6875 C-235.87057159 291.89814214 -235.87057159 291.89814214 -237 289 C-238.86224544 278.65593905 -240.0309846 268.18458925 -241.32543945 257.75683594 C-241.58023375 255.70994891 -241.83872411 253.66355457 -242.09765625 251.6171875 C-242.24726807 250.41690918 -242.39687988 249.21663086 -242.55102539 247.97998047 C-242.91968917 244.95532964 -242.91968917 244.95532964 -244 242 C-244.06114395 239.89841912 -244.05832303 237.79477861 -244.02172852 235.69262695 C-244.00163223 234.39150467 -243.98153595 233.09038239 -243.96083069 231.74983215 C-243.93363419 230.32931304 -243.90632335 228.90879612 -243.87890625 227.48828125 C-243.85460066 226.03526045 -243.83075732 224.58223184 -243.80735779 223.12919617 C-243.74456043 219.30686552 -243.67548154 215.48467315 -243.60510254 211.66247559 C-243.53437978 207.76137585 -243.46958642 203.86017816 -243.40429688 199.95898438 C-243.2753406 192.30588123 -243.13974941 184.65291447 -243 177 C-242.34 177 -241.68 177 -241 177 C-241.03351563 175.86949219 -241.06703125 174.73898437 -241.1015625 173.57421875 C-241.09533769 168.84647569 -240.33743923 164.42980681 -239.375 159.8125 C-239.19678711 158.95027832 -239.01857422 158.08805664 -238.83496094 157.19970703 C-231.78278017 124.16423758 -217.69332594 97.44724906 -197 71 C-195.92298828 69.57107422 -195.92298828 69.57107422 -194.82421875 68.11328125 C-194.22222656 67.41589844 -193.62023437 66.71851563 -193 66 C-192.34 66 -191.68 66 -191 66 C-190.76152344 65.43667969 -190.52304688 64.87335938 -190.27734375 64.29296875 C-174.62737657 36.19960259 -129.5038018 17.20288859 -100.30053711 8.73120117 C-74.68437059 1.61450854 -48.69374163 0.26158689 -22.25 -0.6875 C-20.94740234 -0.73608154 -19.64480469 -0.78466309 -18.30273438 -0.8347168 C-12.03095171 -1.02752396 -6.20061082 -0.87672571 0 0 Z M-52 98 C-53.3343952 97.96723583 -54.66794801 97.89806584 -56 97.8125 C-80.28772124 97.60160806 -103.02718584 110.51147718 -120.125 126.8125 C-131.87901064 138.96775196 -140.0806588 153.92764859 -145 170 C-145.29648438 170.9384375 -145.59296875 171.876875 -145.8984375 172.84375 C-150.94569993 190.63410074 -150.39795178 209.69421831 -150 228 C-149.98066406 228.90234375 -149.96132812 229.8046875 -149.94140625 230.734375 C-149.14870881 261.13665311 -141.01972115 292.14139761 -120 315 C-119.47470703 315.57218262 -118.94941406 316.14436523 -118.40820312 316.73388672 C-111.98742014 323.6222951 -105.29571396 330.37257335 -97 335 C-96.34 335 -95.68 335 -95 335 C-93.80861469 331.42584408 -93.55283299 327.95869763 -93.24389648 324.23071289 C-93.17547546 323.44000397 -93.10705444 322.64929504 -93.03656006 321.83462524 C-92.81092056 319.21427975 -92.59078799 316.59350645 -92.37109375 313.97265625 C-92.21576001 312.1447958 -92.06024484 310.31695075 -91.90455627 308.48912048 C-91.57848316 304.65009872 -91.25523751 300.81085129 -90.93383789 296.97143555 C-90.52397837 292.07900286 -90.106267 287.18727826 -89.68624783 282.29570866 C-89.36267736 278.51504583 -89.04384729 274.73399395 -88.72633553 270.95281792 C-88.57439924 269.15118739 -88.42092196 267.34968606 -88.2658062 265.54832649 C-87.44713183 256.0137716 -86.74146302 246.58116901 -87 237 C-86.67 237 -86.34 237 -86 237 C-85.9498877 236.33991943 -85.89977539 235.67983887 -85.84814453 234.99975586 C-85.61452864 231.97837661 -85.36985507 228.95798835 -85.125 225.9375 C-85.04636719 224.89916016 -84.96773438 223.86082031 -84.88671875 222.79101562 C-83.76969901 209.25789184 -83.76969901 209.25789184 -80.1875 204.6875 C-74.9394976 200.639041 -69.91180758 200.69665226 -63.54394531 200.68115234 C-62.12611504 200.66608391 -62.12611504 200.66608391 -60.67964172 200.65071106 C-57.56247552 200.61987776 -54.44539527 200.60284226 -51.328125 200.5859375 C-49.16289533 200.56722453 -46.99767294 200.54765102 -44.8324585 200.5272522 C-39.1381663 200.47592253 -33.44385041 200.43630372 -27.74945068 200.39910889 C-21.9409803 200.35909239 -16.13260878 200.30797726 -10.32421875 200.2578125 C32.78310569 199.89194321 75.891386 200 119 200 C118.85845864 197.43719792 118.71191438 194.87484515 118.5625 192.3125 C118.52318359 191.59126953 118.48386719 190.87003906 118.44335938 190.12695312 C118.48011034 183.58571582 118.48011034 183.58571582 116 178 C115.86335938 176.97003906 115.72671875 175.94007813 115.5859375 174.87890625 C114.99579291 170.97214909 113.97907844 167.64275101 112.625 163.9375 C111.99464844 162.18759766 111.99464844 162.18759766 111.3515625 160.40234375 C110.06429396 157.16184983 108.60918675 154.09133243 107 151 C106.34 151.66 105.68 152.32 105 153 C104.92652344 151.98808594 104.85304688 150.97617187 104.77734375 149.93359375 C104.14599087 145.52965777 102.15369514 142.59447335 99.5625 139.0625 C98.95051758 138.17981445 98.95051758 138.17981445 98.32617188 137.27929688 C97.27834388 135.80755152 96.14518181 134.39733193 95 133 C94.34 133 93.68 133 93 133 C92.7525 132.4225 92.505 131.845 92.25 131.25 C90.81700012 128.67060021 89.21575324 126.93878408 87 125 C86.34 125 85.68 125 85 125 C85 124.34 85 123.68 85 123 C75.78806064 114.86784841 61.60627844 104 49 104 C48.67 103.34 48.34 102.68 48 102 C45.65914842 101.19228429 43.39551405 100.53637851 41 99.9375 C40.38382813 99.76412109 39.76765625 99.59074219 39.1328125 99.41210938 C23.01000377 95.31867253 5.03763362 96.84164028 -11.43505859 96.86962891 C-14.86364592 96.87541852 -18.29215653 96.87197398 -21.72074127 96.86605644 C-25.01174706 96.8615986 -28.30274323 96.86470406 -31.59375 96.8671875 C-32.82581177 96.86516327 -34.05787354 96.86313904 -35.32727051 96.86105347 C-36.45354858 96.86420563 -37.57982666 96.86735779 -38.74023438 96.87060547 C-40.23218323 96.87179886 -40.23218323 96.87179886 -41.75427246 96.87301636 C-43.97024207 96.74822213 -43.97024207 96.74822213 -45 98 C-45.804375 97.835 -46.60875 97.67 -47.4375 97.5 C-49.97658116 96.73402891 -49.97658116 96.73402891 -52 98 Z M-60 227 C-62.31 253.07 -64.62 279.14 -67 306 C-69.6875 334.625 -69.6875 334.625 -70.76171875 345.7890625 C-71.89461129 357.64780331 -72.94138218 369.51403932 -73.99156952 381.38031769 C-75.661193 400.24228364 -77.35615991 419.10191111 -79.05859375 437.9609375 C-79.12647307 438.71295205 -79.19435239 439.46496659 -79.26428866 440.23976946 C-80.10756669 449.58203269 -80.95135343 458.92424992 -81.79536718 468.26644671 C-82.36396775 474.56039847 -82.93224082 480.85437977 -83.50036752 487.14837432 C-83.85224785 491.04661124 -84.20421007 494.94484073 -84.5563755 498.84305191 C-84.69632832 500.39229562 -84.83627876 501.94153955 -84.97622681 503.49078369 C-85.07973762 504.63665809 -85.07973762 504.63665809 -85.18533957 505.80568147 C-85.59908922 510.38721542 -86.01192493 514.96883067 -86.42404377 519.5505116 C-86.75998057 523.28468858 -87.0963924 527.01882263 -87.43310547 530.75292969 C-87.49871382 531.48053607 -87.56432218 532.20814246 -87.63191867 532.95779753 C-88.45358525 542.06096653 -89.29193277 551.1623805 -90.15243816 560.26196098 C-90.63065678 565.32162059 -91.10381877 570.38174862 -91.5769825 575.44188309 C-91.89767866 578.84418623 -92.22678317 582.24560216 -92.55625916 585.64706421 C-94.94920583 610.90159986 -95.2936317 633.62519053 -79.625 654.9375 C-78.44951122 656.32027364 -77.23999045 657.67476021 -76 659 C-75.319375 659.73347656 -74.63875 660.46695312 -73.9375 661.22265625 C-69.08406748 666.00230348 -63.81008477 669.54881329 -57.875 672.8125 C-57.23771973 673.1734375 -56.60043945 673.534375 -55.94384766 673.90625 C-40.42602549 682.0018508 -23.88178262 681.58862779 -6.84536874 681.52289867 C-3.32859897 681.51374822 0.18809515 681.5278667 3.70484924 681.53881836 C10.5725188 681.55650234 17.44001241 681.55280932 24.30768854 681.5411678 C29.89405359 681.53209429 35.48036971 681.5309263 41.06674004 681.53526306 C41.86509611 681.53587599 42.66345219 681.53648893 43.48600088 681.53712043 C45.10838038 681.53839947 46.73075986 681.53969633 48.35313933 681.5410108 C63.52653001 681.55238674 78.69982363 681.53934957 93.87319838 681.51780933 C106.8641632 681.49993761 119.85498502 681.50304885 132.84594727 681.52148438 C147.97060239 681.5429381 163.09517273 681.55129199 178.21984094 681.53903532 C179.83558586 681.53776126 181.45133079 681.53650378 183.06707573 681.53526306 C184.25921797 681.53433741 184.25921797 681.53433741 185.47544389 681.53339306 C191.04907538 681.52995389 196.62265263 681.53573733 202.19627571 681.54518127 C208.99722889 681.55645271 215.79799763 681.55325384 222.59892995 681.5320583 C226.06218322 681.521617 229.52513011 681.51730603 232.98838043 681.53065491 C256.4722119 681.59931801 276.70435074 679.3455316 295 663 C295.68578125 662.39542969 296.3715625 661.79085938 297.078125 661.16796875 C308.3387898 650.61646795 316.6283251 634.50735903 317.29418945 618.90283203 C317.31176855 617.39625981 317.31291419 615.88943843 317.30078125 614.3828125 C317.29597244 613.52607941 317.29116364 612.66934631 317.28620911 611.78665161 C317.09731641 600.23473187 315.81800766 588.75700341 314.63769531 577.27334595 C313.90861129 570.17650287 313.21485873 563.07614242 312.51924515 555.97595406 C312.34608233 554.20866551 312.17261276 552.441407 311.99885178 550.67417717 C309.46704551 524.90161622 307.17230986 499.10715301 304.8589859 473.31424713 C304.49888283 469.29936842 304.1382554 465.28453691 303.77752686 461.26971436 C302.49404449 446.98378716 301.21281235 432.69765915 299.93311691 418.41139221 C299.03946748 408.43648888 298.14301955 398.46183912 297.24517822 388.48731232 C294.20143572 354.67260514 291.17934432 320.85596449 288.16830444 287.03833008 C287.81006333 283.0148658 287.4515122 278.99142935 287.09268188 274.96801758 C286.67306419 270.26250732 286.25425324 265.55692592 285.83605003 260.85128975 C285.68241771 259.12393422 285.52852834 257.39660154 285.37435341 255.66929436 C285.1611038 253.27951311 284.94884703 250.88964552 284.73681641 248.49975586 C284.67658452 247.82726303 284.61635263 247.1547702 284.55429554 246.4618988 C283.980965 239.97773823 283.49937929 233.49193073 283 227 C169.81 227 56.62 227 -60 227 Z M-118 638 C-117.34 638.66 -116.68 639.32 -116 640 C-116 639.34 -116 638.68 -116 638 C-116.66 638 -117.32 638 -118 638 Z " fill="#010101" transform="translate(344,156)"/>
<path d="M0 0 C4.28021816 4.17046898 5.60924196 7.92425294 5.8359375 13.8203125 C5.84899091 16.04685044 5.83957502 18.27358842 5.8125 20.5 C5.80307373 21.71703613 5.79364746 22.93407227 5.78393555 24.18798828 C5.23387248 59.10713154 0.43540123 93.62553356 -8.5625 127.375 C-8.79018066 128.23706055 -9.01786133 129.09912109 -9.25244141 129.98730469 C-18.38058924 163.94480896 -33.51594219 194.57670619 -57.5625 220.375 C-58.29984375 221.1896875 -59.0371875 222.004375 -59.796875 222.84375 C-80.93718726 245.26099388 -111.38664929 257.33477605 -141.828125 258.5 C-163.63690201 258.89118883 -186.21903044 253.60397971 -204.5625 241.375 C-210.42857081 249.70689703 -215.71989342 258.21823206 -220.5625 267.1875 C-221.06434814 268.1168335 -221.56619629 269.04616699 -222.08325195 270.00366211 C-224.06313732 273.68606377 -226.03279457 277.37365893 -227.98779297 281.06933594 C-229.31452358 283.57293702 -230.65624225 286.06800907 -232 288.5625 C-232.38865234 289.31055908 -232.77730469 290.05861816 -233.17773438 290.8293457 C-235.39225567 294.9194212 -237.10694493 297.49376564 -241.5625 299.375 C-246.49164139 299.92268238 -248.55174749 299.91781153 -252.9375 297.5625 C-255.59808487 295.34534594 -257.33557286 293.74298824 -257.91601562 290.24389648 C-258.06695492 283.27343616 -256.33400538 278.52268245 -253.0625 272.4375 C-252.34392822 271.05195923 -252.34392822 271.05195923 -251.61083984 269.63842773 C-236.51382811 241.01000275 -236.51382811 241.01000275 -227.5234375 229.33984375 C-225.30023689 226.68202055 -225.30023689 226.68202055 -225.82397461 224.37475586 C-226.96745025 221.27848844 -228.89736286 218.70550397 -230.75 216 C-245.6030654 193.50652956 -249.5527797 166.62616154 -245.37109375 140.23828125 C-241.1906108 120.2648627 -233.5800022 103.18345467 -220.5625 87.375 C-220.10472168 86.81184082 -219.64694336 86.24868164 -219.17529297 85.66845703 C-203.62924407 66.61921959 -184.76484236 52.58426698 -163.5625 40.375 C-162.89734375 39.98747559 -162.2321875 39.59995117 -161.546875 39.20068359 C-127.65940974 19.65608801 -39.00935791 -17.7937422 0 0 Z " fill="#000000" transform="translate(581.5625,444.625)"/>
<path d="M0 0 C1.64173408 -0.00322335 3.28346789 -0.00658818 4.92520142 -0.01008606 C8.35948347 -0.01604869 11.79374048 -0.01792916 15.22802734 -0.01733398 C18.70920036 -0.01725305 22.19024089 -0.02414683 25.67138672 -0.0378418 C62.70539577 -0.18146257 62.70539577 -0.18146257 79.1015625 2.16796875 C79.78766098 2.26359604 80.47375946 2.35922333 81.1806488 2.45774841 C122.82082473 8.32901661 163.29611767 32.49919457 188.90234375 65.765625 C213.03840284 98.06308221 223.1015625 133.23830366 223.1015625 173.16796875 C209.2415625 173.16796875 195.3815625 173.16796875 181.1015625 173.16796875 C181.0190625 170.05359375 180.9365625 166.93921875 180.8515625 163.73046875 C179.43682911 129.82683 163.65130639 98.52048214 138.82666016 75.67724609 C133.91490852 71.37998475 128.57575399 67.70518797 123.1015625 64.16796875 C121.60496094 63.19730469 121.60496094 63.19730469 120.078125 62.20703125 C109.6959057 55.83296096 98.57901971 51.71871961 86.9140625 48.41796875 C86.21458496 48.21929199 85.51510742 48.02061523 84.79443359 47.81591797 C72.02698204 44.36932626 59.70168049 43.85578325 46.56640625 43.8671875 C44.67851164 43.86328911 42.79061788 43.85895214 40.90272522 43.85420227 C36.95831453 43.84677653 33.01399337 43.8470034 29.06958008 43.85229492 C24.06973742 43.85806537 19.07026814 43.84119934 14.07048702 43.81795025 C10.17257117 43.80305279 6.27474174 43.80236301 2.37680244 43.80545998 C0.53642606 43.80495412 -1.30395615 43.79985859 -3.14430428 43.78964806 C-41.43994313 43.60330997 -74.72097226 55.68085337 -102.3203125 82.5234375 C-129.28382285 111.06460005 -137.48435563 146.27817817 -137.23461914 184.42724609 C-137.2109382 188.2928548 -137.21409139 192.15777404 -137.22070312 196.0234375 C-137.20303894 212.30503933 -136.54885976 227.85695127 -132.6484375 243.73046875 C-132.43155273 244.61831055 -132.21466797 245.50615234 -131.99121094 246.42089844 C-125.95537588 270.19504818 -113.66989559 290.4497348 -96.8984375 308.16796875 C-95.57585937 309.60462891 -95.57585937 309.60462891 -94.2265625 311.0703125 C-84.27640417 321.63744217 -72.61738803 329.29251358 -59.8984375 336.16796875 C-60.30397969 341.47015627 -60.71302012 346.77205824 -61.12524414 352.07373047 C-61.26486835 353.87574027 -61.40355177 355.67782322 -61.54125977 357.47998047 C-61.73984913 360.07669766 -61.9418679 362.67312923 -62.14453125 365.26953125 C-62.2049913 366.06976715 -62.26545135 366.87000305 -62.32774353 367.69448853 C-62.65956181 371.90030539 -63.12860627 376.01378513 -63.8984375 380.16796875 C-70.35067558 378.22999706 -76.2118342 375.71643558 -82.1484375 372.54296875 C-82.97400146 372.1042041 -83.79956543 371.66543945 -84.65014648 371.21337891 C-103.05348172 361.25721214 -120.65600264 347.46877547 -133.8984375 331.16796875 C-134.54296875 330.38808594 -135.1875 329.60820313 -135.8515625 328.8046875 C-164.41044248 293.76010767 -179.18845798 251.64646312 -179.234375 206.53125 C-179.24083765 204.993992 -179.24756824 203.45673511 -179.25454712 201.91947937 C-179.26639353 198.72371581 -179.27024116 195.52805929 -179.26904297 192.33227539 C-179.26888064 189.10646086 -179.2827575 185.88121555 -179.31005859 182.65551758 C-179.71670436 133.85116296 -168.24080251 90.34336423 -133.8984375 54.16796875 C-133.4348584 53.67184082 -132.9712793 53.17571289 -132.49365234 52.66455078 C-97.98081725 15.91194468 -49.57437589 0.02310646 0 0 Z " fill="#56854D" transform="translate(306.8984375,183.83203125)"/>
<path d="M0 0 C1.21263547 33.14536961 -4.52033937 67.05236418 -13 99 C-13.34369629 100.31774414 -13.34369629 100.31774414 -13.69433594 101.66210938 C-21.49052251 131.1043118 -35.09819289 157.77726085 -56 180 C-56.82371094 180.92039062 -56.82371094 180.92039062 -57.6640625 181.859375 C-73.94883497 199.34745578 -98.60338239 208.45600835 -122.05273438 209.33618164 C-138.10864151 209.62814061 -155.33541778 205.58703254 -169 197 C-167.38387587 193.07646165 -164.68669953 190.28601774 -161.8125 187.25 C-160.80789698 186.17252422 -159.80398947 185.09439955 -158.80078125 184.015625 C-158.31561035 183.49548828 -157.83043945 182.97535156 -157.33056641 182.43945312 C-155.68338165 180.65747123 -154.08585594 178.8366604 -152.5 177 C-149.13542128 173.12027047 -145.66411092 169.34142491 -142.1875 165.5625 C-139.27210044 162.39220211 -136.37616922 159.20605243 -133.5 156 C-129.72255656 151.79084874 -125.90648664 147.61822769 -122.0793457 143.4543457 C-119.26037977 140.38432558 -116.46512056 137.29493079 -113.6875 134.1875 C-108.16010425 128.03064993 -102.49487513 122.00319868 -96.83935547 115.96435547 C-93.84860667 112.7703596 -90.86143139 109.57303239 -87.875 106.375 C-87.0092334 105.44844604 -87.0092334 105.44844604 -86.12597656 104.50317383 C-82.25191124 100.35324796 -78.40343496 96.18057235 -74.5625 92 C-70.9882896 88.11040105 -67.34921152 84.31239405 -63.58203125 80.609375 C-60.56777268 77.54301814 -57.78729568 74.27175421 -55 71 C-54.49984375 70.41605469 -53.9996875 69.83210937 -53.484375 69.23046875 C-49.59930121 64.64206263 -48.64248062 62.18775697 -48.71875 56.2578125 C-49.14334606 52.8492497 -50.47295918 51.25384722 -53 49 C-56.53929796 46.83709569 -59.79207361 46.61088972 -63.890625 47.2734375 C-70.37272557 49.50616103 -74.98756575 55.96379635 -79.28515625 61.03125 C-80.95170356 62.94455261 -82.68827191 64.72458717 -84.5 66.5 C-86.93389732 68.89053167 -89.21355559 71.35046262 -91.4375 73.9375 C-93.85617779 76.74576347 -96.35899683 79.39970593 -99 82 C-101.47963329 84.44663437 -103.85440376 86.92107774 -106.125 89.5625 C-109.6001384 93.60354396 -113.22997941 97.48797237 -116.875 101.375 C-121.55075606 106.36349315 -126.17710955 111.3869892 -130.734375 116.484375 C-133.42379323 119.47055662 -136.14638427 122.42466529 -138.875 125.375 C-139.633573 126.195448 -139.633573 126.195448 -140.4074707 127.0324707 C-141.43064092 128.13901879 -142.45383431 129.24554546 -143.47705078 130.35205078 C-149.43585289 136.799937 -155.38686997 143.24726841 -161.1328125 149.88671875 C-163.03944843 152.0446477 -164.98915912 154.15936373 -166.9465332 156.27124023 C-171.81254889 161.52148071 -176.42571536 166.87669107 -180.83203125 172.52734375 C-183.34595478 175.39457545 -186.02105061 177.62448971 -189 180 C-200.28279267 159.71632778 -203.99271291 136.71515114 -198.5 113.8125 C-197.74144177 111.51560691 -196.90452507 109.24342659 -196 107 C-195.73155273 106.33000977 -195.46310547 105.66001953 -195.18652344 104.96972656 C-186.86150503 84.6780704 -173.33495231 68.31207308 -156 55 C-155.13503906 54.29617188 -154.27007812 53.59234375 -153.37890625 52.8671875 C-120.62259762 26.94091769 -78.189905 13.78817902 -37.9375 5.1875 C-37.25252441 5.04020447 -36.56754883 4.89290894 -35.86181641 4.7411499 C-24.0503153 2.22122567 -12.12109989 -0.19785218 0 0 Z " fill="#56854D" transform="translate(561,469)"/>
<path d="M0 0 C27.1061223 7.6335364 50.46874242 26.90796291 70.4375 46.0625 C71.26121094 46.84496094 72.08492187 47.62742187 72.93359375 48.43359375 C78.59135576 53.93446808 83.55605629 59.86999287 88.4375 66.0625 C89.241875 67.06152344 90.04625 68.06054688 90.875 69.08984375 C104.83057249 86.60889053 120.72057781 109.38873643 120.96875 132.46875 C120.28120063 135.82560869 119.15150633 137.01517466 116.4375 139.0625 C106.58578983 141.73758984 95.3641102 135.89605434 86.97363281 131.10229492 C68.88111179 120.31416333 52.07533445 107.27605649 36.58984375 93.02734375 C34.6009496 91.2117108 32.56262882 89.48061614 30.5 87.75 C25.02075092 82.96390894 20.24525806 77.50587123 15.4375 72.0625 C14.76630127 71.30839844 14.76630127 71.30839844 14.08154297 70.5390625 C-0.94121875 53.57734836 -20.38225891 31.04804332 -22.9375 7.625 C-22.5625 4.0625 -22.5625 4.0625 -20.8125 1.125 C-14.52069576 -2.86787577 -7.04531035 -1.43478933 0 0 Z " fill="#C5C4C3" transform="translate(786.5625,227.9375)"/>
<path d="M0 0 C4.59961168 3.83300974 8.86682572 7.83258519 13.06640625 12.09765625 C15.58628497 14.57680966 18.24084351 16.79267481 21 19 C17.83918862 24.8808959 14.44996481 30.48753652 10.6875 36 C5.77228604 43.28997156 0.98067254 50.65151573 -3.75 58.0625 C-4.42603271 59.12098145 -5.10206543 60.17946289 -5.79858398 61.27001953 C-8.53115024 65.55221176 -11.26044479 69.83646466 -13.98535156 74.12353516 C-22.0328026 86.78413637 -30.19606151 99.35207277 -38.54824829 111.81289673 C-43.20711456 118.76620346 -47.79384743 125.7477224 -52.17871094 132.87744141 C-56.74147694 140.26651284 -61.54013154 147.50177894 -66.30712891 154.76000977 C-70.09916405 160.53886791 -73.86642105 166.331798 -77.58203125 172.16015625 C-77.95068298 172.73825546 -78.31933472 173.31635468 -78.69915771 173.91197205 C-80.4697287 176.69060051 -82.23616741 179.47177563 -83.99853516 182.25561523 C-84.62679199 183.24376221 -85.25504883 184.23190918 -85.90234375 185.25 C-86.45398193 186.12140625 -87.00562012 186.9928125 -87.57397461 187.890625 C-89 190 -89 190 -91 192 C-93.1589519 174.39618395 -94.89809591 156.7803364 -96.36254883 139.10571289 C-96.63803178 135.78398044 -96.91764574 132.4626535 -97.19967937 129.14147472 C-97.47267459 125.92133325 -97.74214836 122.70089847 -98.01171875 119.48046875 C-98.11167648 118.29728561 -98.21163422 117.11410248 -98.31462097 115.89506531 C-98.40504166 114.79813858 -98.49546234 113.70121185 -98.58862305 112.57104492 C-98.6683989 111.61244064 -98.74817474 110.65383636 -98.83036804 109.66618347 C-99.29497028 102.36381646 -99.29497028 102.36381646 -97.05859375 99.60546875 C-95.76115234 98.40857422 -95.76115234 98.40857422 -94.4375 97.1875 C-91.37781315 94.33272369 -88.51840128 91.49004847 -85.79907227 88.30786133 C-82.15142724 84.11529436 -78.29652278 80.18460412 -74.34375 76.28125 C-73.2848053 75.22798523 -73.2848053 75.22798523 -72.20446777 74.15344238 C-69.22102625 71.18616234 -66.2315929 68.22494637 -63.24267578 65.26318359 C-61.04509421 63.08381535 -58.85062062 60.90135053 -56.65625 58.71875 C-55.99250366 58.063302 -55.32875732 57.407854 -54.64489746 56.73254395 C-50.79937662 52.90694682 -47.17275506 48.95983565 -43.62902832 44.85388184 C-41.36415427 42.27638897 -38.97394202 39.87932482 -36.53125 37.46875 C-35.80524597 36.7484259 -35.80524597 36.7484259 -35.0645752 36.0135498 C-33.03700354 34.00200121 -31.00337151 31.99662347 -28.97021484 29.99072266 C-23.65177441 24.73716208 -18.41997283 19.47576688 -13.56005859 13.78710938 C-11.02984734 10.88865142 -8.30409596 8.19687733 -5.5625 5.5 C-5.02173828 4.96375 -4.48097656 4.4275 -3.92382812 3.875 C-2.61823383 2.58095964 -1.30947004 1.29011826 0 0 Z " fill="#949393" transform="translate(758,367)"/>
<path d="M0 0 C3.179893 3.764537 5.6826705 7.73996925 8.125 12 C15.40077826 24.37276244 24.6282192 35.17691749 34 46 C34.66902344 46.78246094 35.33804688 47.56492187 36.02734375 48.37109375 C47.24887388 61.19252521 59.41495976 73.68959067 73 84 C74.25908715 84.99709045 75.51678692 85.9959342 76.7734375 86.99609375 C90.91614652 98.15315674 105.94956777 107.81629667 122 116 C112.20703117 121.84024465 93.20291278 118.96502866 82.4375 116.5 C52.49506809 107.46317677 26.87373985 87.74226531 11.95947266 60.06933594 C4.03536636 44.3964178 -0.22652714 27.08816856 -0.0625 9.5625 C-0.05798828 8.64017578 -0.05347656 7.71785156 -0.04882812 6.76757812 C-0.03713938 4.51164952 -0.02075455 2.25586033 0 0 Z " fill="#C4C3C2" transform="translate(749,269)"/>
<path d="M0 0 C5.92016604 2.01994776 10.90055526 6.61957659 14.3046875 11.80078125 C15.88873384 15.41415884 15.95365076 18.90336435 15.15234375 22.734375 C13.65234375 24.859375 13.65234375 24.859375 11.15234375 25.734375 C4.17438973 25.85067423 0.21027698 23.38857077 -4.84765625 18.734375 C-8.28369137 14.94592602 -9.69222667 12.4441004 -10.16015625 7.296875 C-9.84765625 3.734375 -9.84765625 3.734375 -8.34765625 1.234375 C-5.38967345 -0.54041468 -3.37709596 -0.62888193 0 0 Z " fill="#030202" transform="translate(839.84765625,269.265625)"/>
<path d="M0 0 C5.68620583 1.95720853 11.15906383 6.58702729 14.15625 11.7421875 C15.42025458 16.26121042 15.68968608 19.52983276 13.78125 23.8671875 C11.03640947 25.82778788 10.27283581 26.14017747 7.03125 26.1171875 C0.68758753 25.04413017 -3.79140035 20.49163322 -7.84375 15.7421875 C-9.86829592 11.61161239 -10.3463464 8.34932112 -9.84375 3.7421875 C-7.32964938 -0.4479802 -4.73726756 -0.8661422 0 0 Z " fill="#030303" transform="translate(868.84375,317.2578125)"/>
<path d="M0 0 C6.56401986 1.18367571 11.68847489 4.90346764 15.875 10.0625 C18.42145838 14.05018309 18.49818405 17.04008587 17.8125 21.6875 C16.25 24.1875 16.25 24.1875 13.8125 25.6875 C9.07630969 26.61616477 6.1885555 25.62408289 2.1875 23.1875 C-3.12603245 19.33632434 -6.5967048 15.03533947 -7.75 8.5 C-6.75954526 3.54772631 -5.02146042 1.08306009 0 0 Z " fill="#030303" transform="translate(825.1875,297.3125)"/>
<path d="M0 0 C6.37221282 2.88024019 11.84889742 7.69779485 15 14 C15.25729554 17.47348974 15.32055497 20.16655709 14.0625 23.4375 C11.16004518 25.63632941 8.84741444 25.55818341 5.2734375 25.37890625 C-0.61801166 24.39699806 -4.12882724 20.01090963 -7.80078125 15.68359375 C-10.42444981 12.00020238 -10.383336 8.37003043 -10 4 C-7.24011446 -0.13982831 -4.83120796 -0.83617061 0 0 Z " fill="#020202" transform="translate(797,252)"/>
<path d="M0 0 C0.33 0 0.66 0 1 0 C1.02578125 0.91523438 1.0515625 1.83046875 1.078125 2.7734375 C1.13484375 3.96195312 1.1915625 5.15046875 1.25 6.375 C1.29640625 7.55835938 1.3428125 8.74171875 1.390625 9.9609375 C1.68334462 13.00089699 1.68334462 13.00089699 3.57421875 14.40234375 C6.95128162 15.23437373 10.08739154 15.22486676 13.5625 15.1875 C14.23474609 15.18685547 14.90699219 15.18621094 15.59960938 15.18554688 C18.66413171 15.1581579 21.0727161 14.9757613 24 14 C24 14.66 24 15.32 24 16 C44.13 16 64.26 16 85 16 C85 16.33 85 16.66 85 17 C56.95 17 28.9 17 0 17 C0 11.39 0 5.78 0 0 Z " fill="#383831" transform="translate(555,340)"/>
<path d="M0 0 C4.50961712 1.50320571 6.81108279 4.98020408 9 9 C10.19833627 13.26907295 10.29911273 15.23085298 8.6875 19.375 C7 22 7 22 5 23 C3.48062168 23.06969625 1.95831734 23.08447007 0.4375 23.0625 C-0.36816406 23.05347656 -1.17382812 23.04445313 -2.00390625 23.03515625 C-2.99197266 23.01775391 -2.99197266 23.01775391 -4 23 C-4.33 23 -4.66 23 -5 23 C-3.02 25.31 -1.04 27.62 1 30 C-2.96732692 28.01633654 -5.93018789 25.68118798 -9.1875 22.75 C-9.73341797 22.28464844 -10.27933594 21.81929688 -10.84179688 21.33984375 C-13.60491437 18.85406519 -14.92865473 17.27763319 -15.86328125 13.640625 C-15.90839844 12.76921875 -15.95351563 11.8978125 -16 11 C-15.34 11.721875 -14.68 12.44375 -14 13.1875 C-9.65477012 17.48363124 -5.32717965 20.69479611 0.8125 21.5 C3.88114857 21.19031962 3.88114857 21.19031962 5.9375 20 C7.70345094 16.67585706 7.81585717 13.58849678 7 10 C5.27715989 7.07219731 3.19032805 4.58470844 1 2 C0.67 1.34 0.34 0.68 0 0 Z " fill="#E7E6E5" transform="translate(835,301)"/>
<path d="M0 0 C0.33 0.66 0.66 1.32 1 2 C-6.66666667 9.66666667 -14.33333333 17.33333333 -22 25 C-22 22 -22 22 -19.98046875 19.63989258 C-19.05878906 18.73392334 -18.13710938 17.8279541 -17.1875 16.89453125 C-16.69918701 16.4104631 -16.21087402 15.92639496 -15.70776367 15.42765808 C-14.14540174 13.8820986 -12.57293673 12.34728893 -11 10.8125 C-9.93942238 9.76696718 -8.87951771 8.72075127 -7.8203125 7.67382812 C-5.22130566 5.10791098 -2.6131361 2.55153533 0 0 Z " fill="#B4B3B2" transform="translate(737,389)"/>
<path d="M0 0 C0.33 0.99 0.66 1.98 1 3 C-3.33333333 7.33333333 -7.66666667 11.66666667 -12 16 C-12.66 15.67 -13.32 15.34 -14 15 C-12.0421736 12.87453098 -10.08376183 10.74960666 -8.125 8.625 C-7.29162109 7.72007812 -7.29162109 7.72007812 -6.44140625 6.796875 C-5.90644531 6.21679688 -5.37148438 5.63671875 -4.8203125 5.0390625 C-4.08192139 4.23782959 -4.08192139 4.23782959 -3.32861328 3.42041016 C-2.24184238 2.25855182 -1.12494128 1.12494128 0 0 Z " fill="#669F5A" transform="translate(494,553)"/>
<path d="M0 0 C0.33 0 0.66 0 1 0 C1.33 4.29 1.66 8.58 2 13 C5.465 14.485 5.465 14.485 9 16 C9 16.33 9 16.66 9 17 C6.03 17 3.06 17 0 17 C0 11.39 0 5.78 0 0 Z " fill="#282922" transform="translate(555,340)"/>
<path d="M0 0 C0.33 0.99 0.66 1.98 1 3 C-1.64 5.64 -4.28 8.28 -7 11 C-7.66 10.67 -8.32 10.34 -9 10 C-6.03 6.7 -3.06 3.4 0 0 Z " fill="#649D59" transform="translate(477,571)"/>
<path d="M0 0 C0.33 0.66 0.66 1.32 1 2 C-0.98 4.97 -2.96 7.94 -5 11 C-6 7 -6 7 -6 5 C-5.38125 4.731875 -4.7625 4.46375 -4.125 4.1875 C-1.7004767 3.04443152 -1.7004767 3.04443152 0 0 Z " fill="#AEACAB" transform="translate(675,544)"/>
<path d="M0 0 C0 4.38968456 -2.12805101 5.76905739 -5 9 C-5.66 8.67 -6.32 8.34 -7 8 C-4.69 5.36 -2.38 2.72 0 0 Z " fill="#68A35C" transform="translate(420,633)"/>
<path d="M0 0 C0 2.64 0 5.28 0 8 C-0.99 8.495 -0.99 8.495 -2 9 C-3.35439668 6.29120665 -3.06501451 3.99066732 -3 1 C-1 0 -1 0 0 0 Z " fill="#755037" transform="translate(282,436)"/>
<path d="M0 0 C2.5625 2.25 2.5625 2.25 5 5 C4.8125 7.3125 4.8125 7.3125 4 9 C1.49701566 6.06171403 0.53069061 3.82097239 0 0 Z " fill="#EAEAE9" transform="translate(819,312)"/>
<path d="M0 0 C0.33 0 0.66 0 1 0 C1 1.98 1 3.96 1 6 C0.34 5.67 -0.32 5.34 -1 5 C-0.67 3.35 -0.34 1.7 0 0 Z " fill="#272420" transform="translate(226,720)"/>
<path d="M0 0 C1.65 0 3.3 0 5 0 C3.02 0.99 3.02 0.99 1 2 C0.67 1.34 0.34 0.68 0 0 Z " fill="#262A22" transform="translate(840,414)"/>
<path d="M0 0 C0.33 0 0.66 0 1 0 C1 1.98 1 3.96 1 6 C0.67 6 0.34 6 0 6 C0 4.02 0 2.04 0 0 Z " fill="#252720" transform="translate(721,282)"/>
<path d="M0 0 C0.99 0 1.98 0 3 0 C2.67 0.66 2.34 1.32 2 2 C1.34 2 0.68 2 0 2 C0 1.34 0 0.68 0 0 Z " fill="#25211D" transform="translate(289,860)"/>
<path d="M0 0 C0.66 0 1.32 0 2 0 C1.67 0.99 1.34 1.98 1 3 C0.67 2.01 0.34 1.02 0 0 Z " fill="#25221D" transform="translate(240,824)"/>
<path d="M0 0 C0.33 0 0.66 0 1 0 C1 1.65 1 3.3 1 5 C0.67 5 0.34 5 0 5 C0 3.35 0 1.7 0 0 Z " fill="#282921" transform="translate(256,384)"/>
<path d="M0 0 C1.65 0 3.3 0 5 0 C5 0.33 5 0.66 5 1 C3.35 1 1.7 1 0 1 C0 0.67 0 0.34 0 0 Z " fill="#1B1D16" transform="translate(454,354)"/>
<path d="M0 0 C0.33 0 0.66 0 1 0 C1 1.65 1 3.3 1 5 C0.67 5 0.34 5 0 5 C0 3.35 0 1.7 0 0 Z " fill="#262822" transform="translate(722,293)"/>
<path d="M0 0 C0.33 0 0.66 0 1 0 C1 1.65 1 3.3 1 5 C0.67 5 0.34 5 0 5 C0 3.35 0 1.7 0 0 Z " fill="#242721" transform="translate(721,264)"/>
<path d="M0 0 C0.66 0.66 1.32 1.32 2 2 C1.01 2.495 1.01 2.495 0 3 C0 2.01 0 1.02 0 0 Z " fill="#25201C" transform="translate(244,828)"/>
<path d="M0 0 C1 4 1 4 1 4 Z " fill="#2A2822" transform="translate(687,776)"/>
<path d="M0 0 C1 4 1 4 1 4 Z " fill="#25221E" transform="translate(679,670)"/>
<path d="M0 0 C1 4 1 4 1 4 Z " fill="#27261F" transform="translate(233,640)"/>
<path d="M0 0 C0.66 0 1.32 0 2 0 C1.67 0.99 1.34 1.98 1 3 C0.67 2.01 0.34 1.02 0 0 Z " fill="#21241E" transform="translate(206,440)"/>
<path d="M0 0 C4 1 4 1 4 1 Z " fill="#292922" transform="translate(858,415)"/>
<path d="M0 0 C0 3 0 3 0 3 Z " fill="#23271E" transform="translate(101,413)"/>
<path d="M0 0 C0.99 0.33 1.98 0.66 3 1 C2.01 1 1.02 1 0 1 C0 0.67 0 0.34 0 0 Z " fill="#23241F" transform="translate(717,368)"/>
<path d="M0 0 C4 1 4 1 4 1 Z " fill="#252620" transform="translate(405,354)"/>
<path d="M0 0 C4 1 4 1 4 1 Z " fill="#292922" transform="translate(324,354)"/>
<path d="M0 0 C4 1 4 1 4 1 Z " fill="#2A2922" transform="translate(317,354)"/>
<path d="M0 0 C4 1 4 1 4 1 Z " fill="#2B2A23" transform="translate(286,354)"/>
<path d="M0 0 C1.485 0.99 1.485 0.99 3 2 C2.01 2 1.02 2 0 2 C0 1.34 0 0.68 0 0 Z " fill="#22251C" transform="translate(408,266)"/>
<path d="M0 0 C0.99 0.33 1.98 0.66 3 1 C2.01 1.33 1.02 1.66 0 2 C0 1.34 0 0.68 0 0 Z " fill="#25261F" transform="translate(193,184)"/>
<path d="M0 0 C4 1 4 1 4 1 Z " fill="#24281E" transform="translate(254,160)"/>
<path d="" fill="#282420" transform="translate(0,0)"/>
<path d="" fill="#28251F" transform="translate(0,0)"/>
<path d="M0 0 C0.66 0.66 1.32 1.32 2 2 C1.34 2 0.68 2 0 2 C0 1.34 0 0.68 0 0 Z " fill="#26251F" transform="translate(233,634)"/>
<path d="M0 0 C0.66 0.66 1.32 1.32 2 2 C1.34 2 0.68 2 0 2 C0 1.34 0 0.68 0 0 Z " fill="#23231B" transform="translate(161,541)"/>
<path d="M0 0 C0.33 0.66 0.66 1.32 1 2 C0.34 1.67 -0.32 1.34 -1 1 C-0.67 0.67 -0.34 0.34 0 0 Z " fill="#22231B" transform="translate(141,517)"/>
<path d="M0 0 C0.66 0 1.32 0 2 0 C1.67 0.66 1.34 1.32 1 2 C0.67 1.34 0.34 0.68 0 0 Z " fill="#22231C" transform="translate(137,513)"/>
<path d="" fill="#1F1E18" transform="translate(0,0)"/>
<path d="" fill="#22241D" transform="translate(0,0)"/>
<path d="M0 0 C0.66 0 1.32 0 2 0 C1.67 0.66 1.34 1.32 1 2 C0.67 1.34 0.34 0.68 0 0 Z " fill="#252721" transform="translate(787,422)"/>
<path d="M0 0 C3 1 3 1 3 1 Z " fill="#282A23" transform="translate(833,413)"/>
<path d="" fill="#23261F" transform="translate(0,0)"/>
<path d="" fill="#242720" transform="translate(0,0)"/>
<path d="" fill="#2A2D27" transform="translate(0,0)"/>
<path d="M0 0 C3 1 3 1 3 1 Z " fill="#292C23" transform="translate(260,360)"/>
<path d="M0 0 C3 1 3 1 3 1 Z " fill="#25251F" transform="translate(582,354)"/>
<path d="M0 0 C3 1 3 1 3 1 Z " fill="#22221B" transform="translate(437,354)"/>
<path d="M0 0 C3 1 3 1 3 1 Z " fill="#24241E" transform="translate(422,354)"/>
<path d="M0 0 C3 1 3 1 3 1 Z " fill="#272921" transform="translate(392,354)"/>
<path d="M0 0 C3 1 3 1 3 1 Z " fill="#28261E" transform="translate(381,354)"/>
<path d="" fill="#272C22" transform="translate(0,0)"/>
<path d="M0 0 C0.66 0 1.32 0 2 0 C1.67 0.66 1.34 1.32 1 2 C0.67 1.34 0.34 0.68 0 0 Z " fill="#20231A" transform="translate(451,313)"/>
<path d="" fill="#272923" transform="translate(0,0)"/>
<path d="" fill="#242621" transform="translate(0,0)"/>
<path d="M0 0 C0.66 0 1.32 0 2 0 C1.67 0.66 1.34 1.32 1 2 C0.67 1.34 0.34 0.68 0 0 Z " fill="#272923" transform="translate(902,286)"/>
<path d="M0 0 C0.66 0.66 1.32 1.32 2 2 C1.34 2 0.68 2 0 2 C0 1.34 0 0.68 0 0 Z " fill="#23261F" transform="translate(433,285)"/>
<path d="M0 0 C0.66 0.66 1.32 1.32 2 2 C1.34 2 0.68 2 0 2 C0 1.34 0 0.68 0 0 Z " fill="#262B20" transform="translate(112,274)"/>
<path d="M0 0 C0.66 0 1.32 0 2 0 C1.67 0.66 1.34 1.32 1 2 C0.67 1.34 0.34 0.68 0 0 Z " fill="#232620" transform="translate(721,259)"/>
<path d="M0 0 C0.66 0.66 1.32 1.32 2 2 C1.34 2 0.68 2 0 2 C0 1.34 0 0.68 0 0 Z " fill="#23271F" transform="translate(180,192)"/>
<path d="M0 0 C0.33 0.66 0.66 1.32 1 2 C0.34 1.67 -0.32 1.34 -1 1 C-0.67 0.67 -0.34 0.34 0 0 Z " fill="#24291F" transform="translate(414,162)"/>
<path d="M0 0 C3 1 3 1 3 1 Z " fill="#1E211B" transform="translate(397,160)"/>
<path d="M0 0 C2 1 2 1 2 1 Z " fill="#27221D" transform="translate(293,861)"/>
<path d="M0 0 C2 1 2 1 2 1 Z " fill="#24201C" transform="translate(252,838)"/>
<path d="M0 0 C2 1 2 1 2 1 Z " fill="#24231B" transform="translate(249,835)"/>
<path d="" fill="#2B2821" transform="translate(0,0)"/>
<path d="" fill="#2A251F" transform="translate(0,0)"/>
<path d="" fill="#28251F" transform="translate(0,0)"/>
<path d="" fill="#292521" transform="translate(0,0)"/>
<path d="" fill="#282620" transform="translate(0,0)"/>
<path d="" fill="#26251E" transform="translate(0,0)"/>
<path d="" fill="#282721" transform="translate(0,0)"/>
<path d="" fill="#27251D" transform="translate(0,0)"/>
<path d="" fill="#25241F" transform="translate(0,0)"/>
<path d="" fill="#27251E" transform="translate(0,0)"/>
<path d="" fill="#282620" transform="translate(0,0)"/>
<path d="" fill="#292720" transform="translate(0,0)"/>
<path d="" fill="#272720" transform="translate(0,0)"/>
<path d="" fill="#24231D" transform="translate(0,0)"/>
<path d="M0 0 C2 1 2 1 2 1 Z " fill="#24221D" transform="translate(226,587)"/>
<path d="M0 0 C2 1 2 1 2 1 Z " fill="#23231B" transform="translate(203,575)"/>
<path d="M0 0 C2 1 2 1 2 1 Z " fill="#23241D" transform="translate(185,563)"/>
<path d="M0 0 C2 1 2 1 2 1 Z " fill="#25251F" transform="translate(178,557)"/>
<path d="M0 0 C2 1 2 1 2 1 Z " fill="#25241E" transform="translate(155,535)"/>
<path d="M0 0 C2 1 2 1 2 1 Z " fill="#23221B" transform="translate(153,533)"/>
<path d="" fill="#22231C" transform="translate(0,0)"/>
<path d="" fill="#20221A" transform="translate(0,0)"/>
<path d="" fill="#22231C" transform="translate(0,0)"/>
<path d="" fill="#22231E" transform="translate(0,0)"/>
<path d="" fill="#22231D" transform="translate(0,0)"/>
<path d="" fill="#22221D" transform="translate(0,0)"/>
<path d="" fill="#1F211B" transform="translate(0,0)"/>
<path d="" fill="#252620" transform="translate(0,0)"/>
<path d="M0 0 C2 1 2 1 2 1 Z " fill="#22221C" transform="translate(214,456)"/>
<path d="" fill="#21251C" transform="translate(0,0)"/>
<path d="M0 0 C2 1 2 1 2 1 Z " fill="#1B1D18" transform="translate(663,424)"/>
<path d="M0 0 C2 1 2 1 2 1 Z " fill="#252720" transform="translate(852,415)"/>
<path d="M0 0 C2 1 2 1 2 1 Z " fill="#282C25" transform="translate(868,414)"/>
<path d="M0 0 C2 1 2 1 2 1 Z " fill="#272922" transform="translate(829,412)"/>
<path d="M0 0 C2 1 2 1 2 1 Z " fill="#262621" transform="translate(826,411)"/>
<path d="M0 0 C2 1 2 1 2 1 Z " fill="#23231D" transform="translate(679,408)"/>
<path d="" fill="#24271F" transform="translate(0,0)"/>
<path d="M0 0 C2 1 2 1 2 1 Z " fill="#252620" transform="translate(811,406)"/>
<path d="" fill="#272922" transform="translate(0,0)"/>
<path d="" fill="#23221E" transform="translate(0,0)"/>
<path d="" fill="#26261F" transform="translate(0,0)"/>
<path d="" fill="#272C21" transform="translate(0,0)"/>
<path d="" fill="#252520" transform="translate(0,0)"/>
<path d="" fill="#262721" transform="translate(0,0)"/>
<path d="M0 0 C2 1 2 1 2 1 Z " fill="#22211C" transform="translate(724,362)"/>
<path d="" fill="#292D23" transform="translate(0,0)"/>
<path d="" fill="#21221E" transform="translate(0,0)"/>
<path d="" fill="#24261F" transform="translate(0,0)"/>
<path d="M0 0 C2 1 2 1 2 1 Z " fill="#292823" transform="translate(616,354)"/>
<path d="M0 0 C2 1 2 1 2 1 Z " fill="#282922" transform="translate(600,354)"/>
<path d="M0 0 C2 1 2 1 2 1 Z " fill="#1D1E18" transform="translate(460,354)"/>
<path d="M0 0 C2 1 2 1 2 1 Z " fill="#1D2119" transform="translate(448,354)"/>
<path d="M0 0 C2 1 2 1 2 1 Z " fill="#23251B" transform="translate(429,354)"/>
<path d="M0 0 C2 1 2 1 2 1 Z " fill="#25241E" transform="translate(410,354)"/>
<path d="M0 0 C2 1 2 1 2 1 Z " fill="#292921" transform="translate(376,354)"/>
<path d="M0 0 C2 1 2 1 2 1 Z " fill="#292920" transform="translate(358,354)"/>
<path d="M0 0 C2 1 2 1 2 1 Z " fill="#282822" transform="translate(350,354)"/>
<path d="M0 0 C2 1 2 1 2 1 Z " fill="#272823" transform="translate(334,354)"/>
<path d="M0 0 C2 1 2 1 2 1 Z " fill="#2B2C26" transform="translate(273,354)"/>
<path d="" fill="#23241D" transform="translate(0,0)"/>
<path d="" fill="#262821" transform="translate(0,0)"/>
<path d="" fill="#22221D" transform="translate(0,0)"/>
<path d="" fill="#1E2118" transform="translate(0,0)"/>
<path d="" fill="#23241D" transform="translate(0,0)"/>
<path d="" fill="#23221D" transform="translate(0,0)"/>
<path d="" fill="#272923" transform="translate(0,0)"/>
<path d="" fill="#25261E" transform="translate(0,0)"/>
<path d="" fill="#202219" transform="translate(0,0)"/>
<path d="" fill="#252822" transform="translate(0,0)"/>
<path d="" fill="#242621" transform="translate(0,0)"/>
<path d="" fill="#292B25" transform="translate(0,0)"/>
<path d="" fill="#23251C" transform="translate(0,0)"/>
<path d="" fill="#23251D" transform="translate(0,0)"/>
<path d="M0 0 C2 1 2 1 2 1 Z " fill="#26291F" transform="translate(105,296)"/>
<path d="M0 0 C2 1 2 1 2 1 Z " fill="#22231B" transform="translate(215,295)"/>
<path d="M0 0 C2 1 2 1 2 1 Z " fill="#24271E" transform="translate(234,275)"/>
<path d="M0 0 C2 1 2 1 2 1 Z " fill="#24281F" transform="translate(269,258)"/>
<path d="M0 0 C2 1 2 1 2 1 Z " fill="#282922" transform="translate(286,255)"/>
<path d="M0 0 C2 1 2 1 2 1 Z " fill="#262920" transform="translate(339,254)"/>
<path d="M0 0 C2 1 2 1 2 1 Z " fill="#25291F" transform="translate(315,254)"/>
<path d="" fill="#242921" transform="translate(0,0)"/>
<path d="M0 0 C2 1 2 1 2 1 Z " fill="#252820" transform="translate(132,243)"/>
<path d="M0 0 C2 1 2 1 2 1 Z " fill="#262921" transform="translate(860,241)"/>
<path d="" fill="#262822" transform="translate(0,0)"/>
<path d="M0 0 C2 1 2 1 2 1 Z " fill="#282B23" transform="translate(757,202)"/>
<path d="M0 0 C2 1 2 1 2 1 Z " fill="#242720" transform="translate(786,200)"/>
<path d="" fill="#20241C" transform="translate(0,0)"/>
<path d="M0 0 C2 1 2 1 2 1 Z " fill="#21241D" transform="translate(446,176)"/>
<path d="M0 0 C2 1 2 1 2 1 Z " fill="#22261F" transform="translate(209,176)"/>
<path d="M0 0 C2 1 2 1 2 1 Z " fill="#23271E" transform="translate(433,170)"/>
<path d="M0 0 C2 1 2 1 2 1 Z " fill="#22261F" transform="translate(430,169)"/>
<path d="M0 0 C2 1 2 1 2 1 Z " fill="#21271E" transform="translate(427,168)"/>
<path d="M0 0 C2 1 2 1 2 1 Z " fill="#232820" transform="translate(409,162)"/>
<path d="M0 0 C2 1 2 1 2 1 Z " fill="#232920" transform="translate(251,161)"/>
<path d="M0 0 C2 1 2 1 2 1 Z " fill="#25291F" transform="translate(359,155)"/>
<path d="" fill="#161610" transform="translate(0,0)"/>
<path d="" fill="#10120B" transform="translate(0,0)"/>
<path d="" fill="#10120C" transform="translate(0,0)"/>
<path d="" fill="#0F120B" transform="translate(0,0)"/>
<path d="" fill="#191811" transform="translate(0,0)"/>
<path d="" fill="#191913" transform="translate(0,0)"/>
<path d="" fill="#1B1B14" transform="translate(0,0)"/>
<path d="" fill="#0F120B" transform="translate(0,0)"/>
<path d="" fill="#12120C" transform="translate(0,0)"/>
<path d="" fill="#1D1E16" transform="translate(0,0)"/>
<path d="" fill="#1D1B16" transform="translate(0,0)"/>
<path d="" fill="#15170F" transform="translate(0,0)"/>
<path d="" fill="#1E1C15" transform="translate(0,0)"/>
<path d="" fill="#12140D" transform="translate(0,0)"/>
<path d="" fill="#241F1A" transform="translate(0,0)"/>
<path d="" fill="#25211E" transform="translate(0,0)"/>
<path d="" fill="#27231F" transform="translate(0,0)"/>
<path d="" fill="#28241D" transform="translate(0,0)"/>
<path d="" fill="#282720" transform="translate(0,0)"/>
<path d="" fill="#25211B" transform="translate(0,0)"/>
<path d="" fill="#26221E" transform="translate(0,0)"/>
<path d="" fill="#23221D" transform="translate(0,0)"/>
<path d="" fill="#27231D" transform="translate(0,0)"/>
<path d="" fill="#26231C" transform="translate(0,0)"/>
<path d="" fill="#27211E" transform="translate(0,0)"/>
<path d="" fill="#26221D" transform="translate(0,0)"/>
<path d="" fill="#28241F" transform="translate(0,0)"/>
<path d="" fill="#231F1C" transform="translate(0,0)"/>
<path d="" fill="#23221C" transform="translate(0,0)"/>
<path d="" fill="#29261F" transform="translate(0,0)"/>
<path d="" fill="#24211C" transform="translate(0,0)"/>
<path d="" fill="#23211D" transform="translate(0,0)"/>
<path d="" fill="#28241E" transform="translate(0,0)"/>
<path d="" fill="#26241F" transform="translate(0,0)"/>
<path d="" fill="#23211A" transform="translate(0,0)"/>
<path d="" fill="#26241D" transform="translate(0,0)"/>
<path d="" fill="#28211E" transform="translate(0,0)"/>
<path d="" fill="#27241C" transform="translate(0,0)"/>
<path d="" fill="#23231E" transform="translate(0,0)"/>
<path d="" fill="#27231F" transform="translate(0,0)"/>
<path d="" fill="#27241D" transform="translate(0,0)"/>
<path d="" fill="#25231D" transform="translate(0,0)"/>
<path d="" fill="#212218" transform="translate(0,0)"/>
<path d="" fill="#12140E" transform="translate(0,0)"/>
<path d="" fill="#27251E" transform="translate(0,0)"/>
<path d="" fill="#27251D" transform="translate(0,0)"/>
<path d="" fill="#2E2C24" transform="translate(0,0)"/>
<path d="" fill="#29251E" transform="translate(0,0)"/>
<path d="" fill="#212019" transform="translate(0,0)"/>
<path d="" fill="#2A2420" transform="translate(0,0)"/>
<path d="" fill="#26251E" transform="translate(0,0)"/>
<path d="" fill="#292522" transform="translate(0,0)"/>
<path d="" fill="#2C2420" transform="translate(0,0)"/>
<path d="" fill="#292820" transform="translate(0,0)"/>
<path d="" fill="#26231F" transform="translate(0,0)"/>
<path d="" fill="#11140F" transform="translate(0,0)"/>
<path d="" fill="#25251D" transform="translate(0,0)"/>
<path d="" fill="#22221B" transform="translate(0,0)"/>
<path d="" fill="#272320" transform="translate(0,0)"/>
<path d="" fill="#28261E" transform="translate(0,0)"/>
<path d="" fill="#27241F" transform="translate(0,0)"/>
<path d="" fill="#28271E" transform="translate(0,0)"/>
<path d="" fill="#22201D" transform="translate(0,0)"/>
<path d="" fill="#27241E" transform="translate(0,0)"/>
<path d="" fill="#2A2421" transform="translate(0,0)"/>
<path d="" fill="#26221D" transform="translate(0,0)"/>
<path d="" fill="#26231E" transform="translate(0,0)"/>
<path d="" fill="#292821" transform="translate(0,0)"/>
<path d="" fill="#25211E" transform="translate(0,0)"/>
<path d="" fill="#14160F" transform="translate(0,0)"/>
<path d="" fill="#1F2018" transform="translate(0,0)"/>
<path d="" fill="#272A20" transform="translate(0,0)"/>
<path d="" fill="#26231E" transform="translate(0,0)"/>
<path d="" fill="#25261F" transform="translate(0,0)"/>
<path d="" fill="#13160F" transform="translate(0,0)"/>
<path d="" fill="#141710" transform="translate(0,0)"/>
<path d="" fill="#292520" transform="translate(0,0)"/>
<path d="" fill="#27271F" transform="translate(0,0)"/>
<path d="" fill="#282620" transform="translate(0,0)"/>
<path d="" fill="#21231D" transform="translate(0,0)"/>
<path d="" fill="#25231D" transform="translate(0,0)"/>
<path d="" fill="#252320" transform="translate(0,0)"/>
<path d="" fill="#24231D" transform="translate(0,0)"/>
<path d="" fill="#24241C" transform="translate(0,0)"/>
<path d="" fill="#22201C" transform="translate(0,0)"/>
<path d="" fill="#22211D" transform="translate(0,0)"/>
<path d="" fill="#23221D" transform="translate(0,0)"/>
<path d="" fill="#24261C" transform="translate(0,0)"/>
<path d="" fill="#25211D" transform="translate(0,0)"/>
<path d="" fill="#23201B" transform="translate(0,0)"/>
<path d="" fill="#23251D" transform="translate(0,0)"/>
<path d="" fill="#27261E" transform="translate(0,0)"/>
<path d="" fill="#24221D" transform="translate(0,0)"/>
<path d="" fill="#23231D" transform="translate(0,0)"/>
<path d="" fill="#22221C" transform="translate(0,0)"/>
<path d="" fill="#22221F" transform="translate(0,0)"/>
<path d="" fill="#24261F" transform="translate(0,0)"/>
<path d="" fill="#25241D" transform="translate(0,0)"/>
<path d="" fill="#24231E" transform="translate(0,0)"/>
<path d="" fill="#232320" transform="translate(0,0)"/>
<path d="" fill="#22241E" transform="translate(0,0)"/>
<path d="" fill="#22221F" transform="translate(0,0)"/>
<path d="" fill="#22231D" transform="translate(0,0)"/>
<path d="" fill="#21231E" transform="translate(0,0)"/>
<path d="" fill="#242620" transform="translate(0,0)"/>
<path d="" fill="#24241F" transform="translate(0,0)"/>
<path d="" fill="#24231B" transform="translate(0,0)"/>
<path d="" fill="#211F1C" transform="translate(0,0)"/>
<path d="" fill="#201F1A" transform="translate(0,0)"/>
<path d="" fill="#21221A" transform="translate(0,0)"/>
<path d="" fill="#23251D" transform="translate(0,0)"/>
<path d="" fill="#1B1C16" transform="translate(0,0)"/>
<path d="" fill="#25241D" transform="translate(0,0)"/>
<path d="" fill="#24231E" transform="translate(0,0)"/>
<path d="" fill="#23231C" transform="translate(0,0)"/>
<path d="" fill="#24231D" transform="translate(0,0)"/>
<path d="" fill="#25241F" transform="translate(0,0)"/>
<path d="" fill="#24221C" transform="translate(0,0)"/>
<path d="" fill="#23241E" transform="translate(0,0)"/>
<path d="" fill="#21241C" transform="translate(0,0)"/>
<path d="" fill="#242420" transform="translate(0,0)"/>
<path d="" fill="#20211F" transform="translate(0,0)"/>
<path d="" fill="#25241F" transform="translate(0,0)"/>
<path d="" fill="#25221D" transform="translate(0,0)"/>
<path d="" fill="#20221B" transform="translate(0,0)"/>
<path d="" fill="#282822" transform="translate(0,0)"/>
<path d="" fill="#23241B" transform="translate(0,0)"/>
<path d="" fill="#1D1E16" transform="translate(0,0)"/>
<path d="" fill="#262621" transform="translate(0,0)"/>
<path d="" fill="#252620" transform="translate(0,0)"/>
<path d="" fill="#1C2017" transform="translate(0,0)"/>
<path d="" fill="#21231C" transform="translate(0,0)"/>
<path d="" fill="#1C2119" transform="translate(0,0)"/>
<path d="" fill="#1F221B" transform="translate(0,0)"/>
<path d="" fill="#1D2017" transform="translate(0,0)"/>
<path d="" fill="#23241E" transform="translate(0,0)"/>
<path d="" fill="#1E2119" transform="translate(0,0)"/>
<path d="" fill="#22241D" transform="translate(0,0)"/>
<path d="" fill="#1F2019" transform="translate(0,0)"/>
<path d="" fill="#292923" transform="translate(0,0)"/>
<path d="" fill="#22251D" transform="translate(0,0)"/>
<path d="" fill="#2A2924" transform="translate(0,0)"/>
<path d="" fill="#252422" transform="translate(0,0)"/>
<path d="" fill="#22221B" transform="translate(0,0)"/>
<path d="" fill="#1F2019" transform="translate(0,0)"/>
<path d="" fill="#1F221C" transform="translate(0,0)"/>
<path d="" fill="#27261D" transform="translate(0,0)"/>
<path d="" fill="#1C1E19" transform="translate(0,0)"/>
<path d="" fill="#262522" transform="translate(0,0)"/>
<path d="" fill="#24261E" transform="translate(0,0)"/>
<path d="" fill="#262622" transform="translate(0,0)"/>
<path d="" fill="#22241B" transform="translate(0,0)"/>
<path d="" fill="#222720" transform="translate(0,0)"/>
<path d="" fill="#24261D" transform="translate(0,0)"/>
<path d="" fill="#23281D" transform="translate(0,0)"/>
<path d="" fill="#282620" transform="translate(0,0)"/>
<path d="" fill="#20231B" transform="translate(0,0)"/>
<path d="" fill="#25281D" transform="translate(0,0)"/>
<path d="" fill="#25271D" transform="translate(0,0)"/>
<path d="" fill="#27271D" transform="translate(0,0)"/>
<path d="" fill="#23281E" transform="translate(0,0)"/>
<path d="" fill="#26261F" transform="translate(0,0)"/>
<path d="" fill="#24271F" transform="translate(0,0)"/>
<path d="" fill="#272722" transform="translate(0,0)"/>
<path d="" fill="#1E1E17" transform="translate(0,0)"/>
<path d="" fill="#201E18" transform="translate(0,0)"/>
<path d="" fill="#1B1F18" transform="translate(0,0)"/>
<path d="" fill="#1E2118" transform="translate(0,0)"/>
<path d="" fill="#262820" transform="translate(0,0)"/>
<path d="" fill="#242520" transform="translate(0,0)"/>
<path d="" fill="#272923" transform="translate(0,0)"/>
<path d="" fill="#1E211D" transform="translate(0,0)"/>
<path d="" fill="#262923" transform="translate(0,0)"/>
<path d="" fill="#292B24" transform="translate(0,0)"/>
<path d="" fill="#21231B" transform="translate(0,0)"/>
<path d="" fill="#262B23" transform="translate(0,0)"/>
<path d="" fill="#21241E" transform="translate(0,0)"/>
<path d="" fill="#262A23" transform="translate(0,0)"/>
<path d="" fill="#292921" transform="translate(0,0)"/>
<path d="" fill="#20221C" transform="translate(0,0)"/>
<path d="" fill="#282B26" transform="translate(0,0)"/>
<path d="" fill="#24251E" transform="translate(0,0)"/>
<path d="" fill="#262920" transform="translate(0,0)"/>
<path d="" fill="#22231F" transform="translate(0,0)"/>
<path d="" fill="#282820" transform="translate(0,0)"/>
<path d="" fill="#24241F" transform="translate(0,0)"/>
<path d="" fill="#23231F" transform="translate(0,0)"/>
<path d="" fill="#21241C" transform="translate(0,0)"/>
<path d="" fill="#252420" transform="translate(0,0)"/>
<path d="" fill="#22241E" transform="translate(0,0)"/>
<path d="" fill="#23271F" transform="translate(0,0)"/>
<path d="" fill="#21231B" transform="translate(0,0)"/>
<path d="" fill="#22221B" transform="translate(0,0)"/>
<path d="" fill="#24251F" transform="translate(0,0)"/>
<path d="" fill="#282C23" transform="translate(0,0)"/>
<path d="" fill="#262821" transform="translate(0,0)"/>
<path d="" fill="#26291F" transform="translate(0,0)"/>
<path d="" fill="#22211E" transform="translate(0,0)"/>
<path d="" fill="#24231E" transform="translate(0,0)"/>
<path d="" fill="#292A26" transform="translate(0,0)"/>
<path d="" fill="#232520" transform="translate(0,0)"/>
<path d="" fill="#1F2120" transform="translate(0,0)"/>
<path d="" fill="#24231D" transform="translate(0,0)"/>
<path d="" fill="#282A25" transform="translate(0,0)"/>
<path d="" fill="#22221F" transform="translate(0,0)"/>
<path d="" fill="#23231F" transform="translate(0,0)"/>
<path d="" fill="#292A25" transform="translate(0,0)"/>
<path d="" fill="#23241E" transform="translate(0,0)"/>
<path d="" fill="#21251F" transform="translate(0,0)"/>
<path d="" fill="#28291F" transform="translate(0,0)"/>
<path d="" fill="#232620" transform="translate(0,0)"/>
<path d="" fill="#2A2B23" transform="translate(0,0)"/>
<path d="" fill="#23261C" transform="translate(0,0)"/>
<path d="" fill="#292A22" transform="translate(0,0)"/>
<path d="" fill="#2A2A23" transform="translate(0,0)"/>
<path d="" fill="#272A23" transform="translate(0,0)"/>
<path d="" fill="#2B2A24" transform="translate(0,0)"/>
<path d="" fill="#20261C" transform="translate(0,0)"/>
<path d="" fill="#2B2C24" transform="translate(0,0)"/>
<path d="" fill="#2A2C23" transform="translate(0,0)"/>
<path d="" fill="#21241C" transform="translate(0,0)"/>
<path d="" fill="#20231E" transform="translate(0,0)"/>
<path d="" fill="#282A24" transform="translate(0,0)"/>
<path d="" fill="#252820" transform="translate(0,0)"/>
<path d="" fill="#2A2C27" transform="translate(0,0)"/>
<path d="" fill="#262420" transform="translate(0,0)"/>
<path d="" fill="#2C2D26" transform="translate(0,0)"/>
<path d="" fill="#23231B" transform="translate(0,0)"/>
<path d="" fill="#292A25" transform="translate(0,0)"/>
<path d="" fill="#282720" transform="translate(0,0)"/>
<path d="" fill="#282822" transform="translate(0,0)"/>
<path d="" fill="#292922" transform="translate(0,0)"/>
<path d="" fill="#26281F" transform="translate(0,0)"/>
<path d="" fill="#22221B" transform="translate(0,0)"/>
<path d="" fill="#1F2018" transform="translate(0,0)"/>
<path d="" fill="#22231C" transform="translate(0,0)"/>
<path d="" fill="#25251F" transform="translate(0,0)"/>
<path d="" fill="#272621" transform="translate(0,0)"/>
<path d="" fill="#282821" transform="translate(0,0)"/>
<path d="" fill="#27261F" transform="translate(0,0)"/>
<path d="" fill="#272820" transform="translate(0,0)"/>
<path d="" fill="#272621" transform="translate(0,0)"/>
<path d="" fill="#292822" transform="translate(0,0)"/>
<path d="" fill="#2A2B25" transform="translate(0,0)"/>
<path d="" fill="#282921" transform="translate(0,0)"/>
<path d="" fill="#272923" transform="translate(0,0)"/>
<path d="" fill="#2A2A22" transform="translate(0,0)"/>
<path d="" fill="#2A2821" transform="translate(0,0)"/>
<path d="" fill="#2A2824" transform="translate(0,0)"/>
<path d="" fill="#2B2A25" transform="translate(0,0)"/>
<path d="" fill="#292924" transform="translate(0,0)"/>
<path d="" fill="#2C2D25" transform="translate(0,0)"/>
<path d="" fill="#2D2F25" transform="translate(0,0)"/>
<path d="" fill="#1E2219" transform="translate(0,0)"/>
<path d="" fill="#2C2E25" transform="translate(0,0)"/>
<path d="" fill="#2B2E26" transform="translate(0,0)"/>
<path d="" fill="#202119" transform="translate(0,0)"/>
<path d="" fill="#21261D" transform="translate(0,0)"/>
<path d="" fill="#1D1F18" transform="translate(0,0)"/>
<path d="" fill="#282821" transform="translate(0,0)"/>
<path d="" fill="#23231B" transform="translate(0,0)"/>
<path d="" fill="#23261F" transform="translate(0,0)"/>
<path d="" fill="#1C201B" transform="translate(0,0)"/>
<path d="" fill="#24271F" transform="translate(0,0)"/>
<path d="" fill="#23271E" transform="translate(0,0)"/>
<path d="" fill="#2C2F25" transform="translate(0,0)"/>
<path d="" fill="#262922" transform="translate(0,0)"/>
<path d="" fill="#232620" transform="translate(0,0)"/>
<path d="" fill="#282920" transform="translate(0,0)"/>
<path d="" fill="#232620" transform="translate(0,0)"/>
<path d="" fill="#1F2319" transform="translate(0,0)"/>
<path d="" fill="#272924" transform="translate(0,0)"/>
<path d="" fill="#24281D" transform="translate(0,0)"/>
<path d="" fill="#202219" transform="translate(0,0)"/>
<path d="" fill="#262420" transform="translate(0,0)"/>
<path d="" fill="#252721" transform="translate(0,0)"/>
<path d="" fill="#202319" transform="translate(0,0)"/>
<path d="" fill="#22251B" transform="translate(0,0)"/>
<path d="" fill="#272823" transform="translate(0,0)"/>
<path d="" fill="#23261C" transform="translate(0,0)"/>
<path d="" fill="#21251C" transform="translate(0,0)"/>
<path d="" fill="#22271C" transform="translate(0,0)"/>
<path d="" fill="#2C2D25" transform="translate(0,0)"/>
<path d="" fill="#2A2D23" transform="translate(0,0)"/>
<path d="" fill="#272B22" transform="translate(0,0)"/>
<path d="" fill="#252721" transform="translate(0,0)"/>
<path d="" fill="#262D22" transform="translate(0,0)"/>
<path d="" fill="#282C22" transform="translate(0,0)"/>
<path d="" fill="#282720" transform="translate(0,0)"/>
<path d="" fill="#20241B" transform="translate(0,0)"/>
<path d="" fill="#1E231B" transform="translate(0,0)"/>
<path d="" fill="#1E241A" transform="translate(0,0)"/>
<path d="" fill="#22231B" transform="translate(0,0)"/>
<path d="" fill="#272620" transform="translate(0,0)"/>
<path d="" fill="#20231A" transform="translate(0,0)"/>
<path d="" fill="#20241C" transform="translate(0,0)"/>
<path d="" fill="#262B21" transform="translate(0,0)"/>
<path d="" fill="#262922" transform="translate(0,0)"/>
<path d="" fill="#252920" transform="translate(0,0)"/>
<path d="" fill="#23271E" transform="translate(0,0)"/>
<path d="" fill="#2B2E24" transform="translate(0,0)"/>
<path d="" fill="#242820" transform="translate(0,0)"/>
<path d="" fill="#282821" transform="translate(0,0)"/>
<path d="" fill="#282A23" transform="translate(0,0)"/>
<path d="" fill="#232721" transform="translate(0,0)"/>
<path d="" fill="#242721" transform="translate(0,0)"/>
<path d="" fill="#23261E" transform="translate(0,0)"/>
<path d="" fill="#24251F" transform="translate(0,0)"/>
<path d="" fill="#252A1F" transform="translate(0,0)"/>
<path d="" fill="#24281F" transform="translate(0,0)"/>
<path d="" fill="#22261C" transform="translate(0,0)"/>
<path d="" fill="#22241B" transform="translate(0,0)"/>
<path d="" fill="#252722" transform="translate(0,0)"/>
<path d="" fill="#262922" transform="translate(0,0)"/>
<path d="" fill="#282A21" transform="translate(0,0)"/>
<path d="" fill="#292D22" transform="translate(0,0)"/>
<path d="" fill="#252621" transform="translate(0,0)"/>
<path d="" fill="#292B20" transform="translate(0,0)"/>
<path d="" fill="#21261E" transform="translate(0,0)"/>
<path d="" fill="#282B21" transform="translate(0,0)"/>
<path d="" fill="#25261F" transform="translate(0,0)"/>
<path d="" fill="#282A20" transform="translate(0,0)"/>
<path d="" fill="#22261F" transform="translate(0,0)"/>
<path d="" fill="#242A21" transform="translate(0,0)"/>
<path d="" fill="#25291E" transform="translate(0,0)"/>
<path d="" fill="#24271E" transform="translate(0,0)"/>
<path d="" fill="#272B21" transform="translate(0,0)"/>
<path d="" fill="#272720" transform="translate(0,0)"/>
<path d="" fill="#262621" transform="translate(0,0)"/>
<path d="" fill="#242622" transform="translate(0,0)"/>
<path d="" fill="#24271D" transform="translate(0,0)"/>
<path d="" fill="#25271F" transform="translate(0,0)"/>
<path d="" fill="#25261F" transform="translate(0,0)"/>
<path d="" fill="#242720" transform="translate(0,0)"/>
<path d="" fill="#262821" transform="translate(0,0)"/>
<path d="" fill="#26281F" transform="translate(0,0)"/>
<path d="" fill="#252722" transform="translate(0,0)"/>
<path d="" fill="#252821" transform="translate(0,0)"/>
<path d="" fill="#272821" transform="translate(0,0)"/>
<path d="" fill="#262920" transform="translate(0,0)"/>
<path d="" fill="#26261F" transform="translate(0,0)"/>
<path d="" fill="#272720" transform="translate(0,0)"/>
<path d="" fill="#282A21" transform="translate(0,0)"/>
<path d="" fill="#252920" transform="translate(0,0)"/>
<path d="" fill="#242622" transform="translate(0,0)"/>
<path d="" fill="#25251E" transform="translate(0,0)"/>
<path d="" fill="#242620" transform="translate(0,0)"/>
<path d="" fill="#24261F" transform="translate(0,0)"/>
<path d="" fill="#252621" transform="translate(0,0)"/>
<path d="" fill="#252821" transform="translate(0,0)"/>
<path d="" fill="#242420" transform="translate(0,0)"/>
<path d="" fill="#23281E" transform="translate(0,0)"/>
<path d="" fill="#242920" transform="translate(0,0)"/>
<path d="" fill="#23251E" transform="translate(0,0)"/>
<path d="" fill="#252B21" transform="translate(0,0)"/>
<path d="" fill="#25251D" transform="translate(0,0)"/>
<path d="" fill="#252822" transform="translate(0,0)"/>
<path d="" fill="#262922" transform="translate(0,0)"/>
<path d="" fill="#262922" transform="translate(0,0)"/>
<path d="" fill="#262721" transform="translate(0,0)"/>
<path d="" fill="#242921" transform="translate(0,0)"/>
<path d="" fill="#21241C" transform="translate(0,0)"/>
<path d="" fill="#22241E" transform="translate(0,0)"/>
<path d="" fill="#25251F" transform="translate(0,0)"/>
<path d="" fill="#262921" transform="translate(0,0)"/>
<path d="" fill="#21251C" transform="translate(0,0)"/>
<path d="" fill="#242922" transform="translate(0,0)"/>
<path d="" fill="#222620" transform="translate(0,0)"/>
<path d="" fill="#25291F" transform="translate(0,0)"/>
<path d="" fill="#1E1D18" transform="translate(0,0)"/>
<path d="" fill="#262A22" transform="translate(0,0)"/>
<path d="" fill="#262B24" transform="translate(0,0)"/>
<path d="" fill="#242A21" transform="translate(0,0)"/>
<path d="" fill="#252925" transform="translate(0,0)"/>
<path d="" fill="#23261E" transform="translate(0,0)"/>
<path d="" fill="#262A1F" transform="translate(0,0)"/>
<path d="" fill="#21271E" transform="translate(0,0)"/>
<path d="" fill="#282A23" transform="translate(0,0)"/>
<path d="" fill="#282923" transform="translate(0,0)"/>
<path d="" fill="#282D26" transform="translate(0,0)"/>
<path d="" fill="#282D24" transform="translate(0,0)"/>
<path d="" fill="#292B22" transform="translate(0,0)"/>
<path d="" fill="#2A2C25" transform="translate(0,0)"/>
<path d="" fill="#272C25" transform="translate(0,0)"/>
<path d="" fill="#242820" transform="translate(0,0)"/>
<path d="" fill="#25291F" transform="translate(0,0)"/>
<path d="" fill="#20291E" transform="translate(0,0)"/>
<path d="" fill="#22251D" transform="translate(0,0)"/>
<path d="" fill="#23281D" transform="translate(0,0)"/>
<path d="" fill="#21251D" transform="translate(0,0)"/>
<path d="" fill="#23281C" transform="translate(0,0)"/>
<path d="" fill="#22261C" transform="translate(0,0)"/>
<path d="" fill="#21251D" transform="translate(0,0)"/>
<path d="" fill="#22241B" transform="translate(0,0)"/>
<path d="" fill="#25291E" transform="translate(0,0)"/>
<path d="" fill="#252921" transform="translate(0,0)"/>
<path d="" fill="#242B20" transform="translate(0,0)"/>
<path d="" fill="#242A1F" transform="translate(0,0)"/>
<path d="" fill="#242820" transform="translate(0,0)"/>
<path d="" fill="#23251F" transform="translate(0,0)"/>
<path d="" fill="#222A1D" transform="translate(0,0)"/>
<path d="" fill="#242A1E" transform="translate(0,0)"/>
<path d="" fill="#222B1F" transform="translate(0,0)"/>
<path d="" fill="#252921" transform="translate(0,0)"/>
<path d="" fill="#21251C" transform="translate(0,0)"/>
<path d="" fill="#21291F" transform="translate(0,0)"/>
<path d="" fill="#23291D" transform="translate(0,0)"/>
<path d="" fill="#232920" transform="translate(0,0)"/>
<path d="" fill="#22281E" transform="translate(0,0)"/>
<path d="" fill="#1B1D16" transform="translate(0,0)"/>
<path d="" fill="#23271D" transform="translate(0,0)"/>
<path d="" fill="#24281E" transform="translate(0,0)"/>
<path d="" fill="#242A1F" transform="translate(0,0)"/>
<path d="" fill="#242A1F" transform="translate(0,0)"/>
<path d="" fill="#25281F" transform="translate(0,0)"/>
<path d="" fill="#252921" transform="translate(0,0)"/>
<path d="" fill="#23281D" transform="translate(0,0)"/>
<path d="" fill="#232A1F" transform="translate(0,0)"/>
<path d="" fill="#242A1F" transform="translate(0,0)"/>
<path d="" fill="#23271E" transform="translate(0,0)"/>
<path d="" fill="#1C2016" transform="translate(0,0)"/>
<path d="" fill="#252B20" transform="translate(0,0)"/>
<path d="" fill="#252B21" transform="translate(0,0)"/>
<path d="" fill="#191E16" transform="translate(0,0)"/>
<path d="" fill="#141810" transform="translate(0,0)"/>
<path d="" fill="#20231B" transform="translate(0,0)"/>
<path d="" fill="#1A2016" transform="translate(0,0)"/>
<path d="" fill="#181B13" transform="translate(0,0)"/>
<path d="" fill="#171B13" transform="translate(0,0)"/>
<path d="" fill="#171B14" transform="translate(0,0)"/>
<path d="" fill="#1F251B" transform="translate(0,0)"/>
<path d="" fill="#1D221A" transform="translate(0,0)"/>
<path d="" fill="#191C13" transform="translate(0,0)"/>
<path d="" fill="#1A1D16" transform="translate(0,0)"/>
<path d="" fill="#1B1F17" transform="translate(0,0)"/>
<path d="" fill="#181D15" transform="translate(0,0)"/>
<path d="" fill="#1D2018" transform="translate(0,0)"/>
<path d="" fill="#191D14" transform="translate(0,0)"/>
<path d="" fill="#191C15" transform="translate(0,0)"/>
<path d="" fill="#191D13" transform="translate(0,0)"/>
<path d="" fill="#1C2018" transform="translate(0,0)"/>
<path d="" fill="#1E221A" transform="translate(0,0)"/>
<path d="" fill="#1D2118" transform="translate(0,0)"/>
<path d="" fill="#1D2219" transform="translate(0,0)"/>
</svg>
