<svg xmlns="http://www.w3.org/2000/svg" viewBox="0 0 390 486" width="390" height="486"><defs></defs><g transform="matrix(1,0,0,1,-60.833358254,-12.691482211)">
<g>
	<g transform="matrix(0.458191222,0,0,0.458191222,-190.634820485,10.127100351)">
		<path d="M1243.2434901837946,1056.2707615279278 C1221.0684413556696,939.7058201216778 1173.7594813947321,769.0107517623028 1054.9414882306696,643.8117771529278 C1002.095418894732,588.1347751998028 939.332479441607,543.0157566451153 881.666463816607,492.3477878951153 C824.000448191607,441.67975810995915 770.072469675982,383.3707371138654 742.573446238482,311.70978740683415 C742.573446238482,311.70978740683415 752.3394374494195,439.19977764120915 904.5594081525445,569.6717625044903 C1038.6934413556696,684.6388035201153 1136.4694423322321,841.1877537154278 1156.6564540509821,1066.7547703169903 C1084.2404384259821,1070.4047947310528 1007.8094081525445,1062.6517429732403 948.658407175982,1044.6798191451153 C506.9634608869195,910.4567966841778 436.3224696759821,469.8568210982403 711.487508738482,5.5967502974591525 C729.3584804181695,94.57477764120915 813.604452097857,157.0737400435529 899.864461863482,192.3377781294904 C986.1494960431695,227.60175518027165 1080.3255214337946,244.64277080527165 1162.2814540509821,288.4897556685529 C1299.5874843244196,361.95075420370915 1388.3144130353571,508.8337498091778 1399.5025233869196,660.2857761763653 C1410.2504481916071,805.7967625044903 1349.6774501447321,953.5747166060528 1243.2434901837946,1056.2707615279278 C1243.2434901837946,1056.2707615279278 1243.2434901837946,1056.2707615279278 1243.2434901837946,1056.2707615279278 Z" fill="#3cab4a"/>
	</g>
</g></g></svg>