<?xml version="1.0" encoding="UTF-8"?>
<svg version="1.1" xmlns="http://www.w3.org/2000/svg" width="1024" height="1024">
<path d="M0 0 C0.90105469 -0.03738281 1.80210937 -0.07476562 2.73046875 -0.11328125 C12.45800501 1.23057357 18.48044593 8.46831072 24.98828125 15.1328125 C26.04487503 16.1994253 27.10244338 17.26507348 28.16093445 18.32980347 C30.92875756 21.11844065 33.68476677 23.9184525 36.43792725 26.72155762 C40.85818114 31.21745205 45.29754239 35.69450468 49.73464012 40.17376328 C51.27938118 41.73616773 52.81980637 43.30272288 54.35945129 44.87014771 C55.30379265 45.8277069 56.24818193 46.78521883 57.19262695 47.74267578 C58.01455032 48.57888458 58.83647369 49.41509338 59.68330383 50.27664185 C61.83831186 52.45544522 61.83831186 52.45544522 64.8125 54.3125 C64.8125 54.9725 64.8125 55.6325 64.8125 56.3125 C65.4725 56.3125 66.1325 56.3125 66.8125 56.3125 C67.616875 57.3334375 67.616875 57.3334375 68.4375 58.375 C70.42499878 60.83322218 72.23417013 62.60874889 74.625 64.625 C77.42280012 67.00984069 79.88070937 69.43991111 82.25 72.25 C85.4632032 76.05278177 89.03509112 79.23439845 92.796875 82.484375 C95.09015261 84.56432446 96.94566609 86.84827923 98.8125 89.3125 C99.4725 89.6425 100.1325 89.9725 100.8125 90.3125 C100.8125 90.9725 100.8125 91.6325 100.8125 92.3125 C101.4725 92.3125 102.1325 92.3125 102.8125 92.3125 C104.52480248 93.93224559 106.18413262 95.6083946 107.8125 97.3125 C108.740625 98.240625 109.66875 99.16875 110.625 100.125 C111.346875 100.846875 112.06875 101.56875 112.8125 102.3125 C117.66197884 100.73103941 122.46978572 99.08767434 127.24609375 97.296875 C153.97806342 87.3058683 181.71075087 79.90723225 210.1171875 76.671875 C212.90498519 76.3861562 212.90498519 76.3861562 215.8125 75.3125 C217.50714453 75.16342092 219.20643724 75.06451332 220.90625 74.99609375 C221.9267041 74.95403809 222.9471582 74.91198242 223.99853516 74.86865234 C225.09214355 74.82949707 226.18575195 74.7903418 227.3125 74.75 C228.44091309 74.7082666 229.56932617 74.6665332 230.73193359 74.62353516 C240.43291791 74.28693394 250.10752546 74.12805447 259.8125 74.3125 C260.65329102 74.32506836 261.49408203 74.33763672 262.36035156 74.35058594 C309.39210598 75.20066191 355.20818508 86.68607345 397.8125 106.3125 C398.69856934 106.71597656 399.58463867 107.11945313 400.49755859 107.53515625 C434.53230907 123.08710511 465.32978331 144.10634281 493.8125 168.3125 C494.69760254 169.06442627 494.69760254 169.06442627 495.60058594 169.83154297 C497.59246146 171.52827052 499.57860632 173.23144833 501.5625 174.9375 C502.48458252 175.7277356 502.48458252 175.7277356 503.42529297 176.53393555 C507.17452021 179.78275985 510.7300756 183.16086811 514.19433594 186.71240234 C515.83604976 188.33578683 517.5442963 189.82887345 519.3125 191.3125 C525.59806461 196.72129626 531.32379046 202.74751929 537.15332031 208.63696289 C540.60042887 212.1180556 544.07401855 215.57206081 547.5546875 219.01953125 C548.93234395 220.3879682 550.30994694 221.75645897 551.6875 223.125 C552.71037109 224.13530273 552.71037109 224.13530273 553.75390625 225.16601562 C557.73916777 229.13229971 561.53442714 233.19799063 565.20458984 237.45727539 C567.47117214 240.07248323 569.82867296 242.59262563 572.1875 245.125 C577.29864536 250.66891903 582.18349602 256.3557972 586.8125 262.3125 C587.43640625 263.1065625 588.0603125 263.900625 588.703125 264.71875 C591.66137913 268.75524629 593.83227221 272.15051877 593.39453125 277.28125 C591.50156613 283.88757122 586.22400649 289.16415214 581.72265625 294.16015625 C579.56005826 296.59694866 577.49669104 299.10025272 575.4375 301.625 C574.68597656 302.54539062 573.93445313 303.46578125 573.16015625 304.4140625 C571.53317676 306.422746 569.91618353 308.43693515 568.30859375 310.4609375 C567.50550781 311.46382812 566.70242188 312.46671875 565.875 313.5 C565.14410156 314.42167969 564.41320312 315.34335937 563.66015625 316.29296875 C563.05042969 316.95941406 562.44070313 317.62585938 561.8125 318.3125 C561.1525 318.3125 560.4925 318.3125 559.8125 318.3125 C559.41744263 319.18974731 559.41744263 319.18974731 559.0144043 320.0847168 C557.75870677 322.41220815 556.39804631 324.04150152 554.58203125 325.95703125 C553.94330078 326.63443359 553.30457031 327.31183594 552.64648438 328.00976562 C551.97939453 328.70779297 551.31230469 329.40582031 550.625 330.125 C549.97724609 330.81142578 549.32949219 331.49785156 548.66210938 332.20507812 C544.45275754 336.64991818 540.15963202 341.00275118 535.8125 345.3125 C533.04214402 348.07426573 530.28580991 350.84786369 527.55078125 353.64453125 C526.40891694 354.80474929 525.26698901 355.96490471 524.125 357.125 C523.54427734 357.72248047 522.96355469 358.31996094 522.36523438 358.93554688 C520.88524424 360.43264673 519.35267218 361.87738731 517.8125 363.3125 C517.1525 363.3125 516.4925 363.3125 515.8125 363.3125 C515.4825 364.3025 515.1525 365.2925 514.8125 366.3125 C513.4921875 367.6796875 513.4921875 367.6796875 511.6875 369.1875 C510.96304688 369.80109375 510.23859375 370.4146875 509.4921875 371.046875 C508.60789062 371.79453125 507.72359375 372.5421875 506.8125 373.3125 C505.70921061 374.27406383 504.60777755 375.23776011 503.5078125 376.203125 C482.6184295 394.51412906 460.8408567 412.23671708 436.8125 426.3125 C438.23859159 429.67452939 439.95598515 431.54925579 442.75 433.875 C448.06740943 438.33764828 448.06740943 438.33764828 449.8125 440.3125 C449.8125 440.9725 449.8125 441.6325 449.8125 442.3125 C450.39676758 442.57224609 450.98103516 442.83199219 451.58300781 443.09960938 C453.96811164 444.397156 455.56440637 445.80591122 457.484375 447.71875 C458.14824219 448.38003906 458.81210937 449.04132813 459.49609375 449.72265625 C460.17800781 450.41230469 460.85992188 451.10195313 461.5625 451.8125 C462.60857422 452.84697266 462.60857422 452.84697266 463.67578125 453.90234375 C464.33449219 454.56363281 464.99320313 455.22492188 465.671875 455.90625 C466.27483398 456.51146484 466.87779297 457.11667969 467.49902344 457.74023438 C468.8125 459.3125 468.8125 459.3125 468.8125 461.3125 C469.36187729 461.53786942 469.91125458 461.76323883 470.47727966 461.99543762 C473.49105266 463.69520315 475.7520041 465.95695461 478.17602539 468.38549805 C478.69848343 468.90123886 479.22094147 469.41697968 479.75923157 469.948349 C481.48153884 471.65168883 483.19623251 473.36244617 484.91015625 475.07421875 C486.10779884 476.26543195 487.30559057 477.45649522 488.50352478 478.64741516 C491.01284551 481.14476582 493.51800226 483.64621149 496.02075195 486.15014648 C499.22062654 489.3502241 502.43402404 492.53633399 505.65117741 495.71902752 C508.12966715 498.17522391 510.59895643 500.6405142 513.06579399 503.10840797 C514.24626642 504.28652757 515.42996673 505.46142237 516.61699104 506.63294029 C518.2804946 508.27673778 519.93071699 509.9328634 521.57836914 511.5925293 C522.31017395 512.30747559 522.31017395 512.30747559 523.0567627 513.03686523 C527.529547 517.59253323 530.23919274 522.75483612 530.25 529.25 C530.00022934 536.10828603 527.56349209 540.96732545 522.5625 545.625 C517.63392939 549.46299328 512.76346804 551.66456896 506.4375 551.375 C495.90577217 549.64078753 488.80755419 541.73078436 481.8125 534.3125 C479.42156497 531.89935814 477.01429086 529.50795188 474.57421875 527.14453125 C473.88972656 526.47808594 473.20523438 525.81164062 472.5 525.125 C471.80261719 524.45082031 471.10523438 523.77664063 470.38671875 523.08203125 C468.8125 521.3125 468.8125 521.3125 468.8125 519.3125 C467.4925 518.6525 466.1725 517.9925 464.8125 517.3125 C464.8125 516.6525 464.8125 515.9925 464.8125 515.3125 C463.4925 514.6525 462.1725 513.9925 460.8125 513.3125 C460.8125 512.6525 460.8125 511.9925 460.8125 511.3125 C460.23274414 511.05726563 459.65298828 510.80203125 459.05566406 510.5390625 C456.58234688 509.18665223 454.91647891 507.67517476 452.921875 505.6875 C452.21289062 504.98109375 451.50390625 504.2746875 450.7734375 503.546875 C450.04382813 502.80953125 449.31421875 502.0721875 448.5625 501.3125 C447.81742188 500.57515625 447.07234375 499.8378125 446.3046875 499.078125 C445.24894531 498.01851562 445.24894531 498.01851562 444.171875 496.9375 C443.52702148 496.29039062 442.88216797 495.64328125 442.21777344 494.9765625 C440.8125 493.3125 440.8125 493.3125 440.8125 491.3125 C440.22649521 491.05181229 439.64049042 490.79112457 439.03672791 490.52253723 C436.66980675 489.2348712 435.11939491 487.86052058 433.22485352 485.9519043 C432.54056778 485.2674675 431.85628204 484.5830307 431.15126038 483.87785339 C430.42200851 483.13827896 429.69275665 482.39870453 428.94140625 481.63671875 C427.80239113 480.49345879 427.80239113 480.49345879 426.6403656 479.32710266 C424.21384022 476.88939176 421.79434791 474.44483244 419.375 472 C417.74981053 470.3647755 416.12416455 468.73000458 414.49804688 467.09570312 C411.50570083 464.08703432 408.51600447 461.07578713 405.52954102 458.0612793 C404.56396774 457.09066055 404.56396774 457.09066055 403.57888794 456.10043335 C402.47998418 454.98812578 401.38897388 453.86789094 400.31051636 452.73574829 C398.12160074 450.45560875 396.87736408 449.33412136 393.8125 448.3125 C391.69777065 448.95719758 391.69777065 448.95719758 389.4375 450.0859375 C388.54933594 450.49416748 387.66117188 450.90239746 386.74609375 451.32299805 C385.77800781 451.77328369 384.80992187 452.22356934 383.8125 452.6875 C308.49170104 486.37832198 219.31474095 487.44293633 141.8125 460.3125 C141.16845215 460.09303711 140.5244043 459.87357422 139.86083984 459.64746094 C112.88411417 450.4002666 86.6067415 436.972651 62.8125 421.3125 C61.73742187 420.61382813 60.66234375 419.91515625 59.5546875 419.1953125 C42.73260209 408.13834076 26.62858031 395.85574458 11.40722656 382.68505859 C9.7681382 381.27431842 8.11632056 379.87985254 6.4609375 378.48828125 C-6.8772312 367.24267163 -19.39866157 355.18661854 -31.75 342.875 C-32.678125 341.95154785 -33.60625 341.0280957 -34.5625 340.07666016 C-48.55697062 326.04918371 -48.55697062 326.04918371 -51.1875 320.3125 C-51.8475 320.3125 -52.5075 320.3125 -53.1875 320.3125 C-54.56241299 318.80462839 -55.86114462 317.22710239 -57.125 315.625 C-57.929375 314.61824219 -58.73375 313.61148437 -59.5625 312.57421875 C-59.99046875 312.03845215 -60.4184375 311.50268555 -60.859375 310.95068359 C-62.61644824 308.78341126 -64.42781306 306.66578427 -66.24438477 304.54833984 C-86.43257016 280.9936719 -86.43257016 280.9936719 -86.1015625 273.3203125 C-84.36001411 265.52616968 -77.86202691 259.70385528 -72.67675781 253.96337891 C-72.18530273 253.41858887 -71.69384766 252.87379883 -71.1875 252.3125 C-70.4464502 251.49338135 -70.4464502 251.49338135 -69.69042969 250.65771484 C-66.78028608 247.47528217 -66.78028608 247.47528217 -66.1875 243.3125 C-64.54416496 242.27460419 -62.87506133 241.27682076 -61.1875 240.3125 C-60.5275 239.3225 -59.8675 238.3325 -59.1875 237.3125 C-58.5275 237.3125 -57.8675 237.3125 -57.1875 237.3125 C-56.85298828 236.50039063 -56.85298828 236.50039063 -56.51171875 235.671875 C-54.76517756 232.5600435 -52.43905135 230.13389378 -50 227.5625 C-49.47680176 227.00393311 -48.95360352 226.44536621 -48.41455078 225.86987305 C-47.27808708 224.65741229 -46.13965977 223.44678977 -44.99951172 222.23779297 C-43.12879865 220.25012883 -41.26851147 218.25312528 -39.41015625 216.25390625 C-21.64058754 197.16313803 -21.64058754 197.16313803 -12.05078125 188.95703125 C-9.5800507 186.7763655 -7.29737021 184.43501729 -4.9921875 182.08203125 C-2.37438081 179.5152208 0.40963625 177.15622868 3.2109375 174.79296875 C4.92360323 173.38465122 4.92360323 173.38465122 5.8125 171.3125 C6.50214844 170.90257812 7.19179688 170.49265625 7.90234375 170.0703125 C11.69516912 167.77934416 14.97031499 165.01241347 18.375 162.1875 C35.24800572 148.35751148 52.98732508 135.37400789 71.8125 124.3125 C67.70189775 119.41501885 63.4376109 114.78960725 58.91015625 110.27734375 C58.2693663 109.63559708 57.62857635 108.9938504 56.96836853 108.33265686 C55.62247411 106.98608658 54.27533467 105.64075964 52.92700195 104.29663086 C50.88052221 102.25550776 48.83943673 100.20910025 46.79882812 98.16210938 C45.48209131 96.84603345 44.16504429 95.5302678 42.84765625 94.21484375 C42.2463942 93.61155746 41.64513214 93.00827118 41.02565002 92.38670349 C37.52951801 88.9095483 33.94035404 85.66869416 30.09642029 82.57765198 C29.67272659 82.16015182 29.2490329 81.74265167 28.8125 81.3125 C28.8125 80.6525 28.8125 79.9925 28.8125 79.3125 C26.8325 78.3225 26.8325 78.3225 24.8125 77.3125 C24.8125 76.6525 24.8125 75.9925 24.8125 75.3125 C22.8325 74.3225 22.8325 74.3225 20.8125 73.3125 C20.8125 72.6525 20.8125 71.9925 20.8125 71.3125 C19.3275 70.8175 19.3275 70.8175 17.8125 70.3125 C16.453125 68.89453125 16.453125 68.89453125 15.0625 67.125 C12.96755369 64.57891427 10.86075883 62.40410183 8.3125 60.3125 C5.30288271 57.82658264 2.82253434 55.15032343 0.3671875 52.12109375 C-2.53242506 48.74792637 -5.77356079 45.71078604 -8.9765625 42.62890625 C-9.91242188 41.72011719 -10.84828125 40.81132812 -11.8125 39.875 C-12.75351563 38.96878906 -13.69453125 38.06257813 -14.6640625 37.12890625 C-19.70187675 31.50620644 -21.50571243 25.76305989 -21.1875 18.3125 C-19.72695228 10.94387202 -16.32496091 6.90174264 -10.30859375 2.58984375 C-6.8629492 0.51484233 -3.9505581 0.10586827 0 0 Z M149.8125 139.3125 C151.37627499 142.63552186 153.02603151 144.87434007 155.8125 147.3125 C156.4725 147.3125 157.1325 147.3125 157.8125 147.3125 C158.080625 147.951875 158.34875 148.59125 158.625 149.25 C159.69917752 151.64381686 159.69917752 151.64381686 162.8125 152.3125 C162.8125 152.9725 162.8125 153.6325 162.8125 154.3125 C163.4725 154.3125 164.1325 154.3125 164.8125 154.3125 C165.06870117 154.90675781 165.32490234 155.50101563 165.58886719 156.11328125 C166.93212311 158.527497 168.2582456 159.76147225 170.390625 161.5 C173.48557145 164.11686529 176.36289456 166.82765264 179.171875 169.75 C179.89503906 170.49894531 180.61820312 171.24789062 181.36328125 172.01953125 C182.85254228 173.57227765 184.33411676 175.13242667 185.80859375 176.69921875 C186.52660156 177.43785156 187.24460937 178.17648437 187.984375 178.9375 C188.6247168 179.61039062 189.26505859 180.28328125 189.92480469 180.9765625 C191.70082535 182.53814877 191.70082535 182.53814877 193.80712891 182.14160156 C195.83012377 181.30521362 197.7798767 180.42395039 199.7265625 179.421875 C214.74668435 171.8772055 229.10825412 167.31783391 245.84765625 165.671875 C248.69452194 165.63610529 248.69452194 165.63610529 249.8125 164.3125 C264.78697859 164.82102746 279.86872115 166.72283702 293.8125 172.3125 C294.46573242 172.56515625 295.11896484 172.8178125 295.79199219 173.078125 C325.93988345 184.83191347 348.90266678 207.22301879 362.01953125 236.78515625 C371.95291034 260.69377212 372.49786476 287.51018126 365.8125 312.3125 C365.53962158 313.33609619 365.53962158 313.33609619 365.26123047 314.38037109 C362.97453973 322.64638008 359.67353344 330.04394623 355.31542969 337.3918457 C353.30691643 340.78927954 353.30691643 340.78927954 352.99609375 344.62890625 C353.98301273 346.66413151 355.04809698 347.90097759 356.8125 349.3125 C357.4725 349.3125 358.1325 349.3125 358.8125 349.3125 C359.1425 350.3025 359.4725 351.2925 359.8125 352.3125 C360.4725 352.3125 361.1325 352.3125 361.8125 352.3125 C362.1425 353.3025 362.4725 354.2925 362.8125 355.3125 C366.39373257 359.15230532 370.31279395 362.64760305 374.1875 366.1875 C387.25377057 378.19504113 387.25377057 378.19504113 388.8125 381.3125 C389.4725 381.3125 390.1325 381.3125 390.8125 381.3125 C391.1425 382.3025 391.4725 383.2925 391.8125 384.3125 C395.90440724 382.94853092 396.95412154 380.24856578 399 376.6875 C399.39364746 376.01307861 399.78729492 375.33865723 400.19287109 374.64379883 C401.41176676 372.54018929 402.61369078 370.42760913 403.8125 368.3125 C404.17069824 367.68939941 404.52889648 367.06629883 404.89794922 366.42431641 C416.5171641 346.10575536 424.64003765 322.6870949 426.8125 299.3125 C426.87808105 298.6225293 426.94366211 297.93255859 427.01123047 297.22167969 C430.04953684 263.02069623 423.92842887 220.59822667 402.8125 192.3125 C402.1525 192.3125 401.4925 192.3125 400.8125 192.3125 C400.7403125 191.62542969 400.668125 190.93835938 400.59375 190.23046875 C399.58450497 186.46093858 397.59758327 183.71723296 395.3125 180.625 C394.64408081 179.70569702 394.64408081 179.70569702 393.9621582 178.76782227 C388.51775916 171.39337269 382.37161007 164.70763232 375.8125 158.3125 C374.95205078 157.384375 374.95205078 157.384375 374.07421875 156.4375 C363.30756389 145.08283575 350.39988504 136.48883424 336.60546875 129.25585938 C335.00729615 128.41499079 333.42433435 127.54535582 331.84375 126.671875 C274.2858954 95.9527953 203.34505635 105.05057826 149.8125 139.3125 Z M93.8125 154.3125 C91.05696132 155.77022917 88.45087726 157.28727489 85.8125 158.9375 C85.01231445 159.43314453 84.21212891 159.92878906 83.38769531 160.43945312 C53.56409739 179.17105198 27.18875052 202.72512977 2.39892578 227.59570312 C0.4220399 229.57800244 -1.56021039 231.55482633 -3.54296875 233.53125 C-9.63762019 239.62270602 -15.62969533 245.72020591 -21.1875 252.3125 C-22.64195517 253.92018373 -24.09970895 255.52489715 -25.5625 257.125 C-34.21087674 265.88875152 -34.21087674 265.88875152 -40.1875 276.3125 C-38.71080958 278.6642727 -38.71080958 278.6642727 -36.5 281.125 C-35.67371094 282.09695313 -34.84742188 283.06890625 -33.99609375 284.0703125 C-33.31716064 284.85390137 -33.31716064 284.85390137 -32.62451172 285.65332031 C-31.12645104 287.38298738 -29.64224999 289.12382572 -28.16015625 290.8671875 C-25.18424016 294.36196199 -22.18827344 297.83906927 -19.1875 301.3125 C-18.12595703 302.54613281 -18.12595703 302.54613281 -17.04296875 303.8046875 C-13.88072468 307.45608043 -10.60929589 310.89936915 -7.1875 314.3125 C-6.18333516 315.32095148 -5.17969474 316.32992535 -4.17651367 317.33935547 C-1.21573096 320.31802145 1.74816654 323.29356697 4.71313477 326.26806641 C5.98324662 327.54320616 7.25245939 328.81924211 8.52075195 330.09619141 C15.10816573 336.72724177 21.6796677 343.26270877 28.8125 349.3125 C30.52517321 350.89113792 32.23397024 352.47399958 33.9375 354.0625 C40.28717558 359.84446043 46.98904006 365.10424675 53.8125 370.3125 C54.46976074 370.81604004 55.12702148 371.31958008 55.80419922 371.83837891 C64.27838347 378.31648521 72.8403363 384.53497034 81.8125 390.3125 C82.1425 389.6525 82.4725 388.9925 82.8125 388.3125 C81.419703 385.79073979 79.96808905 383.37405969 78.4375 380.9375 C66.98287835 362.07178077 59.8459535 342.13947503 55.3125 320.625 C55.08691406 319.57376953 54.86132812 318.52253906 54.62890625 317.43945312 C44.36740954 268.65180455 55.86678061 216.99753531 81.875 174.98046875 C86.28986914 168.26331434 91.03122285 161.77231062 95.8125 155.3125 C94.8225 154.8175 94.8225 154.8175 93.8125 154.3125 Z M413.8125 155.3125 C413.4825 155.9725 413.1525 156.6325 412.8125 157.3125 C413.4725 157.3125 414.1325 157.3125 414.8125 157.3125 C415.08634521 157.88653564 415.36019043 158.46057129 415.64233398 159.05200195 C416.81261926 161.31273038 418.11452322 163.3690802 419.53515625 165.48046875 C438.67362105 194.20981907 451.62672058 224.81734172 455.8125 259.3125 C456.00972656 260.92318359 456.00972656 260.92318359 456.2109375 262.56640625 C460.45538345 304.72407884 449.36273593 349.19988856 426.46728516 384.77075195 C425.52754592 386.25126879 424.66175708 387.77828934 423.8125 389.3125 C424.1425 389.9725 424.4725 390.6325 424.8125 391.3125 C425.45574219 390.83941406 426.09898437 390.36632812 426.76171875 389.87890625 C431.76226338 386.2194492 436.79455188 382.64423562 441.9375 379.1875 C454.36260399 370.69826354 465.66965464 360.69389577 476.56640625 350.34765625 C478.84677614 348.18846487 481.18285029 346.11419302 483.5625 344.06518555 C487.54036387 340.59254478 491.32229265 336.96384387 495.05859375 333.234375 C495.7140065 332.58229065 496.36941925 331.9302063 497.04469299 331.25836182 C498.41985046 329.88822761 499.79369255 328.51677202 501.16625977 327.14404297 C503.23629215 325.07619339 505.31419673 323.01648475 507.39257812 320.95703125 C513.96162146 314.41525046 520.25495364 307.86721788 526.00756836 300.58740234 C528.32914309 297.66133264 530.8135569 294.9678671 533.375 292.25 C538.13320761 287.14921491 542.54991057 281.83310293 546.8125 276.3125 C544.00277516 271.8621084 540.87466769 268.0094165 537.25 264.1875 C536.18067603 263.04586653 535.11167288 261.90393248 534.04296875 260.76171875 C533.50462402 260.18856934 532.9662793 259.61541992 532.41162109 259.02490234 C530.4045257 256.87562492 528.42600077 254.70136259 526.44848633 252.52490234 C522.28515545 247.944285 518.03005084 243.49041147 513.6171875 239.1484375 C511.88613875 237.38741388 510.28425453 235.57024042 508.6875 233.6875 C501.36575125 225.18753881 493.22106828 217.18158103 484.65625 209.94140625 C482.49775715 208.0344327 480.5097958 206.00037139 478.5 203.9375 C474.45579545 199.8448204 470.16886684 196.21101805 465.6796875 192.6171875 C462.78608288 190.29126553 459.95609341 187.90144238 457.125 185.5 C443.78161877 174.39197903 429.49557199 162.93011514 413.8125 155.3125 Z M117.8125 173.3125 C116.02395611 175.44040862 114.37615814 177.56420057 112.75 179.8125 C112.26047852 180.48740479 111.77095703 181.16230957 111.26660156 181.85766602 C84.66202913 219.24822588 74.98016717 265.36776722 82.52539062 310.45507812 C88.30527643 342.79555542 101.87379334 370.16871146 122.8125 395.3125 C123.79283203 396.49585938 123.79283203 396.49585938 124.79296875 397.703125 C127.21179206 400.59289192 127.21179206 400.59289192 129.8125 403.3125 C130.4725 403.3125 131.1325 403.3125 131.8125 403.3125 C131.8125 403.9725 131.8125 404.6325 131.8125 405.3125 C133.32661115 406.8832864 133.32661115 406.8832864 135.3125 408.5 C139.70874092 412.21577928 139.70874092 412.21577928 141.59765625 413.9765625 C172.19345622 442.35332643 217.79354363 455.62886159 258.8125 454.3125 C262.05337993 454.12921836 265.27252586 453.84444444 268.5 453.5 C269.78064331 453.36525269 269.78064331 453.36525269 271.0871582 453.2277832 C298.52959077 450.20068864 324.33796466 442.1325681 347.8125 427.3125 C348.4219043 426.93029297 349.03130859 426.54808594 349.65917969 426.15429688 C355.45111333 422.52446797 355.45111333 422.52446797 360.8125 418.3125 C361.21440248 414.41781959 361.21440248 414.41781959 359.26950228 412.27040696 C358.53848563 411.53982505 357.80746898 410.80924313 357.05430031 410.05652237 C356.21603537 409.20905984 355.37777044 408.36159731 354.51410353 407.4884541 C353.57774923 406.56238693 352.64139493 405.63631976 351.67666626 404.68218994 C350.68316155 403.68551059 349.69053343 402.6879568 348.69871175 401.68960261 C345.96376184 398.94178819 343.21642544 396.20665422 340.46695757 393.47337699 C337.50673136 390.52627644 334.55801599 387.5676987 331.60786438 384.61051941 C325.82422929 378.8167871 320.02994623 373.03381677 314.23202707 367.2543827 C307.48667425 360.52976638 300.75175613 353.79474023 294.01725189 347.05926237 C282.00506978 335.04607836 269.98324227 323.04259294 257.95605469 311.04443359 C246.27333874 299.3899001 234.59765799 287.72837823 222.9296875 276.05908203 C222.21095237 275.34026699 221.49221724 274.62145195 220.75170226 273.88085464 C220.03423565 273.16330732 219.31676904 272.44576 218.57756102 271.70646882 C205.31055403 258.43808368 192.03698344 245.17628211 178.76033283 231.91754706 C174.05743641 227.22069417 169.35650515 222.52187977 164.65617752 217.82245636 C158.93240158 212.10004189 153.20487811 206.3814086 147.47258307 200.66752753 C144.54534931 197.74955481 141.61973929 194.83000154 138.69838524 191.90614128 C136.02808948 189.23366573 133.35327022 186.5658094 130.6746376 183.90169069 C129.70247456 182.93317334 128.73201783 181.96293986 127.76337917 180.99089769 C126.45429412 179.67772042 125.13853645 178.37120479 123.82238197 177.06511307 C122.72536994 175.97021431 122.72536994 175.97021431 121.60619605 174.85319638 C119.95373193 173.09530615 119.95373193 173.09530615 117.8125 173.3125 Z M276.375 231.01953125 C272.5905517 236.57320913 272.09026151 242.77740659 272.8125 249.3125 C274.98828088 256.6077653 279.5901462 262.29063095 286 266.3125 C293.1814838 268.19616788 301.10776757 268.51349156 308.00390625 265.40234375 C314.56049511 261.45139711 317.92920242 256.3209365 320.21484375 249.078125 C321.73108747 242.0617815 320.07987471 236.45456418 316.390625 230.390625 C311.76740517 224.30262264 306.23428079 221.50956142 298.8125 220.3125 C289.44529698 219.09069091 282.04363578 224.01373744 276.375 231.01953125 Z " fill="#929395" transform="translate(258.1875,236.6875)"/>
<path d="M0 0 C3.6231163 0.57795141 5.28139877 1.91843538 7.83129883 4.5065918 C8.93813774 5.61861214 8.93813774 5.61861214 10.06733704 6.75309753 C10.85593613 7.56031754 11.64453522 8.36753754 12.45703125 9.19921875 C13.27821945 10.02702347 14.09940765 10.85482819 14.94548035 11.7077179 C17.57499302 14.36066087 20.19417752 17.02351609 22.8125 19.6875 C25.42175699 22.33193581 28.03316555 24.97419322 30.64738464 27.61372375 C32.27346948 29.25664047 33.89644872 30.90263866 35.51582336 32.5521698 C39.84599623 36.93888445 44.2799761 41.03683673 49 45 C50.8203125 46.9765625 50.8203125 46.9765625 52.125 48.625 C54.50032636 51.50072845 57.01609397 53.74190895 60 56 C61.8125 57.625 61.8125 57.625 63 59 C63 59.66 63 60.32 63 61 C63.66 61 64.32 61 65 61 C66.35386936 62.65002828 67.68678142 64.3174387 69 66 C69.66 66.33 70.32 66.66 71 67 C71 67.66 71 68.32 71 69 C71.66 69 72.32 69 73 69 C73 69.66 73 70.32 73 71 C74.485 71.495 74.485 71.495 76 72 C76 72.66 76 73.32 76 74 C76.556875 74.20625 77.11375 74.4125 77.6875 74.625 C80.26133626 76.15538913 81.71053793 78.00890747 83.55664062 80.33113098 C85.04390309 82.05076248 86.59887191 83.43332244 88.34375 84.8894043 C94.61195773 90.30719319 100.3930464 96.22858984 106.25 102.08203125 C107.51644823 103.34526155 108.78296964 104.60841849 110.04956055 105.87150574 C112.68699216 108.50298416 115.32238413 111.13648591 117.95654297 113.77124023 C121.33882535 117.15362502 124.72798222 120.5290322 128.11886597 123.90279102 C130.72839461 126.50123987 133.33340491 129.10418158 135.93713379 131.70844078 C137.18591169 132.95603624 138.4363169 134.20200499 139.68835449 135.44632912 C141.42850354 137.17674246 143.16227586 138.91330106 144.89453125 140.65161133 C145.41495499 141.16641556 145.93537872 141.68121979 146.47157288 142.21162415 C150 145.77167201 150 145.77167201 150 148 C120.1598508 157.63490711 89.18709674 157.39178126 60.625 143.25 C48.68670524 137.03329817 37.54245362 129.52641588 28 120 C27.18144531 119.19304687 26.36289062 118.38609375 25.51953125 117.5546875 C11.0578663 102.5324929 1.37042602 83.29866116 -3 63 C-3.17732666 62.20819336 -3.35465332 61.41638672 -3.53735352 60.60058594 C-5.10971172 52.96761607 -5.34608773 45.52759423 -5.3125 37.75 C-5.30839111 35.83054565 -5.30839111 35.83054565 -5.30419922 33.87231445 C-5.20458266 24.87419085 -4.44042329 16.69028782 -2 8 C-1.60194422 6.35470277 -1.20572626 4.70895817 -0.8125 3.0625 C-0.544375 2.051875 -0.27625 1.04125 0 0 Z " fill="#929395" transform="translate(400,480)"/>
<path d="M0 0 C5.96199559 0.52326025 10.60816453 2.34336896 16 4.875 C16.86447754 5.27428711 17.72895508 5.67357422 18.61962891 6.08496094 C20.46761165 6.94173792 22.31342797 7.80320069 24.15722656 8.66894531 C26.98042811 9.99083597 29.81354456 11.28934339 32.6484375 12.5859375 C65.55198542 27.79298635 95.42068794 48.56160506 123 72 C123.59006836 72.50128418 124.18013672 73.00256836 124.78808594 73.51904297 C126.77996146 75.21577052 128.76610632 76.91894833 130.75 78.625 C131.36472168 79.15182373 131.97944336 79.67864746 132.61279297 80.22143555 C136.36202021 83.47025985 139.9175756 86.84836811 143.38183594 90.39990234 C145.02354976 92.02328683 146.7317963 93.51637345 148.5 95 C154.78556461 100.40879626 160.51129046 106.43501929 166.34082031 112.32446289 C169.78792887 115.8055556 173.26151855 119.25956081 176.7421875 122.70703125 C178.11984395 124.0754682 179.49744694 125.44395897 180.875 126.8125 C181.55691406 127.48603516 182.23882813 128.15957031 182.94140625 128.85351562 C186.92666777 132.81979971 190.72192714 136.88549063 194.39208984 141.14477539 C196.65867214 143.75998323 199.01617296 146.28012563 201.375 148.8125 C206.48614536 154.35641903 211.37099602 160.0432972 216 166 C216.62390625 166.7940625 217.2478125 167.588125 217.890625 168.40625 C220.84887913 172.44274629 223.01977221 175.83801877 222.58203125 180.96875 C220.68906613 187.57507122 215.41150649 192.85165214 210.91015625 197.84765625 C208.74755826 200.28444866 206.68419104 202.78775272 204.625 205.3125 C203.87347656 206.23289062 203.12195313 207.15328125 202.34765625 208.1015625 C200.72067676 210.110246 199.10368353 212.12443515 197.49609375 214.1484375 C196.69300781 215.15132812 195.88992188 216.15421875 195.0625 217.1875 C194.33160156 218.10917969 193.60070312 219.03085937 192.84765625 219.98046875 C192.23792969 220.64691406 191.62820313 221.31335938 191 222 C190.34 222 189.68 222 189 222 C188.79375 222.53625 188.5875 223.0725 188.375 223.625 C186.42003056 227.0017654 183.81776305 229.30474839 181 232 C180.34 231.67 179.68 231.34 179 231 C180.25103516 229.67548828 180.25103516 229.67548828 181.52734375 228.32421875 C187.47066394 221.99885964 193.25686796 215.63508953 198.6796875 208.8515625 C200.93118858 206.08456623 203.24915363 203.39264414 205.59448242 200.70556641 C215.03537119 191.00728761 215.03537119 191.00728761 219.625 178.875 C218.44627247 171.56688929 214.16778472 166.72471292 209.1875 161.5625 C208.10861458 160.41998842 207.03048489 159.27676273 205.953125 158.1328125 C205.43943359 157.59043945 204.92574219 157.04806641 204.39648438 156.48925781 C202.6973287 154.67722117 201.05921223 152.81900109 199.4375 150.9375 C192.95725701 143.46874536 186.28501081 136.19871403 179.25 129.25 C176.21540568 126.24969488 173.27055083 123.2455024 170.5 120 C164.21856552 112.66412808 157.23546768 105.94024635 149.89453125 99.67578125 C147.84198069 97.86022622 145.92253994 95.95240464 144 94 C140.16386427 90.11951588 136.13735476 86.55388166 132 83 C130.89505148 82.03214187 129.79095894 81.06330606 128.6875 80.09375 C109.63642497 63.39237515 89.75440748 48.03896909 68 35 C67.30519531 34.58121582 66.61039063 34.16243164 65.89453125 33.73095703 C45.88482171 21.69870683 25.24961683 10.70749777 3.16796875 2.9375 C1 2 1 2 0 0 Z " fill="#7C7C7C" transform="translate(629,333)"/>
<path d="M0 0 C0.66 0.33 1.32 0.66 2 1 C1.67 1.66 1.34 2.32 1 3 C0.16359823 8.00782324 0.54384221 11.94585096 3.3125 16.25 C7.02629546 21.27763819 11.12974778 26.0108116 15.2109375 30.7421875 C17.68326876 33.61224894 20.0678037 36.54434243 22.4375 39.5 C26.80581049 44.87215922 31.47627688 49.92278229 36.19921875 54.98046875 C39.05244962 58.04002632 41.80217409 61.18101842 44.53125 64.3515625 C45.94100038 65.93378234 47.41017208 67.40706816 48.9375 68.875 C51 71 51 71 51 73 C51.54495117 73.21825439 52.08990234 73.43650879 52.65136719 73.66137695 C55.77808587 75.44347659 58.08899801 77.8619838 60.578125 80.41796875 C61.10839294 80.95343826 61.63866089 81.48890778 62.18499756 82.04060364 C63.87817056 83.75153752 65.56452208 85.46898768 67.25 87.1875 C77.31339954 97.42382927 77.31339954 97.42382927 88 107 C89.13038894 107.98397636 90.25932928 108.96961967 91.38671875 109.95703125 C99.04601995 116.60204522 106.87519093 122.93218457 115 129 C115.71849121 129.53915039 116.43698242 130.07830078 117.17724609 130.63378906 C132.20042766 141.88939173 147.42715054 152.39800992 163.73583984 161.70703125 C165.2597315 162.5772631 166.78085348 163.45236108 168.29931641 164.33203125 C182.08565241 172.30014883 196.34826626 178.7902853 211 185 C212.41047875 185.60341337 213.82069079 186.20745115 215.23046875 186.8125 C216.14441406 187.204375 217.05835938 187.59625 218 188 C214.3058215 189.37026499 212.37422927 188.62314294 208.84375 187.04296875 C207.83119141 186.59493896 206.81863281 186.14690918 205.77539062 185.68530273 C204.69451172 185.19102783 203.61363281 184.69675293 202.5 184.1875 C201.38302734 183.68484619 200.26605469 183.18219238 199.11523438 182.66430664 C178.44077931 173.28570235 158.73127695 162.86134812 140 150 C138.78056153 149.18267749 137.56047285 148.36632453 136.33984375 147.55078125 C121.72040112 137.72235446 107.90672639 126.86689764 94.57861328 115.35644531 C92.94554274 113.95320684 91.30045391 112.56522062 89.65234375 111.1796875 C76.31374124 99.93163257 63.79022598 87.87550162 51.4375 75.5625 C50.509375 74.63904785 49.58125 73.7155957 48.625 72.76416016 C34.63052938 58.73668371 34.63052938 58.73668371 32 53 C31.34 53 30.68 53 30 53 C28.62508701 51.49212839 27.32635538 49.91460239 26.0625 48.3125 C25.258125 47.30574219 24.45375 46.29898438 23.625 45.26171875 C23.19703125 44.72595215 22.7690625 44.19018555 22.328125 43.63818359 C20.57105176 41.47091126 18.75968694 39.35328427 16.94311523 37.23583984 C-1.37256746 15.86592394 -1.37256746 15.86592394 -3 8 C-2.64025831 5.11644549 -2.12960105 2.12960105 0 0 Z " fill="#7D7C7C" transform="translate(175,504)"/>
<path d="M0 0 C3.53533523 1.5086316 5.80541235 3.55850275 8.50950623 6.26899719 C9.40809357 7.16483521 10.30668091 8.06067322 11.23249817 8.98365784 C12.22076553 9.97900321 13.20893675 10.97444404 14.19702148 11.9699707 C15.24324301 13.01675653 16.28990543 14.06310185 17.3369751 15.10903931 C20.17825606 17.9497461 23.01332384 20.79658175 25.84733081 23.64454293 C28.81627326 26.62599774 31.79088965 29.60178058 34.76490784 32.57817078 C40.40105625 38.22053842 46.03208918 43.86798282 51.66130453 49.51726645 C58.04969813 55.9279474 64.44370798 62.33301383 70.83822906 68.73758185 C81.77386878 79.69059662 92.7053238 90.64777311 103.63197327 101.60975647 C104.53338043 102.51405396 105.4347876 103.41835144 106.36351013 104.35005188 C107.14276069 105.13190007 107.92201124 105.91374826 108.72487545 106.71928883 C111.14787583 109.14823895 113.57359617 111.57445006 116 114 C136 134 156 154 176 174 C175.01 174.33 174.02 174.66 173 175 C150.95505457 153.00063773 128.9151966 130.99619421 106.88246724 108.9845979 C104.28382473 106.38845693 101.68513871 103.79235954 99.08642578 101.19628906 C98.56904943 100.67943733 98.05167307 100.16258559 97.51861864 99.63007168 C89.13108264 91.25124846 80.74002248 82.87596305 72.34766442 74.50197001 C63.74231827 65.91529869 55.14074754 57.32485913 46.54270124 48.73087823 C41.23318961 43.42411669 35.92072272 38.12034899 30.60448873 32.82032166 C26.53464688 28.76225894 22.47005437 24.69897185 18.40744972 20.63366508 C16.73537019 18.96213842 15.06155985 17.29234118 13.38594627 15.62435722 C11.10860249 13.35688045 8.83741596 11.08341512 6.56774902 8.80825806 C5.89461497 8.14094968 5.22148091 7.47364131 4.52794886 6.78611147 C0 2.22824242 0 2.22824242 0 0 Z " fill="#828081" transform="translate(417,448)"/>
<path d="M0 0 C-1.26031477 3.78094432 -2.88289348 4.74143725 -6 7.1875 C-9.63146295 10.08234837 -13.18392598 13.0061467 -16.625 16.125 C-20.92531965 19.97941656 -25.39601668 23.51681145 -30 27 C-31.16414653 27.89442189 -32.32820174 28.78896264 -33.4921875 29.68359375 C-44.88573219 38.38639608 -56.61886137 46.74714364 -69 54 C-67.57390841 57.36202939 -65.85651485 59.23675579 -63.0625 61.5625 C-57.74509057 66.02514828 -57.74509057 66.02514828 -56 68 C-56 68.66 -56 69.32 -56 70 C-55.41573242 70.25974609 -54.83146484 70.51949219 -54.22949219 70.78710938 C-51.84438836 72.084656 -50.24809363 73.49341122 -48.328125 75.40625 C-47.33232422 76.39818359 -47.33232422 76.39818359 -46.31640625 77.41015625 C-45.29353516 78.44462891 -45.29353516 78.44462891 -44.25 79.5 C-43.20392578 80.53447266 -43.20392578 80.53447266 -42.13671875 81.58984375 C-41.14865234 82.58177734 -41.14865234 82.58177734 -40.140625 83.59375 C-39.53766602 84.19896484 -38.93470703 84.80417969 -38.31347656 85.42773438 C-37 87 -37 87 -37 89 C-36.45062271 89.22536942 -35.90124542 89.45073883 -35.33522034 89.68293762 C-32.32144734 91.38270315 -30.0604959 93.64445461 -27.63647461 96.07299805 C-27.11401657 96.58873886 -26.59155853 97.10447968 -26.05326843 97.635849 C-24.33096116 99.33918883 -22.61626749 101.04994617 -20.90234375 102.76171875 C-19.70470116 103.95293195 -18.50690943 105.14399522 -17.30897522 106.33491516 C-14.79965449 108.83226582 -12.29449774 111.33371149 -9.79174805 113.83764648 C-6.59187346 117.0377241 -3.37847596 120.22383399 -0.16132259 123.40652752 C2.31716715 125.86272391 4.78645643 128.3280142 7.25329399 130.79590797 C8.43376642 131.97402757 9.61746673 133.14892237 10.80449104 134.32044029 C12.4679946 135.96423778 14.11821699 137.6203634 15.76586914 139.2800293 C16.49767395 139.99497559 16.49767395 139.99497559 17.2442627 140.72436523 C21.717047 145.28003323 24.42669274 150.44233612 24.4375 156.9375 C24.21809868 162.96189469 22.4323168 167.3544232 18.3515625 171.79296875 C15.12150387 174.76208378 12.53345312 176.72524527 8 177 C8.53625 176.608125 9.0725 176.21625 9.625 175.8125 C10.40875 175.214375 11.1925 174.61625 12 174 C13.010625 173.236875 14.02125 172.47375 15.0625 171.6875 C18.8832527 168.19191774 20.75971322 165.5897575 21.24609375 160.34765625 C21.47679444 150.23753784 18.30203714 145.70028992 11.45361328 138.5078125 C8.69890544 135.65039301 5.92152432 132.81649669 3.125 130 C2.56578857 129.43603516 2.00657715 128.87207031 1.43041992 128.29101562 C-0.95107962 125.91926596 -3.19450273 123.87033152 -6 122 C-6 121.34 -6 120.68 -6 120 C-6.54023804 119.78507904 -7.08047607 119.57015808 -7.63708496 119.34872437 C-10.84201976 117.51938493 -13.23586767 115.02599345 -15.80664062 112.42041016 C-16.37626022 111.85108261 -16.94587982 111.28175507 -17.53276062 110.69517517 C-19.41203743 108.81450674 -21.28413031 106.92685341 -23.15625 105.0390625 C-24.46330748 103.72827237 -25.7708091 102.41792497 -27.07873535 101.10800171 C-30.52081578 97.65828872 -33.95685263 94.20261659 -37.3916626 90.7456665 C-40.88120964 87.23571334 -44.37637021 83.73136032 -47.87109375 80.2265625 C-53.5187044 74.56137323 -59.16283872 68.89274812 -64.80253601 63.21968079 C-67.53079167 60.47553178 -70.26212724 57.73455531 -73 55 C-69.58979881 51.2147639 -65.72167688 48.78586973 -61.4375 46.125 C-42.89379892 34.36017498 -25.16236757 20.86592097 -9 6 C-2.34297521 0 -2.34297521 0 0 0 Z " fill="#7E7E7E" transform="translate(764,609)"/>
<path d="M0 0 C3.6231163 0.57795141 5.28139877 1.91843538 7.83129883 4.5065918 C8.93813774 5.61861214 8.93813774 5.61861214 10.06733704 6.75309753 C10.85593613 7.56031754 11.64453522 8.36753754 12.45703125 9.19921875 C13.27821945 10.02702347 14.09940765 10.85482819 14.94548035 11.7077179 C17.57499302 14.36066087 20.19417752 17.02351609 22.8125 19.6875 C25.42175699 22.33193581 28.03316555 24.97419322 30.64738464 27.61372375 C32.27346948 29.25664047 33.89644872 30.90263866 35.51582336 32.5521698 C39.84599623 36.93888445 44.2799761 41.03683673 49 45 C50.8203125 46.9765625 50.8203125 46.9765625 52.125 48.625 C54.50032636 51.50072845 57.01609397 53.74190895 60 56 C61.8125 57.625 61.8125 57.625 63 59 C63 59.66 63 60.32 63 61 C63.66 61 64.32 61 65 61 C66.35386936 62.65002828 67.68678142 64.3174387 69 66 C69.66 66.33 70.32 66.66 71 67 C71 67.66 71 68.32 71 69 C71.66 69 72.32 69 73 69 C73 69.66 73 70.32 73 71 C74.485 71.495 74.485 71.495 76 72 C76 72.66 76 73.32 76 74 C76.556875 74.20625 77.11375 74.4125 77.6875 74.625 C80.26133626 76.15538913 81.71053793 78.00890747 83.55664062 80.33113098 C85.04390309 82.05076248 86.59887191 83.43332244 88.34375 84.8894043 C94.61195773 90.30719319 100.3930464 96.22858984 106.25 102.08203125 C107.51644823 103.34526155 108.78296964 104.60841849 110.04956055 105.87150574 C112.68699216 108.50298416 115.32238413 111.13648591 117.95654297 113.77124023 C121.33882535 117.15362502 124.72798222 120.5290322 128.11886597 123.90279102 C130.72839461 126.50123987 133.33340491 129.10418158 135.93713379 131.70844078 C137.18591169 132.95603624 138.4363169 134.20200499 139.68835449 135.44632912 C141.42850354 137.17674246 143.16227586 138.91330106 144.89453125 140.65161133 C145.41495499 141.16641556 145.93537872 141.68121979 146.47157288 142.21162415 C150 145.77167201 150 145.77167201 150 148 C144.89665983 149.905247 140.53657294 151.42589023 135 151 C137.50248865 149.33167423 139.41149187 148.37618326 142.1875 147.375 C142.90292969 147.11460937 143.61835937 146.85421875 144.35546875 146.5859375 C144.89816406 146.39257812 145.44085937 146.19921875 146 146 C132.86881059 132.84547412 119.73477719 119.69379432 106.59733009 106.54551792 C100.49777256 100.44079903 94.3991574 94.33514419 88.30273438 88.22729492 C82.99052573 82.90513457 77.67657527 77.58472068 72.36050546 72.26641697 C69.54446303 69.44906826 66.72931444 66.63083902 63.91624832 63.81051826 C61.2705711 61.15807319 58.62257811 58.50796273 55.97276115 55.85965347 C54.99873779 54.88535413 54.02557644 53.91019218 53.05332756 52.93412209 C51.72947359 51.60531901 50.40226014 50.27986538 49.07485962 48.9546051 C47.9604119 47.8387747 47.9604119 47.8387747 46.82345009 46.70040226 C45.09911417 44.93167013 45.09911417 44.93167013 43 44 C43 43.34 43 42.68 43 42 C42.01 41.67 41.02 41.34 40 41 C38.79982577 39.61032458 37.60016995 38.21790674 36.4765625 36.765625 C32.74538571 32.30400619 28.35792042 28.46682607 24.0625 24.5625 C16.81589648 17.93256118 9.89713158 10.99019632 3 4 C2.01 4.66 1.02 5.32 0 6 C0 4.02 0 2.04 0 0 Z " fill="#807E7F" transform="translate(400,480)"/>
<path d="M0 0 C2.16898685 3.25348027 2.99732218 6.01210291 4.125 9.75 C8.67834076 23.94875657 16.61580204 38.71561392 27.296875 49.26953125 C29 51 29 51 29 53 C29.56589844 53.24363281 30.13179688 53.48726562 30.71484375 53.73828125 C33.42069951 55.23228366 35.33003495 57.05065948 37.5625 59.1875 C46.71416584 67.53756007 60.42193053 77.1627539 73 79 C73 79.66 73 80.32 73 81 C75.81119304 81.6520027 78.62375031 82.29670121 81.4375 82.9375 C82.22060547 83.11990234 83.00371094 83.30230469 83.81054688 83.49023438 C95.2421147 86.07762627 106.3929024 86.12464093 118.0625 86.0625 C119.70768093 86.0574758 121.35286335 86.05291452 122.99804688 86.04882812 C126.99873498 86.03789342 130.99935088 86.0206793 135 86 C132.19643837 88.80356163 129.90505461 88.62899508 126 89.125 C124.741875 89.29257812 123.48375 89.46015625 122.1875 89.6328125 C90.99446545 92.82160074 60.25897542 81.03083428 36.19140625 61.75 C33.70341943 59.57640777 31.33786857 57.33393938 29 55 C28.18144531 54.19304688 27.36289062 53.38609375 26.51953125 52.5546875 C14.74536013 40.32415316 0.50871955 19.98978763 -0.125 2.5625 C-0.08375 1.716875 -0.0425 0.87125 0 0 Z " fill="#7E7D7D" transform="translate(399,545)"/>
<path d="M0 0 C-0.80179687 0.51046875 -1.60359375 1.0209375 -2.4296875 1.546875 C-6.29666171 4.01551338 -10.14874789 6.50693162 -14 9 C-14.70608398 9.45487793 -15.41216797 9.90975586 -16.13964844 10.37841797 C-27.92364916 17.99257269 -39.07352556 26.20318081 -50 35 C-50.73669922 35.59103516 -51.47339844 36.18207031 -52.23242188 36.79101562 C-61.15693936 43.97301518 -69.78868593 51.37011045 -78.11303711 59.24047852 C-80.08798784 61.08204533 -82.08695122 62.89601557 -84.08691406 64.71032715 C-90.48356573 70.52578974 -96.6747484 76.51907859 -102.7746582 82.64428711 C-104.32584727 84.20089389 -105.88239392 85.75200171 -107.43945312 87.30273438 C-112.33429626 92.19500585 -117.13600605 97.11905339 -121.59277344 102.42114258 C-123.5117648 104.57418163 -125.67267297 106.30739852 -128 108 C-124.88112591 101.13847701 -119.03516921 95.97287548 -113.7265625 90.7578125 C-112.02295112 89.02336652 -110.44855962 87.22761453 -108.875 85.375 C-101.8101849 77.19384842 -93.99335828 69.53410766 -85.7578125 62.5390625 C-83.31612728 60.40123144 -81.07473929 58.08665785 -78.8046875 55.76953125 C-76.18688081 53.2027208 -73.40286375 50.84372868 -70.6015625 48.48046875 C-68.88889677 47.07215122 -68.88889677 47.07215122 -68 45 C-67.31035156 44.59007812 -66.62070312 44.18015625 -65.91015625 43.7578125 C-62.11733088 41.46684416 -58.84218501 38.69991347 -55.4375 35.875 C-8.29537487 -2.76512496 -8.29537487 -2.76512496 0 0 Z " fill="#7E7E7E" transform="translate(332,363)"/>
<path d="M0 0 C0.66 0.33 1.32 0.66 2 1 C5.60415722 17.85815476 3.43807171 36.53500921 -1 53 C-1.18191895 53.68239746 -1.36383789 54.36479492 -1.55126953 55.06787109 C-3.83796027 63.33388008 -7.13896656 70.73144623 -11.49707031 78.0793457 C-13.47217536 81.45150461 -13.47217536 81.45150461 -13.921875 85.25390625 C-12.83004257 87.3219109 -11.73291103 88.33365527 -9.875 89.75 C-7.22446862 91.89719815 -4.99422802 94.06621007 -2.8125 96.6875 C0.1989435 100.2347634 3.48969985 103.38471793 6.9375 106.5 C10.5918256 109.80425503 14.22835102 113.11591281 17.75 116.5625 C18.38421875 117.18253906 19.0184375 117.80257812 19.671875 118.44140625 C21 120 21 120 21 122 C21.66 122 22.32 122 23 122 C23.33 122.66 23.66 123.32 24 124 C24.66 124 25.32 124 26 124 C27.56379519 121.58754176 29.01883195 119.18334735 30.4375 116.6875 C31.22364846 115.3139845 32.01388988 113.94280196 32.80859375 112.57421875 C33.15720459 111.96151123 33.50581543 111.34880371 33.86499023 110.7175293 C35.0676684 108.89760223 36.41134601 107.48792257 38 106 C38 109.51445381 37.20263245 110.67267065 35.375 113.625 C34.83359375 114.5015625 34.2921875 115.378125 33.734375 116.28125 C31.21623757 120.22860056 28.63584413 124.13035649 26 128 C17.92942159 121.23882904 10.51286251 113.84569162 3.03613281 106.44116211 C1.33721725 104.76399816 -0.36794265 103.09313739 -2.07910156 101.4284668 C-4.5568044 99.01732558 -7.01455701 96.58738208 -9.46875 94.15234375 C-10.23940796 93.40951645 -11.01006592 92.66668915 -11.80407715 91.90135193 C-12.85142029 90.84984703 -12.85142029 90.84984703 -13.91992188 89.77709961 C-14.54056519 89.16676376 -15.1612085 88.55642792 -15.80065918 87.92759705 C-17 86 -17 86 -16.75598145 83.39112854 C-15.9935456 80.97958509 -15.06302745 79.09402293 -13.75 76.9375 C-2.9262374 58.06609834 0.34814686 38.66933841 0.125 17.3125 C0.11494678 15.62826055 0.10582508 13.94401527 0.09765625 12.25976562 C0.07583596 8.17303063 0.04143636 4.08658125 0 0 Z " fill="#7F7E7E" transform="translate(626,496)"/>
<path d="M0 0 C-0.680625 0.27972656 -1.36125 0.55945313 -2.0625 0.84765625 C-5.38016379 2.21972199 -8.6910858 3.60695765 -12 5 C-12.95495361 5.4014624 -12.95495361 5.4014624 -13.92919922 5.81103516 C-24.39080734 10.23022968 -34.81983884 14.79302283 -44.2421875 21.20703125 C-47 23 -47 23 -49 23 C-45.4365375 27.41190596 -41.77577229 31.21827514 -37.3203125 34.73828125 C-36.66675781 35.36283203 -36.66675781 35.36283203 -36 36 C-36 36.66 -36 37.32 -36 38 C-35.34 38 -34.68 38 -34 38 C-32.28341311 39.61520433 -30.62519857 41.29287224 -29 43 C-28.16718506 43.85899902 -27.33437012 44.71799805 -26.47631836 45.60302734 C-25.60628174 46.5048877 -24.73624512 47.40674805 -23.83984375 48.3359375 C-22.37619815 49.8363746 -20.91019514 51.33446388 -19.44311523 52.83154297 C-18.43312 53.86692319 -17.42762287 54.906709 -16.42651367 55.95068359 C-14.97171327 57.46591308 -13.50153246 58.96459583 -12.02734375 60.4609375 C-11.15843506 61.35603027 -10.28952637 62.25112305 -9.39428711 63.17333984 C-7.22921042 65.23056617 -7.22921042 65.23056617 -4.94799805 64.90625 C-4.30515869 64.6071875 -3.66231934 64.308125 -3 64 C-2.32694824 63.70561035 -1.65389648 63.4112207 -0.96044922 63.10791016 C-0.24904785 62.75519043 0.46235352 62.4024707 1.1953125 62.0390625 C2.39414062 61.45511719 2.39414062 61.45511719 3.6171875 60.859375 C5.26710313 60.047267 6.91558616 59.23224085 8.5625 58.4140625 C15.73391787 54.93145702 22.90207286 51.72224415 31 52 C30.505 52.99 30.505 52.99 30 54 C27.59375 54.7109375 27.59375 54.7109375 24.5 55.375 C17.61672191 57.01271752 11.86133689 59.40022181 5.6953125 62.84765625 C5.11579834 63.17088867 4.53628418 63.49412109 3.93920898 63.82714844 C2.2575141 64.77311646 0.58744066 65.73965505 -1.08203125 66.70703125 C-4 68 -4 68 -5.91210938 67.80834961 C-15.89563808 63.94311767 -25.34173839 50.77052287 -32.8125 43.25 C-34.12150787 41.93596186 -35.43075126 40.62215829 -36.74023438 39.30859375 C-39.13792914 36.90280914 -41.53427535 34.49569969 -43.92895508 32.08691406 C-46.61424891 29.38619322 -49.30556953 26.69160447 -52 24 C-47.73236802 20.35419863 -43.15230276 17.55188764 -38.3125 14.75 C-37.48468018 14.27054932 -36.65686035 13.79109863 -35.80395508 13.29711914 C-7.40274331 -2.84720897 -7.40274331 -2.84720897 0 0 Z " fill="#7F7F7F" transform="translate(457,353)"/>
<path d="M0 0 C3.3883025 3.29897994 6.47565331 6.68985028 9.4375 10.375 C14.94146254 18.10170316 14.94146254 18.10170316 22 24 C22 24.66 22 25.32 22 26 C22.59425781 26.26039063 23.18851562 26.52078125 23.80078125 26.7890625 C26.15202991 28.08371096 27.41243848 29.37647468 29.1875 31.375 C48.71428881 51.2248423 77.47987537 63.72456238 104.36132812 69.40380859 C105.21275391 69.58637207 106.06417969 69.76893555 106.94140625 69.95703125 C107.70138916 70.11147705 108.46137207 70.26592285 109.24438477 70.42504883 C109.82373779 70.61478271 110.40309082 70.8045166 111 71 C111.33 71.66 111.66 72.32 112 73 C105.98100576 73.34880964 101.09442903 72.12041566 95.375 70.3125 C94.4890918 70.03776855 93.60318359 69.76303711 92.69042969 69.47998047 C56.40862066 58.07505069 20.02062178 35.36770296 0 2 C0 1.34 0 0.68 0 0 Z " fill="#7F7F7F" transform="translate(368,616)"/>
<path d="M0 0 C3.38128354 1.6394102 5.60002779 3.55950465 7.96875 6.40234375 C12.37612077 11.52472011 17.13047763 16.28089787 21.9152832 21.0456543 C23.43491668 22.5599258 24.94912517 24.0794743 26.46289062 25.59960938 C31.273726 30.41368708 36.13380386 35.12096965 41.30786133 39.54858398 C43.64156983 41.55030048 45.87658325 43.6534056 48.125 45.75 C54.47467558 51.53196043 61.17654006 56.79174675 68 62 C68.65726074 62.50354004 69.31452148 63.00708008 69.99169922 63.52587891 C77.73300982 69.44373855 85.50639318 75.16140713 93.7421875 80.37890625 C96 82 96 82 98 85 C93.28522976 83.40423161 89.54132593 80.82679142 85.5 78 C84.7972998 77.51233154 84.09459961 77.02466309 83.37060547 76.5222168 C76.74688913 71.88950902 70.34160061 67.00918984 64 62 C63.175 61.35804688 62.35 60.71609375 61.5 60.0546875 C51.47389742 52.17232396 41.61091895 43.89884813 32.73046875 34.734375 C31.01339176 33.01342199 29.22962187 31.44579085 27.375 29.875 C23.24599164 26.31808316 19.37123181 22.51991274 15.5 18.6875 C14.86368652 18.06407715 14.22737305 17.4406543 13.57177734 16.79833984 C12.98090332 16.20875488 12.3900293 15.61916992 11.78125 15.01171875 C11.24564453 14.48022217 10.71003906 13.94872559 10.15820312 13.40112305 C9 12 9 12 9 10 C8.34 10 7.68 10 7 10 C5.2734375 8.3203125 5.2734375 8.3203125 3.375 6.125 C2.74335938 5.40570312 2.11171875 4.68640625 1.4609375 3.9453125 C0 2 0 2 0 0 Z " fill="#7D7D7E" transform="translate(244,544)"/>
<path d="M0 0 C0.33 0 0.66 0 1 0 C1.03996094 0.73863281 1.07992187 1.47726563 1.12109375 2.23828125 C2.64331992 17.02830588 15.45458079 26.7471446 25.50390625 36.734375 C26.79503903 38.02431193 28.08579824 39.31462288 29.37620544 40.60528564 C32.06338956 43.29091729 34.75386131 45.97319349 37.44702148 48.65283203 C40.88030449 52.06908426 44.30692595 55.49192423 47.7313242 58.91707993 C50.38975278 61.57523532 53.05078909 64.23076721 55.71269035 66.88544464 C56.97661809 68.14621586 58.23996365 69.40757102 59.50268745 70.66954803 C68.26664253 79.44363849 68.26664253 79.44363849 77.52476501 87.68878174 C79.63290925 89.56254236 81.24048478 91.80060597 83 94 C85.00008185 95.80007366 87.04620726 97.53939686 89.09375 99.28515625 C91.35792407 101.32198498 93.21056004 103.53952006 95 106 C91.52584911 105.41754067 89.89631591 104.26112722 87.4440918 101.76879883 C86.76626144 101.08751419 86.08843109 100.40622955 85.39006042 99.70429993 C84.66708267 98.96270126 83.94410492 98.2211026 83.19921875 97.45703125 C82.44461868 96.69581467 81.69001862 95.93459808 80.91255188 95.15031433 C78.49701537 92.71135674 76.09182691 90.26250455 73.6875 87.8125 C71.29224304 85.38204349 68.89482806 82.95377472 66.49458313 80.52824402 C65.00202935 79.0188824 63.51258354 77.50643889 62.02677917 75.99043274 C58.7880873 72.70575553 55.53917181 69.55861406 51.98754883 66.61206055 C51.00165771 65.75008057 50.0157666 64.88810059 49 64 C49 63.34 49 62.68 49 62 C47.68 61.34 46.36 60.68 45 60 C45 59.34 45 58.68 45 58 C43.68 57.34 42.36 56.68 41 56 C41 55.34 41 54.68 41 54 C40.01 53.67 39.02 53.34 38 53 C36.640625 51.58203125 36.640625 51.58203125 35.25 49.8125 C33.15505369 47.26641427 31.04825883 45.09160183 28.5 43 C25.49038271 40.51408264 23.01003434 37.83782343 20.5546875 34.80859375 C17.65507494 31.43542637 14.41393921 28.39828604 11.2109375 25.31640625 C10.27507812 24.40761719 9.33921875 23.49882812 8.375 22.5625 C7.43398437 21.65628906 6.49296875 20.75007813 5.5234375 19.81640625 C1.63543958 15.47701538 -0.29194634 11.49244928 -0.75 5.6875 C-0.82734375 4.82511719 -0.9046875 3.96273438 -0.984375 3.07421875 C-0.98953125 2.38972656 -0.9946875 1.70523438 -1 1 C-0.67 0.67 -0.34 0.34 0 0 Z " fill="#7B7A7A" transform="translate(238,254)"/>
<path d="M0 0 C1.66510666 -0.11019088 3.33245759 -0.18656089 5 -0.25 C6.3921875 -0.31960937 6.3921875 -0.31960937 7.8125 -0.390625 C17.60061562 0.80889897 23.65506189 8.14261652 30.17578125 14.8203125 C31.23237503 15.8869253 32.28994338 16.95257348 33.34843445 18.01730347 C36.11625756 20.80594065 38.87226677 23.6059525 41.62542725 26.40905762 C46.04568114 30.90495205 50.48504239 35.38200468 54.92214012 39.86126328 C56.46688118 41.42366773 58.00730637 42.99022288 59.54695129 44.55764771 C60.49129265 45.5152069 61.43568193 46.47271883 62.38012695 47.43017578 C63.20205032 48.26638458 64.02397369 49.10259338 64.87080383 49.96414185 C67.02581186 52.14294522 67.02581186 52.14294522 70 54 C70 54.66 70 55.32 70 56 C70.66 56 71.32 56 72 56 C72.53625 56.680625 73.0725 57.36125 73.625 58.0625 C75.61249878 60.52072218 77.42167013 62.29624889 79.8125 64.3125 C83.98125634 67.87798548 87.48330497 71.80291875 91 76 C92.14474279 77.33426974 93.29050829 78.66766302 94.4375 80 C95.283125 80.99 96.12875 81.98 97 83 C93.51968461 81.50819467 91.28810251 79.52572445 88.63378906 76.8449707 C87.77899963 75.98680252 86.92421021 75.12863434 86.04351807 74.24446106 C85.12681335 73.31429672 84.21010864 72.38413239 83.265625 71.42578125 C82.30453017 70.45840726 81.34291253 69.49155244 80.38079834 68.52519226 C77.84789622 65.9789987 75.32061109 63.42730879 72.79492188 60.8739624 C68.76860335 56.80453657 64.73570786 52.7416605 60.69927216 48.68227196 C59.30113744 47.27404991 57.90665347 45.86220622 56.51226807 44.45027161 C52.03718267 39.94149188 47.51615114 35.56962988 42.68206787 31.44596863 C40.30732486 29.40455047 38.11407199 27.31226624 36 25 C36 24.34 36 23.68 36 23 C35.12384033 22.61714844 35.12384033 22.61714844 34.22998047 22.2265625 C31.77613475 20.87686676 30.23991859 19.40746455 28.3203125 17.375 C27.63839844 16.66859375 26.95648438 15.9621875 26.25390625 15.234375 C24.83834756 13.74868771 23.42685689 12.25911343 22.01953125 10.765625 C16.58743784 5.15962276 12.48193652 3.01204891 4.625 2.375 C3.75101562 2.30023438 2.87703125 2.22546875 1.9765625 2.1484375 C0.99816406 2.07496094 0.99816406 2.07496094 0 2 C0 1.34 0 0.68 0 0 Z " fill="#7E7E7E" transform="translate(253,237)"/>
<path d="M0 0 C4.13019671 0.51461317 6.05627738 1.5622056 8.96411133 4.51000977 C10.07469658 5.6210482 10.07469658 5.6210482 11.2077179 6.75453186 C11.9912413 7.55870041 12.77476471 8.36286896 13.58203125 9.19140625 C14.39621017 10.01124496 15.2103891 10.83108368 16.04924011 11.67576599 C18.64653 14.29543919 21.22956521 16.9286794 23.8125 19.5625 C25.57134413 21.34140637 27.33109914 23.11941262 29.09179688 24.89648438 C33.40515381 29.25393483 37.70688984 33.62260535 42 38 C40.515 38.495 40.515 38.495 39 39 C38.33014572 38.32348389 38.33014572 38.32348389 37.64675903 37.63330078 C33.01350748 32.95593004 28.37333178 28.28551296 23.72900391 23.61914062 C21.99478037 21.87483628 20.26235294 20.12874434 18.53173828 18.38085938 C16.04925855 15.87422271 13.56046935 13.37400718 11.0703125 10.875 C10.29317902 10.08754395 9.51604553 9.30008789 8.71536255 8.48876953 C7.99476654 7.76802246 7.27417053 7.04727539 6.53173828 6.3046875 C5.89664337 5.66515137 5.26154846 5.02561523 4.60720825 4.36669922 C3.09768748 2.78406471 3.09768748 2.78406471 1 3 C-0.92218311 5.35413438 -2.69241037 7.70529593 -4.4375 10.1875 C-4.96593506 10.93620361 -5.49437012 11.68490723 -6.03881836 12.45629883 C-12.24741491 21.489756 -17.14044936 31.19564345 -22 41 C-22.60246484 42.20462709 -23.20526397 43.40908713 -23.80859375 44.61328125 C-24.20175781 45.40089844 -24.59492188 46.18851562 -25 47 C-26 44 -26 44 -24.62890625 40.69921875 C-23.95174267 39.35604806 -23.26205996 38.0191433 -22.5625 36.6875 C-22.19560059 35.9754541 -21.82870117 35.2634082 -21.45068359 34.52978516 C-20.31531551 32.3449661 -19.16160946 30.17096672 -18 28 C-17.66758301 27.37528809 -17.33516602 26.75057617 -16.99267578 26.10693359 C-12.02593191 16.85982402 -6.24197653 8.41643557 0 0 Z " fill="#7F7E7E" transform="translate(375,408)"/>
<path d="M0 0 C2.21613081 1.94145541 4.27003258 3.89143201 6.32910156 5.98852539 C7.2663205 6.9250872 7.2663205 6.9250872 8.22247314 7.88056946 C10.28571418 9.94590034 12.33812641 12.02165386 14.390625 14.09765625 C15.81914899 15.53177547 17.24833681 16.96523373 18.67816162 18.39805603 C22.43964854 22.17099733 26.19203955 25.95286103 29.94262695 29.7366333 C33.77141782 33.59611202 37.60871521 37.44711224 41.4453125 41.29882812 C48.97190652 48.85759679 56.48892155 56.42581567 64 64 C63.67 64.66 63.34 65.32 63 66 C57.95052004 61.78219909 53.17768642 57.30966492 48.5 52.6875 C47.95956055 52.15995117 47.41912109 51.63240234 46.86230469 51.08886719 C45.53486529 49.76484242 44.26222067 48.38633903 43 47 C43 46.34 43 45.68 43 45 C42.41399521 44.73931229 41.82799042 44.47862457 41.22422791 44.21003723 C38.85730675 42.9223712 37.30689491 41.54802058 35.41235352 39.6394043 C34.72806778 38.9549675 34.04378204 38.2705307 33.33876038 37.56535339 C32.60950851 36.82577896 31.88025665 36.08620453 31.12890625 35.32421875 C30.36956284 34.56204544 29.61021942 33.79987213 28.8278656 33.01460266 C26.40134022 30.57689176 23.98184791 28.13233244 21.5625 25.6875 C19.93731053 24.0522755 18.31166455 22.41750458 16.68554688 20.78320312 C13.69320083 17.77453432 10.70350447 14.76328713 7.71704102 11.7487793 C7.0733255 11.10170013 6.42960999 10.45462097 5.76638794 9.78793335 C4.66748418 8.67562578 3.57647388 7.55539094 2.49801636 6.42324829 C-0.74654337 3.04347025 -3.5311573 2.07868617 -8 1 C-4.88238263 -0.89283912 -3.43690768 -1.20883113 0 0 Z " fill="#807F7F" transform="translate(656,683)"/>
<path d="M0 0 C4.73020681 3.95156966 9.21299234 8.06429822 13.5625 12.4296875 C14.15748291 13.02371368 14.75246582 13.61773987 15.36547852 14.22976685 C16.61369554 15.47730842 17.86067099 16.72609339 19.10644531 17.97607422 C20.99173147 19.86670801 22.88228651 21.75195347 24.7734375 23.63671875 C41.02791186 39.87886124 41.02791186 39.87886124 42.984375 44.14794922 C43.91944248 46.35079719 43.91944248 46.35079719 47 47 C48.6484375 48.63671875 48.6484375 48.63671875 50.375 50.6875 C50.98214844 51.40292969 51.58929687 52.11835938 52.21484375 52.85546875 C52.80394531 53.56316406 53.39304687 54.27085937 54 55 C54.51691406 55.61488281 55.03382813 56.22976563 55.56640625 56.86328125 C56.7171727 58.23698821 57.85958928 59.61768397 59 61 C57.47675349 65.94354236 54.55726982 69.15211165 51.1875 72.9375 C50.13895907 74.13379577 49.09077851 75.33040751 48.04296875 76.52734375 C47.53556152 77.10339355 47.0281543 77.67944336 46.50537109 78.27294922 C44.29202746 80.81222798 42.14507759 83.40290976 40 86 C39.67 85.01 39.34 84.02 39 83 C39.556875 82.39414062 40.11375 81.78828125 40.6875 81.1640625 C46.03799629 75.28936219 51.10991041 69.26251255 56 63 C53.19027516 58.5496084 50.06216769 54.6969165 46.4375 50.875 C45.36817603 49.73336653 44.29917288 48.59143248 43.23046875 47.44921875 C42.69212402 46.87606934 42.1537793 46.30291992 41.59912109 45.71240234 C39.5920257 43.56312492 37.61350077 41.38886259 35.63598633 39.21240234 C31.47265545 34.631785 27.21755084 30.17791147 22.8046875 25.8359375 C21.07363875 24.07491388 19.47175453 22.25774042 17.875 20.375 C13.75172817 15.54681285 9.18162761 11.15974595 4.62255859 6.74755859 C4.02652832 6.16312988 3.43049805 5.57870117 2.81640625 4.9765625 C2.27443604 4.45143066 1.73246582 3.92629883 1.17407227 3.38525391 C0 2 0 2 0 0 Z " fill="#7E7D7E" transform="translate(748,450)"/>
<path d="M0 0 C2.86697492 1.28519565 4.97607712 2.57129254 7 5 C7 5.66 7 6.32 7 7 C7.57000732 7.24838623 8.14001465 7.49677246 8.72729492 7.75268555 C13.24375402 10.23142542 16.67203016 14.21728853 20.3125 17.8125 C21.16134766 18.62009766 22.01019531 19.42769531 22.88476562 20.25976562 C23.68205078 21.04673828 24.47933594 21.83371094 25.30078125 22.64453125 C26.40160034 23.71731323 26.40160034 23.71731323 27.5246582 24.81176758 C29 27 29 27 28.89306641 29.63183594 C27.58851266 33.09115015 25.06485703 34.53021475 22.0625 36.4375 C21.48072998 36.82220459 20.89895996 37.20690918 20.29956055 37.60327148 C18.54444562 38.75453272 16.77573596 39.88086403 15 41 C14.00484375 41.63164063 13.0096875 42.26328125 11.984375 42.9140625 C5.36167062 47 5.36167062 47 3 47 C2.67 47.99 2.34 48.98 2 50 C-0.06640625 50.73046875 -0.06640625 50.73046875 -2.5625 51.1875 C-3.38878906 51.34605469 -4.21507812 51.50460937 -5.06640625 51.66796875 C-5.70449219 51.77753906 -6.34257813 51.88710938 -7 52 C-7 51.34 -7 50.68 -7 50 C-5.91203125 49.443125 -4.8240625 48.88625 -3.703125 48.3125 C6.75448392 42.90293938 16.60351046 37.14045592 26 30 C24.40268802 26.00021731 21.59009274 23.36720518 18.5546875 20.4296875 C18.02481232 19.90738556 17.49493713 19.38508362 16.94900513 18.84695435 C15.26241038 17.18472687 13.56953406 15.52913075 11.875 13.875 C9.63755901 11.69057595 7.40669074 9.49974593 5.1796875 7.3046875 C4.66099091 6.80258759 4.14229431 6.30048767 3.60787964 5.78317261 C2.36707536 4.55966067 1.17806631 3.28403134 0 2 C0 1.34 0 0.68 0 0 Z " fill="#818080" transform="translate(593,624)"/>
<path d="M0 0 C4.23888409 1.50821718 7.87973659 3.67420393 11.625 6.125 C12.24109131 6.52533447 12.85718262 6.92566895 13.49194336 7.33813477 C19.13724622 11.036177 24.60912899 14.9397389 30 19 C31.02738281 19.77085937 32.05476562 20.54171875 33.11328125 21.3359375 C43.70989733 29.35128563 53.79832626 37.91991434 63.6328125 46.8515625 C67.39423419 50.26539407 71.19893086 53.6304532 75 57 C73.515 57.495 73.515 57.495 72 58 C71.33355469 57.31035156 70.66710937 56.62070312 69.98046875 55.91015625 C64.49644817 50.31875624 58.93215038 45.12179776 52.796875 40.234375 C49.92160675 37.93737299 47.11832006 35.5686554 44.3125 33.1875 C33.61302807 24.28046538 22.52247312 16.05719894 10.67114258 8.74047852 C6.57736727 6.17946476 3.27575962 3.55563034 0 0 Z " fill="#7E7C7D" transform="translate(671,390)"/>
<path d="M0 0 C4.66140809 0.51310276 7.80957071 2.60308399 11.5 5.3125 C12.10875977 5.7554541 12.71751953 6.1984082 13.34472656 6.65478516 C29.58753314 18.72146963 41.78538272 33.01853456 51 51 C51.81017578 52.57587891 51.81017578 52.57587891 52.63671875 54.18359375 C55.22423348 59.52914711 56.66387028 64.06170833 57 70 C55.38297837 67.57446756 54.42221595 65.74346776 53.40625 63.078125 C46.94804616 46.63265358 38.48346765 33.48346765 26 21 C25.13761719 20.13761719 24.27523437 19.27523438 23.38671875 18.38671875 C17.06629616 12.36593101 10.22179481 7.6135265 2.89453125 2.93359375 C1.93933594 2.29550781 0.98414063 1.65742188 0 1 C0 0.67 0 0.34 0 0 Z " fill="#7F7E7F" transform="translate(567,416)"/>
<path d="M0 0 C0 0.33 0 0.66 0 1 C-1.4080188 1.02187378 -1.4080188 1.02187378 -2.84448242 1.04418945 C-21.53646981 1.35538047 -39.97708402 2.09295937 -58.5546875 4.28125 C-65.35488444 5.08201692 -72.16787777 5.56393438 -79 6 C-76.64852819 3.64852819 -75.75309488 3.61690732 -72.53515625 3.18359375 C-71.65279297 3.05919922 -70.77042969 2.93480469 -69.86132812 2.80664062 C-68.4759082 2.62391602 -68.4759082 2.62391602 -67.0625 2.4375 C-65.24056494 2.188532 -63.41893421 1.93732394 -61.59765625 1.68359375 C-60.78820557 1.57587646 -59.97875488 1.46815918 -59.14477539 1.35717773 C-56.82390265 1.02801766 -56.82390265 1.02801766 -54 0 C-52.30535547 -0.14907908 -50.60606276 -0.24798668 -48.90625 -0.31640625 C-47.3739978 -0.37948975 -47.3739978 -0.37948975 -45.81079102 -0.44384766 C-44.71822998 -0.48300293 -43.62566895 -0.5221582 -42.5 -0.5625 C-41.38101318 -0.6042334 -40.26202637 -0.6459668 -39.10913086 -0.68896484 C-12.37283999 -1.62266754 -12.37283999 -1.62266754 0 0 Z " fill="#818181" transform="translate(528,312)"/>
<path d="M0 0 C0.66 0.33 1.32 0.66 2 1 C1.28714844 1.7734375 0.57429687 2.546875 -0.16015625 3.34375 C-1.12765456 4.39578699 -2.09509957 5.447873 -3.0625 6.5 C-3.52849609 7.0053125 -3.99449219 7.510625 -4.47460938 8.03125 C-7.0726552 10.85905497 -9.61721512 13.71844569 -12.11328125 16.63671875 C-16.68288355 21.87579319 -21.59364988 26.77970006 -26.50732422 31.69262695 C-28.13409136 33.32160371 -29.75265494 34.95845662 -31.37109375 36.59570312 C-32.41617723 37.64371746 -33.4617335 38.69126059 -34.5078125 39.73828125 C-34.9850174 40.22267166 -35.46222229 40.70706207 -35.95388794 41.20613098 C-38.75384925 43.987264 -41.53203975 46.11684341 -45 48 C-43.62786987 44.9181335 -42.06621101 42.82507205 -39.67114258 40.45996094 C-38.99316116 39.78535828 -38.31517975 39.11075562 -37.61665344 38.41571045 C-36.88335312 37.69586975 -36.1500528 36.97602905 -35.39453125 36.234375 C-34.63710129 35.48214661 -33.87967133 34.72991821 -33.09928894 33.95489502 C-30.67505694 31.54846775 -28.24427017 29.14880762 -25.8125 26.75 C-23.39940908 24.36466796 -20.98783879 21.97784948 -18.57926941 19.58795166 C-17.08169436 18.10247625 -15.58145555 16.61967962 -14.07807922 15.14007568 C-9.98552931 11.08605318 -6.09192327 6.92637359 -2.33818054 2.55596924 C-1.58525315 1.68050301 -0.81649886 0.81649886 0 0 Z " fill="#7F7F7F" transform="translate(784,537)"/>
<path d="M0 0 C0.99 0.33 1.98 0.66 3 1 C-3.92739852 7.51740963 -11.08584042 13.53857318 -18.609375 19.3515625 C-21.55921547 21.63546908 -24.40680628 24.02165749 -27.25 26.4375 C-34.69934393 32.59861152 -42.90036203 37.74520431 -51 43 C-51.66 42.67 -52.32 42.34 -53 42 C-48.7265348 38.31824537 -44.31858374 35.1189771 -39.625 32 C-27.38453568 23.72709498 -15.90172855 14.26847551 -5.078125 4.21484375 C-4.45421875 3.64894531 -3.8303125 3.08304688 -3.1875 2.5 C-2.37345703 1.74203125 -2.37345703 1.74203125 -1.54296875 0.96875 C-0.77919922 0.48921875 -0.77919922 0.48921875 0 0 Z " fill="#7E7E7E" transform="translate(734,587)"/>
<path d="M0 0 C2.86697492 1.28519565 4.97607712 2.57129254 7 5 C7 5.66 7 6.32 7 7 C7.8986377 7.3880481 7.8986377 7.3880481 8.81542969 7.78393555 C11.18861266 9.10499326 12.31417925 10.31115187 13.953125 12.45703125 C14.48599121 13.15078857 15.01885742 13.8445459 15.56787109 14.55932617 C16.4005249 15.67464722 16.4005249 15.67464722 17.25 16.8125 C17.8270166 17.57860596 18.4040332 18.34471191 18.99853516 19.1340332 C39 46.00522547 39 46.00522547 39 55 C38.34 55 37.68 55 37 55 C36.16855469 53.30230469 36.16855469 53.30230469 35.3203125 51.5703125 C34.5887537 50.08843697 33.85697122 48.60667185 33.125 47.125 C32.76019531 46.37863281 32.39539063 45.63226563 32.01953125 44.86328125 C31.66503906 44.14785156 31.31054688 43.43242187 30.9453125 42.6953125 C30.62062988 42.03547363 30.29594727 41.37563477 29.96142578 40.69580078 C28.66084947 38.40179289 27.35578118 37.17789059 25 36 C24.8865625 35.29230469 24.773125 34.58460938 24.65625 33.85546875 C23.78461423 30.06281549 21.7718383 27.38840165 19.5 24.3125 C19.0580127 23.70180664 18.61602539 23.09111328 18.16064453 22.46191406 C14.60971538 17.63548206 10.76142506 13.22128155 6.6171875 8.890625 C5 7 5 7 5 5 C4.360625 4.731875 3.72125 4.46375 3.0625 4.1875 C1 3 1 3 0 0 Z " fill="#7F7E7E" transform="translate(633,393)"/>
<path d="M0 0 C11.87921154 3.95973718 20.70249733 28.22385124 26.25 39.25 C34.462317 55.83919757 34.462317 55.83919757 33 61 C32.74943848 60.39752441 32.49887695 59.79504883 32.24072266 59.17431641 C24.00438864 39.49302663 14.82128368 21.73725757 2.05639648 4.61547852 C1 3 1 3 0 0 Z " fill="#7C7C7C" transform="translate(670,393)"/>
<path d="M0 0 C-1.09696627 3.2908988 -1.84801856 3.96796717 -4.4375 6.125 C-14.12374325 14.30223557 -23.14281924 23.04116065 -31.99902344 32.0949707 C-33.44297815 33.56890943 -34.89292297 35.03673637 -36.34375 36.50390625 C-37.19130859 37.36830322 -38.03886719 38.2327002 -38.91210938 39.12329102 C-41 41 -41 41 -43 41 C-41.44064367 37.25938188 -39.12945322 34.88534364 -36.2734375 32.04296875 C-35.8069278 31.57691727 -35.34041809 31.11086578 -34.85977173 30.63069153 C-33.8719326 29.64586655 -32.88167105 28.66346619 -31.88916016 27.68334961 C-30.39566953 26.20791957 -28.9101425 24.7248426 -27.42578125 23.24023438 C-22.11744281 17.95185042 -16.69123768 12.87268008 -11 8 C-8.62210761 5.84048548 -6.24894289 3.67629426 -3.8828125 1.50390625 C-2 0 -2 0 0 0 Z " fill="#828181" transform="translate(294,432)"/>
<path d="M0 0 C0.66 0.33 1.32 0.66 2 1 C1.33355469 2.03253906 0.66710937 3.06507813 -0.01953125 4.12890625 C-10.32786448 20.38217717 -19.22495914 37.59006311 -25 56 C-25.33 56 -25.66 56 -26 56 C-25.50920512 49.36660048 -23.69183554 44.11660111 -21 38.0625 C-20.59990723 37.14879639 -20.19981445 36.23509277 -19.78759766 35.29370117 C-14.27477252 22.88930561 -8.26970155 10.82240686 0 0 Z " fill="#7C7C7C" transform="translate(344,405)"/>
<path d="M0 0 C15.02946613 1.42891831 29.06350916 7.75066756 42.5625 14.1875 C43.63878662 14.69837158 44.71507324 15.20924316 45.82397461 15.7355957 C50.60351205 18.07437199 54.36233315 20.04408356 58 24 C53.59799643 23.42441574 50.68674466 21.76540282 46.9375 19.4375 C34.38641039 11.98380727 20.60731595 7.04171971 6.47167969 3.54614258 C4.63365083 3.08369922 2.81414487 2.5487097 1 2 C0.67 1.34 0.34 0.68 0 0 Z " fill="#7F7E7E" transform="translate(549,348)"/>
<path d="M0 0 C9.4040009 9.4040009 8.08590154 34.0923067 8.13183594 46.24731445 C8.12199066 51.83205074 8.07757484 57.41580519 8 63 C7.67 63 7.34 63 7 63 C6.95512451 62.16041748 6.91024902 61.32083496 6.86401367 60.45581055 C5.58398197 34.34875376 5.58398197 34.34875376 0.9140625 8.68359375 C0.14252351 5.57435756 -0.19796607 3.16745711 0 0 Z " fill="#7B7A7A" transform="translate(679,468)"/>
<path d="M0 0 C2.35464208 3.67212039 2.30574687 7.215897 2.25 11.4375 C2.24468262 12.17105713 2.23936523 12.90461426 2.23388672 13.66040039 C2.13305407 19.77609227 1.68948004 25.84863473 1.125 31.9375 C1.04668945 32.78820068 0.96837891 33.63890137 0.88769531 34.51538086 C-0.33712306 46.58641174 -0.33712306 46.58641174 -2 52 C-2.99 52.495 -2.99 52.495 -4 53 C-3.51421617 47.60405277 -3.02335711 42.2088536 -2.5 36.81640625 C-1.32458259 24.55188396 -0.50735138 12.30994658 0 0 Z " fill="#7F7E7E" transform="translate(714,504)"/>
<path d="M0 0 C1.9621582 0.02124023 1.9621582 0.02124023 4.48828125 0.37109375 C12.7128535 1.28284633 20.9245691 1.10697399 29.1875 1.0625 C30.82356633 1.05747294 32.45963417 1.05291217 34.09570312 1.04882812 C38.06383986 1.03792277 42.03190291 1.0207253 46 1 C43.19643837 3.80356163 40.90505461 3.62899508 37 4.125 C35.741875 4.29257812 34.48375 4.46015625 33.1875 4.6328125 C24.58008967 5.50575822 16.39911132 4.82889938 7.875 3.5 C6.91851562 3.35691406 5.96203125 3.21382812 4.9765625 3.06640625 C2.64997784 2.71741855 0.32460844 2.36187667 -2 2 C-1.34 1.34 -0.68 0.68 0 0 Z " fill="#838282" transform="translate(488,630)"/>
<path d="M0 0 C2 1 2 1 2.74267578 2.77148438 C2.9745459 3.53783203 3.20641602 4.30417969 3.4453125 5.09375 C3.7134375 5.95105713 3.9815625 6.80836426 4.2578125 7.69165039 C4.54398437 8.61840576 4.83015625 9.54516113 5.125 10.5 C9.50445808 24.12897561 15.22771926 36.65547463 22.84765625 48.77734375 C23.22792969 49.51082031 23.60820312 50.24429688 24 51 C23.67 51.66 23.34 52.32 23 53 C15.36903398 42.59413725 10.04632976 30.81035503 5.125 18.9375 C4.83890869 18.24785156 4.55281738 17.55820312 4.25805664 16.84765625 C2.01437314 11.30483466 0 6.0502277 0 0 Z " fill="#7C7B7B" transform="translate(343,562)"/>
<path d="M0 0 C5.29796068 0.11979539 10.59579076 0.244112 15.89355469 0.37231445 C17.68942509 0.41517264 19.48532355 0.45687309 21.28125 0.49731445 C31.88361623 0.73693266 42.4291278 1.10351084 53 2 C53 2.33 53 2.66 53 3 C51.41750513 3.17444825 49.83391187 3.33892422 48.25 3.5 C47.36828125 3.5928125 46.4865625 3.685625 45.578125 3.78125 C35.48307016 4.39841492 25.45104782 3.83487929 15.375 3.125 C14.11042969 3.04636719 12.84585937 2.96773437 11.54296875 2.88671875 C10.34027344 2.80292969 9.13757813 2.71914063 7.8984375 2.6328125 C6.81224121 2.55949707 5.72604492 2.48618164 4.60693359 2.41064453 C2 2 2 2 0 0 Z " fill="#7E7D7D" transform="translate(473,712)"/>
<path d="M0 0 C0.66 0 1.32 0 2 0 C0.82860087 2.34279827 -0.35242565 4.67665724 -1.5625 7 C-4.58867752 13.31550092 -4.84686402 19.6730342 -3.125 26.4375 C-2.14031549 29.10182331 -2.14031549 29.10182331 0 31 C0.763125 31.969375 1.52625 32.93875 2.3125 33.9375 C4.55770068 36.67049725 6.82861418 38.36900158 10 40 C8.21875 40.66015625 8.21875 40.66015625 6 41 C0.01982882 37.62959651 -4.3989745 31.66103488 -6.25 25.125 C-8.26013547 15.26044628 -6.00265472 9.66110582 -1 1 C-0.67 0.67 -0.34 0.34 0 0 Z " fill="#818080" transform="translate(536,463)"/>
<path d="M0 0 C4.29067546 1.65236651 7.1429553 4.8905207 10.296875 8.1015625 C10.89050842 8.69802582 11.48414185 9.29448914 12.09576416 9.9090271 C13.98526627 11.8096981 15.86768392 13.71721474 17.75 15.625 C19.03209065 16.91712468 20.31463761 18.20879676 21.59765625 19.5 C24.73708432 22.66144479 27.87017801 25.8290461 31 29 C30.01 29.33 29.02 29.66 28 30 C23.33333333 25.33333333 18.66666667 20.66666667 14 16 C13.31421875 15.33742188 12.6284375 14.67484375 11.921875 13.9921875 C11.18453125 13.27289062 10.4471875 12.55359375 9.6875 11.8125 C8.99011719 11.13832031 8.29273438 10.46414063 7.57421875 9.76953125 C6 8 6 8 6 6 C4.68 5.34 3.36 4.68 2 4 C2 3.34 2 2.68 2 2 C1.34 2 0.68 2 0 2 C0 1.34 0 0.68 0 0 Z " fill="#7F7E7E" transform="translate(721,750)"/>
<path d="M0 0 C5.60980777 2.40949893 9.32733123 7.23646029 12.4375 12.375 C13.86956333 19.05796218 13.7789468 25.15661959 10.3359375 31.17578125 C7.32941223 35.28118271 3.97622592 38.41133696 -0.9375 39.875 C-1.618125 39.91625 -2.29875 39.9575 -3 40 C-2.195625 39.4121875 -2.195625 39.4121875 -1.375 38.8125 C-0.59125 38.214375 0.1925 37.61625 1 37 C2.010625 36.236875 3.02125 35.47375 4.0625 34.6875 C7.8832527 31.19191774 9.75971322 28.5897575 10.24609375 23.34765625 C10.42421022 15.54196392 9.3013611 11.04589824 3.875 5.25 C0 1.08540925 0 1.08540925 0 0 Z " fill="#7A797A" transform="translate(775,746)"/>
<path d="M0 0 C0 3.51546572 -0.39806436 3.77977797 -2.74609375 6.1875 C-3.33173096 6.79827393 -3.91736816 7.40904785 -4.52075195 8.03833008 C-5.15327881 8.68568115 -5.78580566 9.33303223 -6.4375 10 C-11.51465097 15.30691519 -16.30627619 20.6750093 -20.890625 26.4140625 C-24.43084006 30.75410392 -28.21428682 34.87419911 -32 39 C-32 35.56972892 -31.65893665 35.24708171 -29.47265625 32.8125 C-28.93229736 32.20172607 -28.39193848 31.59095215 -27.83520508 30.96166992 C-27.2502124 30.31431885 -26.66521973 29.66696777 -26.0625 29 C-24.85803238 27.6431177 -23.65491318 26.28503729 -22.453125 24.92578125 C-21.86080078 24.25756348 -21.26847656 23.5893457 -20.65820312 22.90087891 C-18.46703539 20.38903674 -16.38726741 17.79588564 -14.3125 15.1875 C-9.90545034 9.73193295 -5.05155074 4.86172211 0 0 Z " fill="#7A7979" transform="translate(249,474)"/>
<path d="M0 0 C0.99 0.33 1.98 0.66 3 1 C1.96552734 2.10794922 1.96552734 2.10794922 0.91015625 3.23828125 C-4.59805029 9.17224289 -9.90162789 15.20008677 -14.984375 21.5078125 C-17.59099903 24.73073136 -20.28543427 27.86780877 -23 31 C-23.33 30.34 -23.66 29.68 -24 29 C-22.62608764 27.31161436 -21.25080839 25.62434099 -19.875 23.9375 C-18.65103516 22.43509766 -18.65103516 22.43509766 -17.40234375 20.90234375 C-15.45822412 18.55359434 -13.47239197 16.26912414 -11.4375 14 C-8.68470369 11.25617825 -8.68470369 11.25617825 -9 8 C-7.35666496 6.96210419 -5.68756133 5.96432076 -4 5 C-3.34 4.01 -2.68 3.02 -2 2 C-1.34 2 -0.68 2 0 2 C0 1.34 0 0.68 0 0 Z " fill="#7E7E7E" transform="translate(201,472)"/>
<path d="M0 0 C4.71351453 2.84436221 9.61030394 7.40132809 11.25390625 12.75 C11.40666016 13.61625 11.40666016 13.61625 11.5625 14.5 C10.9025 14.5 10.2425 14.5 9.5625 14.5 C8.484375 12.890625 8.484375 12.890625 7.3125 10.75 C4.09990247 5.44874577 0.67330908 3.23878318 -5.1875 1.1875 C-12.53390845 -0.38874089 -18.92235504 0.91667027 -25.4375 4.5 C-26.0975 4.17 -26.7575 3.84 -27.4375 3.5 C-19.44342059 -2.00703248 -9.32466738 -4.16673129 0 0 Z " fill="#7E7D7C" transform="translate(566.4375,457.5)"/>
<path d="M0 0 C2.97117474 1.31537837 4.83021526 2.64378666 6.91796875 5.125 C7.44624268 5.7449585 7.9745166 6.36491699 8.51879883 7.00366211 C9.06947021 7.66245361 9.6201416 8.32124512 10.1875 9 C11.34036672 10.35613147 12.49401649 11.71159763 13.6484375 13.06640625 C14.21401367 13.7330127 14.77958984 14.39961914 15.36230469 15.08642578 C18.82464822 19.13202039 22.41507826 23.06307044 26 27 C25.67 27.99 25.34 28.98 25 30 C0 2.63581489 0 2.63581489 0 0 Z " fill="#7B7B7B" transform="translate(217,514)"/>
<path d="M0 0 C0.66 0 1.32 0 2 0 C1.37216746 5.33657655 -0.82651116 9.12107022 -4.90234375 12.64453125 C-10.67779641 17.06484977 -14.29372635 19.27412547 -21.75 19.125 C-22.92046875 19.10695313 -24.0909375 19.08890625 -25.296875 19.0703125 C-26.18890625 19.04710937 -27.0809375 19.02390625 -28 19 C-28 18.67 -28 18.34 -28 18 C-27.39414062 17.98582031 -26.78828125 17.97164063 -26.1640625 17.95703125 C-17.63062455 17.47128171 -10.33168626 14.98279686 -4.5 8.5 C-2.43469775 5.83377648 -0.98615701 3.25431813 0 0 Z " fill="#7B7A7A" transform="translate(577,487)"/>
<path d="M0 0 C0 0.33 0 0.66 0 1 C-9.57412312 3.32377814 -18.9133205 3.23349964 -28.6875 3.125 C-30.27538495 3.11494496 -31.8632761 3.1058236 -33.45117188 3.09765625 C-37.30093725 3.07585443 -41.15039827 3.04146559 -45 3 C-45 2.67 -45 2.34 -45 2 C-40.52031698 1.71029226 -36.0403442 1.42570436 -31.56005859 1.14550781 C-30.0414184 1.04985049 -28.52286002 0.95288373 -27.00439453 0.85449219 C-17.99060821 0.27142218 -9.03872059 -0.15742329 0 0 Z " fill="#7A7979" transform="translate(542,689)"/>
<path d="M0 0 C6.2935858 1.21455165 12.25999996 3.02992762 18.31494141 5.10107422 C23.8194524 6.97302549 29.36885992 8.56002031 35 10 C35 10.33 35 10.66 35 11 C24.80504992 10.66573934 15.58056494 7.22227219 6 4 C4.81921875 3.60683594 3.6384375 3.21367188 2.421875 2.80859375 C1.62265625 2.54175781 0.8234375 2.27492188 0 2 C0 1.34 0 0.68 0 0 Z " fill="#7F7E7E" transform="translate(394,693)"/>
<path d="M0 0 C2.12563103 0.11376617 4.2505261 0.24135631 6.375 0.375 C8.15003906 0.47941406 8.15003906 0.47941406 9.9609375 0.5859375 C13 1 13 1 15 3 C12.33821779 4.3308911 10.31260604 4.11268993 7.3359375 4.09765625 C6.21445312 4.09443359 5.09296875 4.09121094 3.9375 4.08789062 C2.761875 4.07951172 1.58625 4.07113281 0.375 4.0625 C-0.80835938 4.05798828 -1.99171875 4.05347656 -3.2109375 4.04882812 C-6.14067507 4.03701467 -9.07031272 4.02054258 -12 4 C-8.79619983 1.86413322 -7.98060033 1.76867825 -4.3125 1.875 C-3.10013672 1.90207031 -3.10013672 1.90207031 -1.86328125 1.9296875 C-0.94095703 1.96449219 -0.94095703 1.96449219 0 2 C0 1.34 0 0.68 0 0 Z " fill="#878688" transform="translate(507,400)"/>
<path d="M0 0 C0 0.66 0 1.32 0 2 C-1.55351843 3.2530313 -3.17150923 4.42642947 -4.8125 5.5625 C-9.92333012 9.18102055 -14.77743453 13.01509648 -19.58984375 17.01953125 C-21.68687798 18.74270201 -23.81397743 20.39218293 -26 22 C-26.66 21.67 -27.32 21.34 -28 21 C-21.00504314 14.52921304 -13.60052726 8.72837597 -6 3 C-5.25363281 2.40832031 -4.50726563 1.81664062 -3.73828125 1.20703125 C-2 0 -2 0 0 0 Z " fill="#7B7A7A" transform="translate(323,409)"/>
<path d="M0 0 C2.2389958 6.7169874 -3.79551819 15.72655094 -6.85742188 21.91479492 C-8.21898509 24.62017092 -9.60219896 27.31316054 -11 30 C-12.14281559 26.57155324 -11.92916185 26.20213206 -10.48828125 23.0859375 C-10.14216797 22.32410156 -9.79605469 21.56226563 -9.43945312 20.77734375 C-9.06755859 19.98457031 -8.69566406 19.19179688 -8.3125 18.375 C-7.95994141 17.60542969 -7.60738281 16.83585938 -7.24414062 16.04296875 C-6.53161967 14.48766707 -5.8156303 12.9339497 -5.09619141 11.38183594 C-3.35815244 7.60537531 -1.67843577 3.80324595 0 0 Z " fill="#7E7D7E" transform="translate(677,571)"/>
<path d="M0 0 C-5.11498247 5.11498247 -16.43591208 4.10471805 -23.41796875 4.13623047 C-26.9463265 4.12010324 -30.47231879 4.07199349 -34 4 C-34 3.67 -34 3.34 -34 3 C-29.45890277 2.49473686 -24.91703948 1.99671565 -20.375 1.5 C-18.44720703 1.28537109 -18.44720703 1.28537109 -16.48046875 1.06640625 C-15.23652344 0.93105469 -13.99257813 0.79570313 -12.7109375 0.65625 C-10.99849854 0.46772461 -10.99849854 0.46772461 -9.25146484 0.27539062 C-6.14862366 0.01258804 -3.11205949 -0.0494632 0 0 Z " fill="#7A797A" transform="translate(566,710)"/>
<path d="M0 0 C9.54603959 2.98313737 17.47285861 11.65211076 25 18 C24.01 18.33 23.02 18.66 22 19 C21.12601563 18.18208984 21.12601563 18.18208984 20.234375 17.34765625 C14.49427552 12.06784777 8.57607604 7.32219118 2.2734375 2.75 C1.52320313 2.1725 0.77296875 1.595 0 1 C0 0.67 0 0.34 0 0 Z " fill="#797877" transform="translate(608,373)"/>
<path d="M0 0 C-1.09696627 3.2908988 -1.84801856 3.96796717 -4.4375 6.125 C-7.84205791 9.01053274 -11.18795033 11.94581929 -14.5 14.9375 C-15.3559375 15.70964844 -16.211875 16.48179687 -17.09375 17.27734375 C-17.7228125 17.84582031 -18.351875 18.41429687 -19 19 C-19.99 18.67 -20.98 18.34 -22 18 C-2.63106796 0 -2.63106796 0 0 0 Z " fill="#7B7A7B" transform="translate(294,432)"/>
<path d="M0 0 C0.99 0.495 0.99 0.495 2 1 C4.63511286 8.90533858 5.44808451 16.71873435 5 25 C3.13074143 22.19611215 2.66004489 21.07604003 2.1484375 17.91015625 C2.01953125 17.12576172 1.890625 16.34136719 1.7578125 15.53320312 C1.63148438 14.71787109 1.50515625 13.90253906 1.375 13.0625 C1.2409375 12.25103516 1.106875 11.43957031 0.96875 10.60351562 C0.38565554 6.97702508 0 3.69442628 0 0 Z " fill="#7D7D7E" transform="translate(708,468)"/>
<path d="M0 0 C3.0176389 2.88643721 3.91185475 4.28224583 4.4375 8.5625 C4.40751965 14.01892384 1.42271828 17.94771437 -2 22 C-2.66 22.33 -3.32 22.66 -4 23 C-3.54531006 20.04451536 -2.77750594 18.70334126 -0.9375 16.25 C2.22142187 10.95116331 1.47998826 5.91995303 0 0 Z " fill="#7F7F7F" transform="translate(847,503)"/>
<path d="M0 0 C5.44634818 -0.21442316 10.11249224 0.50849246 15.375 1.875 C16.09816406 2.04902344 16.82132813 2.22304688 17.56640625 2.40234375 C19.39648572 2.86587232 21.20160751 3.42568818 23 4 C23.33 4.66 23.66 5.32 24 6 C18.3444819 5.39496146 12.99786009 4.37814297 7.5 2.9375 C6.77296875 2.75123047 6.0459375 2.56496094 5.296875 2.37304688 C3.53012276 1.91973545 1.76489225 1.4604998 0 1 C0 0.67 0 0.34 0 0 Z " fill="#7C7C7C" transform="translate(579,319)"/>
<path d="M0 0 C0.33 0 0.66 0 1 0 C1.06316406 0.76183594 1.12632812 1.52367187 1.19140625 2.30859375 C2.14715943 10.36710214 4.44076771 15.11375404 10 21 C9.67 21.66 9.34 22.32 9 23 C7.86966702 21.75482035 6.74594964 20.50363348 5.625 19.25 C4.99851563 18.55390625 4.37203125 17.8578125 3.7265625 17.140625 C0.74899318 13.44897797 -0.26269476 10.52714178 -0.6875 5.8125 C-0.77386719 4.93207031 -0.86023438 4.05164063 -0.94921875 3.14453125 C-0.96597656 2.43683594 -0.98273438 1.72914063 -1 1 C-0.67 0.67 -0.34 0.34 0 0 Z " fill="#7D7C7D" transform="translate(238,254)"/>
<path d="M0 0 C0 7.12691113 -6.87139816 14.41424458 -11 20 C-11.33 19.34 -11.66 18.68 -12 18 C-10.65821367 15.43813805 -9.26873388 13.01601689 -7.75 10.5625 C-7.34136719 9.88123047 -6.93273437 9.19996094 -6.51171875 8.49804688 C-4.56521003 5.30289349 -2.73449103 2.58241081 0 0 Z " fill="#7D7C7C" transform="translate(664,602)"/>
<path d="M0 0 C-3.5335416 3.5335416 -8.72845244 3.89052783 -13.59375 4.125 C-15.72957313 4.125 -17.86525231 4.06776977 -20 4 C-13.69529267 0.61282089 -7.08088525 -0.30131427 0 0 Z " fill="#7C7B7B" transform="translate(587,706)"/>
<path d="M0 0 C4.47921409 0.54045362 7.19643165 2.23192996 10.8125 4.875 C12.27623047 5.92300781 12.27623047 5.92300781 13.76953125 6.9921875 C14.50558594 7.65476562 15.24164062 8.31734375 16 9 C16 9.99 16 10.98 16 12 C13.89311385 10.56635564 11.78949074 9.12829067 9.6875 7.6875 C9.09259766 7.28337891 8.49769531 6.87925781 7.88476562 6.46289062 C5.02390921 4.49705074 2.32453048 2.5930683 0 0 Z " fill="#7A7A7A" transform="translate(567,416)"/>
<path d="M0 0 C3.38818502 1.43605193 5.3186598 3.20466579 7.6875 6 C8.28949219 6.70125 8.89148438 7.4025 9.51171875 8.125 C12.38353581 11.74303724 12.08425439 14.45026318 12 19 C10.91352416 16.90465375 9.96065355 14.88631145 9.1875 12.65234375 C7.82734667 9.61436969 6.1443745 7.67391972 3.875 5.25 C0 1.08540925 0 1.08540925 0 0 Z " fill="#706F6F" transform="translate(775,746)"/>
<path d="M0 0 C0.6084375 0.19722656 1.216875 0.39445313 1.84375 0.59765625 C1.04710937 1.12552734 1.04710937 1.12552734 0.234375 1.6640625 C-4.75641828 5.15215342 -7.51991763 8.10529715 -10.15625 13.59765625 C-10.90625 11.97265625 -10.90625 11.97265625 -11.15625 9.59765625 C-8.94645517 5.51803503 -5.3274233 -0.9940663 0 0 Z " fill="#7A797A" transform="translate(250.15625,239.40234375)"/>
<path d="M0 0 C0.66 0 1.32 0 2 0 C1.36086933 5.43261068 -1.0586807 9.38223392 -5.25 12.875 C-6.11625 13.431875 -6.11625 13.431875 -7 14 C-7 10.2719778 -5.62685405 9.26024539 -3.24609375 6.5625 C-1.6336066 4.54057254 -0.79187918 2.44762655 0 0 Z " fill="#828283" transform="translate(577,487)"/>
<path d="M0 0 C0.33 0.99 0.66 1.98 1 3 C-1.97 5.97 -4.94 8.94 -8 12 C-8.99 11.67 -9.98 11.34 -11 11 C-7.37 7.37 -3.74 3.74 0 0 Z " fill="#828282" transform="translate(232,439)"/>
<path d="M0 0 C6.62177926 0.30656385 11.22125154 1.74288723 17 5 C13.01754349 6.3274855 10.55210457 4.99907829 6.8125 3.5625 C5.83120117 3.19801758 5.83120117 3.19801758 4.83007812 2.82617188 C3.21696714 2.2256707 1.6080565 1.61390797 0 1 C0 0.67 0 0.34 0 0 Z " fill="#7D7D7D" transform="translate(541,406)"/>
<path d="M0 0 C-0.8125 1.9375 -0.8125 1.9375 -2 4 C-2.99 4.33 -3.98 4.66 -5 5 C-5.33 5.99 -5.66 6.98 -6 8 C-7.62332967 9.38576923 -9.28724465 10.72641268 -11 12 C-11.66 11.67 -12.32 11.34 -13 11 C-11.21427748 9.16052663 -9.42197551 7.32842259 -7.625 5.5 C-7.11710938 4.97535156 -6.60921875 4.45070313 -6.0859375 3.91015625 C-2.2265625 0 -2.2265625 0 0 0 Z " fill="#7D7C7C" transform="translate(779,595)"/>
<path d="M0 0 C5.40838443 3.56879789 10.74979781 7.20198139 16 11 C15.01 11.495 15.01 11.495 14 12 C12.03427641 10.76165425 10.07763845 9.50887749 8.125 8.25 C7.03445313 7.55390625 5.94390625 6.8578125 4.8203125 6.140625 C2.18057581 4.13705754 1.08877972 3.05960883 0 0 Z " fill="#767575" transform="translate(436,605)"/>
<path d="M0 0 C3.69876091 1.37287342 6.9514476 3.06355453 10.3125 5.125 C11.19550781 5.66382813 12.07851563 6.20265625 12.98828125 6.7578125 C13.65214844 7.16773438 14.31601562 7.57765625 15 8 C14.34 8.66 13.68 9.32 13 10 C11.20360704 8.90353942 9.41302846 7.79754852 7.625 6.6875 C6.62726562 6.07261719 5.62953125 5.45773437 4.6015625 4.82421875 C2 3 2 3 0 0 Z " fill="#828080" transform="translate(671,390)"/>
<path d="M0 0 C6.45059091 2.62801852 10.6369492 8.7973243 15 14 C10.94772191 12.38873705 8.23778153 9.49978002 5.25 6.4375 C4.74339844 5.93025391 4.23679687 5.42300781 3.71484375 4.90039062 C0 1.14048812 0 1.14048812 0 0 Z " fill="#787777" transform="translate(335,306)"/>
<path d="M0 0 C4.49699606 3.65461928 8.62848394 7.25880554 12 12 C11.67 12.99 11.34 13.98 11 15 C9.16064138 12.87996003 7.32843267 10.75442773 5.5 8.625 C4.71302734 7.72007812 4.71302734 7.72007812 3.91015625 6.796875 C0 2.2265625 0 2.2265625 0 0 Z " fill="#757576" transform="translate(835,489)"/>
<path d="M0 0 C4.67105792 1.55701931 8.08705685 4.08447373 12 7 C11.34 7.66 10.68 8.32 10 9 C8.33043913 7.69118353 6.66441696 6.37785174 5 5.0625 C4.071875 4.33160156 3.14375 3.60070312 2.1875 2.84765625 C1.465625 2.23792969 0.74375 1.62820313 0 1 C0 0.67 0 0.34 0 0 Z " fill="#7F7E7E" transform="translate(608,373)"/>
<path d="M0 0 C0.33 0 0.66 0 1 0 C0.40546697 9.59453303 0.40546697 9.59453303 -3 13 C-2.52060632 8.28596212 -2.03165952 4.33420699 0 0 Z " fill="#7E7D7E" transform="translate(681,557)"/>
<path d="M0 0 C0.66 0.33 1.32 0.66 2 1 C0.515 6.445 0.515 6.445 -1 12 C-3 8 -3 8 -2.1875 4.3125 C-1 1 -1 1 0 0 Z " fill="#818081" transform="translate(175,504)"/>
<path d="M0 0 C0.66 0.33 1.32 0.66 2 1 C-0.64 4.3 -3.28 7.6 -6 11 C-6 7.39426104 -5.18292538 6.58663434 -3 3.8125 C-2.443125 3.09707031 -1.88625 2.38164062 -1.3125 1.64453125 C-0.879375 1.10183594 -0.44625 0.55914062 0 0 Z " fill="#7C7B7B" transform="translate(353,393)"/>
<path d="M0 0 C0.53625 0.391875 1.0725 0.78375 1.625 1.1875 C-1.64045761 3.07141785 -4.65611761 3.68037967 -8.375 4.1875 C-8.375 3.5275 -8.375 2.8675 -8.375 2.1875 C-2.95961538 -1.0125 -2.95961538 -1.0125 0 0 Z " fill="#868788" transform="translate(594.375,671.8125)"/>
<path d="M0 0 C0.66 0.33 1.32 0.66 2 1 C-0.97 3.64 -3.94 6.28 -7 9 C-7 6 -7 6 -5.46875 4.39453125 C-4.49421875 3.61142578 -4.49421875 3.61142578 -3.5 2.8125 C-2.8503125 2.28269531 -2.200625 1.75289063 -1.53125 1.20703125 C-1.0259375 0.80871094 -0.520625 0.41039062 0 0 Z " fill="#7A7A7A" transform="translate(265,409)"/>
<path d="M0 0 C-3.69172595 3.53790403 -7.09390595 3.59115883 -12 4 C-12 3.34 -12 2.68 -12 2 C-7.8803623 0.70756464 -4.33168317 -0.26252625 0 0 Z " fill="#7E7E7E" transform="translate(417,325)"/>
<path d="M0 0 C3.73151108 1.24383703 4.74534148 2.84347807 7 6 C7.33 6.99 7.66 7.98 8 9 C7.01 9.495 7.01 9.495 6 10 C4.99421411 8.71283353 3.99553202 7.42011342 3 6.125 C2.443125 5.40570313 1.88625 4.68640625 1.3125 3.9453125 C0 2 0 2 0 0 Z " fill="#848383" transform="translate(670,393)"/>
<path d="M0 0 C0.99 0 1.98 0 3 0 C4.60546875 1.75 4.60546875 1.75 6.1875 4 C6.71730469 4.7425 7.24710937 5.485 7.79296875 6.25 C8.19128906 6.8275 8.58960938 7.405 9 8 C5.23508353 6.27039094 2.81760833 4.05240902 0 1 C0 0.67 0 0.34 0 0 Z " fill="#818181" transform="translate(405,376)"/>
<path d="M0 0 C3.36591866 1.44253657 5.51047079 3.33264727 8 6 C7.67 6.66 7.34 7.32 7 8 C5.8274869 7.04882866 4.66212985 6.08882991 3.5 5.125 C2.8503125 4.59132813 2.200625 4.05765625 1.53125 3.5078125 C1.0259375 3.01023437 0.520625 2.51265625 0 2 C0 1.34 0 0.68 0 0 Z " fill="#767677" transform="translate(271,572)"/>
<path d="M0 0 C3.83736322 0.95934081 4.59660228 1.23609263 7 4 C6.67 4.99 6.34 5.98 6 7 C4.02 4.69 2.04 2.38 0 0 Z " fill="#838283" transform="translate(364,335)"/>
<path d="M0 0 C0.99 0.33 1.98 0.66 3 1 C0.36 2.98 -2.28 4.96 -5 7 C-3.38262276 3.76524552 -2.52370777 2.29427979 0 0 Z " fill="#7B7A7A" transform="translate(744,578)"/>
<path d="M0 0 C4.31392226 0.4793247 6.16569547 1.7457985 9 5 C5.51694958 4.35499066 2.93797836 2.95865224 0 1 C0 0.67 0 0.34 0 0 Z " fill="#7A7979" transform="translate(679,356)"/>
<path d="M0 0 C0 0.99 0 1.98 0 3 C-0.66 2.67 -1.32 2.34 -2 2 C-1.34 1.34 -0.68 0.68 0 0 Z " fill="#99999B" transform="translate(618,652)"/>
<path d="M0 0 C3 1 3 1 3 1 Z " fill="#969697" transform="translate(385,693)"/>
<path d="M0 0 C0.99 0.495 0.99 0.495 2 1 C1.01 1.495 1.01 1.495 0 2 C0 1.34 0 0.68 0 0 Z " fill="#99999B" transform="translate(570,357)"/>
<path d="M0 0 C3 1 3 1 3 1 Z " fill="#98989A" transform="translate(528,347)"/>
<path d="M0 0 C2 1 2 1 2 1 Z " fill="#969797" transform="translate(431,707)"/>
<path d="" fill="#9B9A9B" transform="translate(0,0)"/>
<path d="" fill="#969897" transform="translate(0,0)"/>
<path d="M0 0 C2 1 2 1 2 1 Z " fill="#979998" transform="translate(328,609)"/>
<path d="" fill="#989A9A" transform="translate(0,0)"/>
<path d="" fill="#98989B" transform="translate(0,0)"/>
<path d="M0 0 C2 1 2 1 2 1 Z " fill="#999A9B" transform="translate(496,400)"/>
<path d="M0 0 C2 1 2 1 2 1 Z " fill="#99989A" transform="translate(484,348)"/>
<path d="" fill="#454645" transform="translate(0,0)"/>
<path d="" fill="#959697" transform="translate(0,0)"/>
<path d="" fill="#969596" transform="translate(0,0)"/>
<path d="" fill="#969397" transform="translate(0,0)"/>
<path d="" fill="#979595" transform="translate(0,0)"/>
<path d="" fill="#959496" transform="translate(0,0)"/>
<path d="" fill="#969596" transform="translate(0,0)"/>
<path d="" fill="#959695" transform="translate(0,0)"/>
<path d="" fill="#969597" transform="translate(0,0)"/>
<path d="" fill="#969796" transform="translate(0,0)"/>
<path d="" fill="#969798" transform="translate(0,0)"/>
<path d="" fill="#969697" transform="translate(0,0)"/>
<path d="" fill="#999898" transform="translate(0,0)"/>
<path d="" fill="#959797" transform="translate(0,0)"/>
<path d="" fill="#959497" transform="translate(0,0)"/>
<path d="" fill="#989A99" transform="translate(0,0)"/>
<path d="" fill="#949596" transform="translate(0,0)"/>
<path d="" fill="#959494" transform="translate(0,0)"/>
<path d="" fill="#949294" transform="translate(0,0)"/>
<path d="" fill="#9A9C9D" transform="translate(0,0)"/>
<path d="" fill="#939496" transform="translate(0,0)"/>
<path d="" fill="#99999B" transform="translate(0,0)"/>
<path d="" fill="#959697" transform="translate(0,0)"/>
<path d="" fill="#9B9D9C" transform="translate(0,0)"/>
<path d="" fill="#9A9A9B" transform="translate(0,0)"/>
<path d="" fill="#9B9B9D" transform="translate(0,0)"/>
<path d="" fill="#989998" transform="translate(0,0)"/>
<path d="" fill="#99999C" transform="translate(0,0)"/>
<path d="" fill="#989799" transform="translate(0,0)"/>
<path d="" fill="#9B9C9C" transform="translate(0,0)"/>
<path d="" fill="#9A9B9C" transform="translate(0,0)"/>
<path d="" fill="#989799" transform="translate(0,0)"/>
<path d="" fill="#989A9A" transform="translate(0,0)"/>
<path d="" fill="#9B989A" transform="translate(0,0)"/>
<path d="" fill="#9A9897" transform="translate(0,0)"/>
<path d="" fill="#99999C" transform="translate(0,0)"/>
<path d="" fill="#969696" transform="translate(0,0)"/>
<path d="" fill="#99999A" transform="translate(0,0)"/>
<path d="" fill="#98999B" transform="translate(0,0)"/>
<path d="" fill="#9A999B" transform="translate(0,0)"/>
<path d="" fill="#9A9B9C" transform="translate(0,0)"/>
<path d="" fill="#9A9A9C" transform="translate(0,0)"/>
<path d="" fill="#95979A" transform="translate(0,0)"/>
<path d="" fill="#969798" transform="translate(0,0)"/>
<path d="" fill="#979799" transform="translate(0,0)"/>
<path d="" fill="#9A9A9B" transform="translate(0,0)"/>
<path d="" fill="#989697" transform="translate(0,0)"/>
<path d="" fill="#979698" transform="translate(0,0)"/>
<path d="" fill="#959493" transform="translate(0,0)"/>
<path d="" fill="#979799" transform="translate(0,0)"/>
<path d="" fill="#9E9EA2" transform="translate(0,0)"/>
<path d="" fill="#989798" transform="translate(0,0)"/>
<path d="" fill="#9A9B9C" transform="translate(0,0)"/>
<path d="" fill="#989899" transform="translate(0,0)"/>
<path d="" fill="#959495" transform="translate(0,0)"/>
<path d="" fill="#969898" transform="translate(0,0)"/>
<path d="" fill="#99999B" transform="translate(0,0)"/>
<path d="" fill="#969899" transform="translate(0,0)"/>
<path d="" fill="#98979A" transform="translate(0,0)"/>
<path d="" fill="#999799" transform="translate(0,0)"/>
<path d="" fill="#959597" transform="translate(0,0)"/>
<path d="" fill="#9C9DA0" transform="translate(0,0)"/>
<path d="" fill="#99999A" transform="translate(0,0)"/>
<path d="" fill="#939294" transform="translate(0,0)"/>
<path d="" fill="#989799" transform="translate(0,0)"/>
<path d="" fill="#98989A" transform="translate(0,0)"/>
<path d="" fill="#9A989B" transform="translate(0,0)"/>
<path d="" fill="#959595" transform="translate(0,0)"/>
<path d="" fill="#9B999B" transform="translate(0,0)"/>
<path d="" fill="#999899" transform="translate(0,0)"/>
<path d="" fill="#959597" transform="translate(0,0)"/>
<path d="" fill="#99989B" transform="translate(0,0)"/>
<path d="" fill="#9A999A" transform="translate(0,0)"/>
<path d="" fill="#979898" transform="translate(0,0)"/>
<path d="" fill="#979798" transform="translate(0,0)"/>
<path d="" fill="#979597" transform="translate(0,0)"/>
<path d="" fill="#979497" transform="translate(0,0)"/>
<path d="" fill="#949291" transform="translate(0,0)"/>
<path d="" fill="#919091" transform="translate(0,0)"/>
<path d="" fill="#8F8F93" transform="translate(0,0)"/>
<path d="" fill="#9A9B9A" transform="translate(0,0)"/>
<path d="" fill="#919290" transform="translate(0,0)"/>
<path d="" fill="#97979A" transform="translate(0,0)"/>
<path d="" fill="#97989A" transform="translate(0,0)"/>
<path d="" fill="#9A989A" transform="translate(0,0)"/>
<path d="" fill="#989A98" transform="translate(0,0)"/>
<path d="" fill="#99999C" transform="translate(0,0)"/>
<path d="" fill="#979799" transform="translate(0,0)"/>
<path d="" fill="#989696" transform="translate(0,0)"/>
<path d="" fill="#999697" transform="translate(0,0)"/>
<path d="" fill="#999899" transform="translate(0,0)"/>
<path d="" fill="#99989A" transform="translate(0,0)"/>
<path d="" fill="#989899" transform="translate(0,0)"/>
<path d="" fill="#99999A" transform="translate(0,0)"/>
<path d="" fill="#949495" transform="translate(0,0)"/>
<path d="" fill="#9D9C9C" transform="translate(0,0)"/>
<path d="" fill="#9B9B9B" transform="translate(0,0)"/>
<path d="" fill="#9A9A9A" transform="translate(0,0)"/>
<path d="" fill="#9A9A9C" transform="translate(0,0)"/>
<path d="" fill="#939595" transform="translate(0,0)"/>
<path d="" fill="#9B999C" transform="translate(0,0)"/>
<path d="" fill="#99989A" transform="translate(0,0)"/>
<path d="" fill="#9A9A9C" transform="translate(0,0)"/>
<path d="" fill="#9C9C9C" transform="translate(0,0)"/>
<path d="" fill="#979896" transform="translate(0,0)"/>
<path d="" fill="#989697" transform="translate(0,0)"/>
<path d="" fill="#969797" transform="translate(0,0)"/>
<path d="" fill="#98999A" transform="translate(0,0)"/>
<path d="" fill="#969699" transform="translate(0,0)"/>
<path d="" fill="#98989B" transform="translate(0,0)"/>
<path d="" fill="#9A9B9D" transform="translate(0,0)"/>
<path d="" fill="#999A9C" transform="translate(0,0)"/>
<path d="" fill="#999A9A" transform="translate(0,0)"/>
<path d="" fill="#9A9A9D" transform="translate(0,0)"/>
<path d="" fill="#98999C" transform="translate(0,0)"/>
<path d="" fill="#979799" transform="translate(0,0)"/>
<path d="" fill="#98989B" transform="translate(0,0)"/>
<path d="" fill="#9B9999" transform="translate(0,0)"/>
<path d="" fill="#9A989A" transform="translate(0,0)"/>
<path d="" fill="#9A989A" transform="translate(0,0)"/>
<path d="" fill="#999899" transform="translate(0,0)"/>
<path d="" fill="#99999A" transform="translate(0,0)"/>
<path d="" fill="#97979A" transform="translate(0,0)"/>
<path d="" fill="#979799" transform="translate(0,0)"/>
<path d="" fill="#9B9B9D" transform="translate(0,0)"/>
<path d="" fill="#999797" transform="translate(0,0)"/>
<path d="" fill="#999A9B" transform="translate(0,0)"/>
<path d="" fill="#969999" transform="translate(0,0)"/>
<path d="" fill="#98999A" transform="translate(0,0)"/>
<path d="" fill="#9C9D9D" transform="translate(0,0)"/>
<path d="" fill="#9C999B" transform="translate(0,0)"/>
<path d="" fill="#9A9B9B" transform="translate(0,0)"/>
<path d="" fill="#979898" transform="translate(0,0)"/>
<path d="" fill="#9A9A9D" transform="translate(0,0)"/>
<path d="" fill="#939597" transform="translate(0,0)"/>
<path d="" fill="#9C9C9E" transform="translate(0,0)"/>
<path d="" fill="#97989A" transform="translate(0,0)"/>
<path d="" fill="#979899" transform="translate(0,0)"/>
<path d="" fill="#979697" transform="translate(0,0)"/>
<path d="" fill="#999999" transform="translate(0,0)"/>
<path d="" fill="#9A9899" transform="translate(0,0)"/>
<path d="" fill="#979797" transform="translate(0,0)"/>
<path d="" fill="#949596" transform="translate(0,0)"/>
<path d="" fill="#939394" transform="translate(0,0)"/>
<path d="" fill="#979797" transform="translate(0,0)"/>
<path d="" fill="#969899" transform="translate(0,0)"/>
<path d="" fill="#979796" transform="translate(0,0)"/>
<path d="" fill="#949493" transform="translate(0,0)"/>
<path d="" fill="#989799" transform="translate(0,0)"/>
<path d="" fill="#999A99" transform="translate(0,0)"/>
<path d="" fill="#919392" transform="translate(0,0)"/>
<path d="" fill="#949493" transform="translate(0,0)"/>
<path d="" fill="#91908F" transform="translate(0,0)"/>
</svg>
