<?xml version="1.0" standalone="no"?>
<!DOCTYPE svg PUBLIC "-//W3C//DTD SVG 20010904//EN"
 "http://www.w3.org/TR/2001/REC-SVG-20010904/DTD/svg10.dtd">
<svg version="1.0" xmlns="http://www.w3.org/2000/svg"
 width="1024.000000pt" height="1024.000000pt" viewBox="0 0 1024.000000 1024.000000"
 preserveAspectRatio="xMidYMid meet">

<g transform="translate(0.000000,1024.000000) scale(0.100000,-0.100000)"
fill="#000000" stroke="none">
<path d="M4810 6999 c-325 -28 -729 -126 -1040 -251 -491 -198 -921 -478
-1400 -913 -255 -231 -620 -658 -620 -724 0 -17 90 -143 209 -291 201 -251
530 -566 830 -794 939 -715 2039 -984 3094 -755 902 196 1793 781 2466 1619
64 80 127 162 140 183 22 37 23 41 8 70 -23 49 -212 278 -343 418 -282 300
-627 591 -952 803 -548 358 -1075 554 -1687 626 -123 15 -576 21 -705 9z m625
-409 c366 -77 686 -276 910 -565 357 -461 412 -1110 139 -1634 -208 -402 -582
-685 -1032 -782 -152 -32 -430 -38 -587 -11 -167 29 -281 64 -412 127 -301
144 -548 387 -692 680 -106 214 -148 386 -158 640 -9 230 25 427 110 640 47
116 70 161 143 270 104 156 254 306 406 407 191 127 391 205 624 243 129 21
416 13 549 -15z m-1890 -456 c-390 -592 -407 -1421 -42 -1999 32 -49 65 -101
74 -114 17 -24 17 -24 -6 -12 -130 70 -389 239 -531 347 -209 158 -466 399
-675 634 l-104 117 113 129 c252 289 585 577 922 800 120 79 285 176 291 170
2 -1 -17 -34 -42 -72z m3202 25 c209 -121 447 -289 663 -470 133 -111 402
-373 515 -501 l67 -78 -57 -67 c-244 -288 -563 -579 -873 -796 -120 -84 -391
-252 -397 -245 -2 2 26 48 62 103 260 394 355 881 263 1336 -46 226 -162 505
-288 692 -28 42 -50 77 -48 77 3 0 44 -23 93 -51z"/>
<path d="M4915 6045 c-220 -49 -429 -183 -567 -365 -61 -80 -141 -243 -162
-330 -137 -567 200 -1100 761 -1206 116 -22 314 -15 428 15 313 83 584 341
683 651 54 171 61 358 18 525 -89 348 -377 626 -736 710 -82 19 -339 19 -425
0z m718 -441 c59 -42 90 -105 84 -172 -7 -66 -37 -116 -90 -146 -56 -32 -97
-39 -146 -26 -112 30 -171 158 -122 265 50 109 179 146 274 79z"/>
</g>
</svg>
